M48
;DRILL file {kicad (2015-03-05 BZR 5480)-product} date Tue 17 Mar 2015 09:12:57 CET
;FORMAT={-:-/ absolute / inch / decimal}
FMAT,2
INCH,TZ
T1C0.031
T2C0.098
%
G90
G05
M72
T1
X3.175Y-4.325
X3.5Y-4.7
X3.5Y-5.05
X3.5Y-5.4
X3.525Y-3.825
X3.525Y-4.325
X3.72Y-1.94
X3.72Y-2.04
X3.72Y-2.14
X3.72Y-2.24
X3.72Y-2.34
X3.72Y-2.44
X3.72Y-2.54
X3.72Y-2.64
X3.72Y-2.74
X3.72Y-2.84
X3.72Y-2.94
X3.72Y-3.04
X3.72Y-3.14
X3.72Y-3.24
X3.8937Y-4.7
X3.8937Y-5.05
X3.8937Y-5.4
X3.9187Y-3.825
X4.225Y-3.825
X4.225Y-4.025
X4.225Y-4.5
X4.225Y-4.7
X4.225Y-4.85
X4.225Y-5.05
X4.225Y-5.2
X4.225Y-5.4
X4.32Y-1.94
X4.32Y-2.04
X4.32Y-2.14
X4.32Y-2.24
X4.32Y-2.34
X4.32Y-2.44
X4.32Y-2.54
X4.32Y-2.64
X4.32Y-2.74
X4.32Y-2.84
X4.32Y-2.94
X4.32Y-3.04
X4.32Y-3.14
X4.32Y-3.24
X4.375Y-3.825
X4.375Y-4.025
X4.375Y-4.5
X4.375Y-4.7
X4.375Y-4.85
X4.375Y-5.05
X4.375Y-5.2
X4.375Y-5.4
X4.575Y-4.5
X4.575Y-4.7
X4.575Y-4.85
X4.575Y-5.05
X4.575Y-5.2
X4.575Y-5.4
X4.725Y-4.5
X4.725Y-4.7
X4.725Y-4.85
X4.725Y-5.05
X4.725Y-5.2
X4.725Y-5.4
X4.9563Y-4.7
X4.9563Y-5.05
X4.9663Y-5.4
X5.35Y-4.7
X5.35Y-5.05
X5.36Y-5.4
X5.4Y-1.48
X5.4Y-2.02
X6.725Y-1.99
X6.825Y-1.99
X6.925Y-1.99
X7.025Y-1.99
X7.125Y-1.99
X7.225Y-1.99
X7.325Y-1.99
X7.425Y-1.99
X7.525Y-1.99
X7.625Y-1.99
X7.725Y-1.99
X7.78Y-3.19
X7.825Y-1.99
X7.925Y-1.99
X7.925Y-4.775
X8.025Y-1.99
X8.0266Y-4.3852
X8.125Y-1.99
X8.125Y-4.775
X8.225Y-1.99
X8.33Y-3.19
T2
X4.7539Y-1.9922
X4.7576Y-4.1568
X8.446Y-1.99
X8.4485Y-4.1488
T0
M30
