G04 #@! TF.FileFunction,Copper,L1,Top,Signal*
%FSLAX46Y46*%
G04 Gerber Fmt 4.6, Leading zero omitted, Abs format (unit mm)*
G04 Created by KiCad (PCBNEW (2015-03-05 BZR 5480)-product) date Tue 17 Mar 2015 09:12:55 CET*
%MOMM*%
G01*
G04 APERTURE LIST*
%ADD10C,0.100000*%
%ADD11O,2.000000X4.000000*%
%ADD12C,3.000000*%
%ADD13C,1.900000*%
%ADD14C,1.270000*%
%ADD15C,0.762000*%
%ADD16C,0.254000*%
G04 APERTURE END LIST*
D10*
D11*
X208915000Y-50546000D03*
X206375000Y-50546000D03*
X203835000Y-50546000D03*
X201295000Y-50546000D03*
X198755000Y-50546000D03*
X196215000Y-50546000D03*
X193675000Y-50546000D03*
X191135000Y-50546000D03*
X188595000Y-50546000D03*
X186055000Y-50546000D03*
X183515000Y-50546000D03*
X180975000Y-50546000D03*
X178435000Y-50546000D03*
X175895000Y-50546000D03*
X173355000Y-50546000D03*
X170815000Y-50546000D03*
D12*
X214528400Y-50546000D03*
X214591900Y-105379520D03*
X120842280Y-105582720D03*
X120748300Y-50601880D03*
D13*
X137160000Y-37592000D03*
X137160000Y-51308000D03*
X197612000Y-81026000D03*
X211582000Y-81026000D03*
X136144000Y-137160000D03*
X126144000Y-137160000D03*
X88900000Y-119380000D03*
X98900000Y-119380000D03*
X135890000Y-119380000D03*
X125890000Y-119380000D03*
X88900000Y-128270000D03*
X98900000Y-128270000D03*
X135890000Y-128270000D03*
X125890000Y-128270000D03*
X88900000Y-137160000D03*
X98900000Y-137160000D03*
X206375000Y-121285000D03*
X201295000Y-121285000D03*
X203875000Y-111385000D03*
X111125000Y-114300000D03*
X107315000Y-114300000D03*
X111125000Y-119380000D03*
X107315000Y-119380000D03*
X116205000Y-119380000D03*
X120015000Y-119380000D03*
X116205000Y-114300000D03*
X120015000Y-114300000D03*
X111125000Y-123190000D03*
X107315000Y-123190000D03*
X111125000Y-128270000D03*
X107315000Y-128270000D03*
X116205000Y-128270000D03*
X120015000Y-128270000D03*
X116205000Y-123190000D03*
X120015000Y-123190000D03*
X111125000Y-132080000D03*
X107315000Y-132080000D03*
X111125000Y-137160000D03*
X107315000Y-137160000D03*
X116205000Y-137160000D03*
X120015000Y-137160000D03*
X116205000Y-132080000D03*
X120015000Y-132080000D03*
X109728000Y-51816000D03*
X109728000Y-54356000D03*
X109728000Y-56896000D03*
X109728000Y-59436000D03*
X109728000Y-61976000D03*
X109728000Y-64516000D03*
X109728000Y-67056000D03*
X109728000Y-69596000D03*
X109728000Y-72136000D03*
X109728000Y-74676000D03*
X109728000Y-77216000D03*
X109728000Y-79756000D03*
X109728000Y-82296000D03*
X94488000Y-82296000D03*
X94488000Y-79756000D03*
X94488000Y-77216000D03*
X94488000Y-74676000D03*
X94488000Y-72136000D03*
X94488000Y-69596000D03*
X94488000Y-67056000D03*
X94488000Y-64516000D03*
X94488000Y-61976000D03*
X94488000Y-59436000D03*
X94488000Y-56896000D03*
X94488000Y-54356000D03*
X94488000Y-51816000D03*
X94488000Y-49276000D03*
X109728000Y-49276000D03*
X89535000Y-97155000D03*
X99535000Y-97155000D03*
X111125000Y-97155000D03*
X107315000Y-97155000D03*
X111125000Y-102235000D03*
X107315000Y-102235000D03*
X89535000Y-109855000D03*
X80645000Y-109855000D03*
D14*
X206375000Y-121285000D02*
X206375000Y-118110000D01*
X206375000Y-50546000D02*
X206375000Y-102870000D01*
X206375000Y-114300000D02*
X207645000Y-113030000D01*
X207645000Y-113030000D02*
X207645000Y-109855000D01*
X207645000Y-109855000D02*
X206375000Y-108585000D01*
X206375000Y-108585000D02*
X206375000Y-102870000D01*
X206375000Y-114300000D02*
X206375000Y-118110000D01*
X206375000Y-118110000D02*
X206375000Y-140335000D01*
X85725000Y-64135000D02*
X85725000Y-58420000D01*
X86995000Y-142240000D02*
X85725000Y-140970000D01*
X85725000Y-140970000D02*
X85725000Y-64135000D01*
X111125000Y-140970000D02*
X109855000Y-142240000D01*
X109855000Y-142240000D02*
X96520000Y-142240000D01*
X96520000Y-142240000D02*
X86995000Y-142240000D01*
X89789000Y-54356000D02*
X94488000Y-54356000D01*
X85725000Y-58420000D02*
X89789000Y-54356000D01*
X116205000Y-139065000D02*
X116205000Y-140970000D01*
X116205000Y-140970000D02*
X117475000Y-142240000D01*
X204470000Y-142240000D02*
X206375000Y-140335000D01*
X197485000Y-142240000D02*
X204470000Y-142240000D01*
X117475000Y-142240000D02*
X197485000Y-142240000D01*
X116205000Y-137160000D02*
X116205000Y-139065000D01*
X112395000Y-142240000D02*
X111125000Y-140970000D01*
X114935000Y-142240000D02*
X112395000Y-142240000D01*
X116205000Y-140970000D02*
X114935000Y-142240000D01*
X111125000Y-139700000D02*
X111125000Y-140970000D01*
X111125000Y-139700000D02*
X111125000Y-137160000D01*
X116205000Y-114300000D02*
X111125000Y-114300000D01*
X111125000Y-114300000D02*
X111125000Y-119380000D01*
X111125000Y-119380000D02*
X111125000Y-137160000D01*
X111125000Y-137160000D02*
X116205000Y-137160000D01*
X116205000Y-137160000D02*
X116205000Y-132080000D01*
X116205000Y-132080000D02*
X111125000Y-132080000D01*
X111125000Y-128270000D02*
X116205000Y-128270000D01*
X116205000Y-128270000D02*
X116205000Y-132080000D01*
X116205000Y-128270000D02*
X116205000Y-123190000D01*
X116205000Y-123190000D02*
X111125000Y-123190000D01*
X111125000Y-123190000D02*
X111125000Y-119380000D01*
X111125000Y-119380000D02*
X116205000Y-119380000D01*
X116205000Y-123190000D02*
X116205000Y-119380000D01*
X116205000Y-119380000D02*
X116205000Y-114300000D01*
X111125000Y-114300000D02*
X111125000Y-102235000D01*
X111125000Y-102235000D02*
X111125000Y-97155000D01*
X173355000Y-45085000D02*
X173355000Y-50546000D01*
X94488000Y-54356000D02*
X99314000Y-54356000D01*
X99314000Y-54356000D02*
X102235000Y-51435000D01*
X102235000Y-51435000D02*
X102235000Y-45085000D01*
X102235000Y-45085000D02*
X105410000Y-41910000D01*
X105410000Y-41910000D02*
X170180000Y-41910000D01*
X170180000Y-41910000D02*
X173355000Y-45085000D01*
D15*
X203875000Y-111385000D02*
X203875000Y-50586000D01*
X203875000Y-50586000D02*
X203835000Y-50546000D01*
X109728000Y-82296000D02*
X176784000Y-82296000D01*
X201295000Y-57785000D02*
X201295000Y-50546000D01*
X176784000Y-82296000D02*
X201295000Y-57785000D01*
X196215000Y-50546000D02*
X196215000Y-60325000D01*
X176784000Y-79756000D02*
X109728000Y-79756000D01*
X196215000Y-60325000D02*
X176784000Y-79756000D01*
X109728000Y-77216000D02*
X167894000Y-77216000D01*
X183515000Y-61595000D02*
X183515000Y-50546000D01*
X167894000Y-77216000D02*
X183515000Y-61595000D01*
X180975000Y-50546000D02*
X180975000Y-60960000D01*
X167259000Y-74676000D02*
X109728000Y-74676000D01*
X180975000Y-60960000D02*
X167259000Y-74676000D01*
X109728000Y-72136000D02*
X166624000Y-72136000D01*
X178435000Y-60325000D02*
X178435000Y-50546000D01*
X166624000Y-72136000D02*
X178435000Y-60325000D01*
X109728000Y-69596000D02*
X166624000Y-69596000D01*
X175895000Y-60325000D02*
X175895000Y-50546000D01*
X166624000Y-69596000D02*
X175895000Y-60325000D01*
X120015000Y-132080000D02*
X120015000Y-137160000D01*
X120015000Y-137160000D02*
X126144000Y-137160000D01*
X129032000Y-137160000D02*
X131064000Y-135128000D01*
X131064000Y-135128000D02*
X131064000Y-104902000D01*
X131064000Y-104902000D02*
X116332000Y-90170000D01*
X116332000Y-90170000D02*
X105156000Y-90170000D01*
X105156000Y-90170000D02*
X104267002Y-89281002D01*
X104267002Y-89281002D02*
X104267002Y-65658998D01*
X104267002Y-65658998D02*
X105410000Y-64516000D01*
X105410000Y-64516000D02*
X109728000Y-64516000D01*
X126144000Y-137160000D02*
X129032000Y-137160000D01*
X98900000Y-119380000D02*
X107315000Y-119380000D01*
X107315000Y-119380000D02*
X107315000Y-114300000D01*
X92456000Y-74676000D02*
X91440000Y-75692000D01*
X91440000Y-75692000D02*
X91440000Y-89916000D01*
X91440000Y-89916000D02*
X96774000Y-95250000D01*
X96774000Y-95250000D02*
X96774000Y-113792000D01*
X96774000Y-113792000D02*
X98900000Y-115918000D01*
X98900000Y-115918000D02*
X98900000Y-119380000D01*
X94488000Y-74676000D02*
X92456000Y-74676000D01*
X125890000Y-119380000D02*
X120015000Y-119380000D01*
X120015000Y-119380000D02*
X120015000Y-114300000D01*
X120015000Y-111633000D02*
X118110000Y-109728000D01*
X118110000Y-109728000D02*
X116840000Y-108585000D01*
X116840000Y-108585000D02*
X114300000Y-106045000D01*
X114300000Y-106045000D02*
X114300000Y-94996000D01*
X114300000Y-94996000D02*
X113030000Y-93726000D01*
X113030000Y-93726000D02*
X102362000Y-93726000D01*
X102362000Y-93726000D02*
X100838000Y-92202000D01*
X100838000Y-92202000D02*
X100838000Y-59182000D01*
X100838000Y-59182000D02*
X103124000Y-56896000D01*
X103124000Y-56896000D02*
X109728000Y-56896000D01*
X120015000Y-114300000D02*
X120015000Y-111633000D01*
X107315000Y-128270000D02*
X107315000Y-123190000D01*
X107315000Y-128270000D02*
X98900000Y-128270000D01*
X98900000Y-124554000D02*
X96012000Y-121666000D01*
X96012000Y-121666000D02*
X96012000Y-116586000D01*
X96012000Y-116586000D02*
X94742000Y-115316000D01*
X94742000Y-115316000D02*
X94742000Y-95758000D01*
X94742000Y-95758000D02*
X89916000Y-90932000D01*
X89916000Y-90932000D02*
X89916000Y-73152000D01*
X89916000Y-73152000D02*
X90932000Y-72136000D01*
X90932000Y-72136000D02*
X94488000Y-72136000D01*
X98900000Y-128270000D02*
X98900000Y-124554000D01*
X120015000Y-128270000D02*
X120015000Y-123190000D01*
X125890000Y-128270000D02*
X120015000Y-128270000D01*
X103886000Y-61976000D02*
X102870000Y-62992000D01*
X102870000Y-62992000D02*
X102870000Y-90932000D01*
X102870000Y-90932000D02*
X103886000Y-91948000D01*
X103886000Y-91948000D02*
X115316000Y-91948000D01*
X115316000Y-91948000D02*
X129286000Y-105918000D01*
X129286000Y-105918000D02*
X129286000Y-127000000D01*
X129286000Y-127000000D02*
X128016000Y-128270000D01*
X128016000Y-128270000D02*
X125890000Y-128270000D01*
X109728000Y-61976000D02*
X103886000Y-61976000D01*
X107315000Y-132080000D02*
X107315000Y-137160000D01*
X107315000Y-137160000D02*
X98900000Y-137160000D01*
X96774000Y-137160000D02*
X92964000Y-133350000D01*
X92964000Y-133350000D02*
X92964000Y-96012000D01*
X92964000Y-96012000D02*
X88392000Y-91440000D01*
X88392000Y-91440000D02*
X88392000Y-72136000D01*
X88392000Y-72136000D02*
X90932000Y-69596000D01*
X90932000Y-69596000D02*
X94488000Y-69596000D01*
X98900000Y-137160000D02*
X96774000Y-137160000D01*
X107315000Y-102235000D02*
X107315000Y-97155000D01*
X107315000Y-97155000D02*
X99535000Y-97155000D01*
X99535000Y-95090000D02*
X97790000Y-93345000D01*
X97790000Y-93345000D02*
X97790000Y-78105000D01*
X97790000Y-78105000D02*
X96901000Y-77216000D01*
X96901000Y-77216000D02*
X94488000Y-77216000D01*
X99535000Y-97155000D02*
X99535000Y-95090000D01*
D16*
G36*
X206248000Y-112451344D02*
X205387172Y-113312172D01*
X205084340Y-113765391D01*
X204978000Y-114300000D01*
X204978000Y-118110000D01*
X204978000Y-120260540D01*
X204924483Y-120313964D01*
X204663298Y-120942968D01*
X204662704Y-121624044D01*
X204922791Y-122253503D01*
X204978000Y-122308808D01*
X204978000Y-139756344D01*
X203891344Y-140843000D01*
X202891188Y-140843000D01*
X202891188Y-121537602D01*
X202866352Y-120907539D01*
X202673019Y-120440792D01*
X202411350Y-120348255D01*
X202231745Y-120527860D01*
X202231745Y-120168650D01*
X202139208Y-119906981D01*
X201547602Y-119688812D01*
X200917539Y-119713648D01*
X200450792Y-119906981D01*
X200358255Y-120168650D01*
X201295000Y-121105395D01*
X202231745Y-120168650D01*
X202231745Y-120527860D01*
X201474605Y-121285000D01*
X202411350Y-122221745D01*
X202673019Y-122129208D01*
X202891188Y-121537602D01*
X202891188Y-140843000D01*
X202231745Y-140843000D01*
X202231745Y-122401350D01*
X201295000Y-121464605D01*
X201115395Y-121644210D01*
X201115395Y-121285000D01*
X200178650Y-120348255D01*
X199916981Y-120440792D01*
X199698812Y-121032398D01*
X199723648Y-121662461D01*
X199916981Y-122129208D01*
X200178650Y-122221745D01*
X201115395Y-121285000D01*
X201115395Y-121644210D01*
X200358255Y-122401350D01*
X200450792Y-122663019D01*
X201042398Y-122881188D01*
X201672461Y-122856352D01*
X202139208Y-122663019D01*
X202231745Y-122401350D01*
X202231745Y-140843000D01*
X199208188Y-140843000D01*
X199208188Y-81278602D01*
X199183352Y-80648539D01*
X198990019Y-80181792D01*
X198728350Y-80089255D01*
X198548745Y-80268860D01*
X198548745Y-79909650D01*
X198456208Y-79647981D01*
X197864602Y-79429812D01*
X197234539Y-79454648D01*
X196767792Y-79647981D01*
X196675255Y-79909650D01*
X197612000Y-80846395D01*
X198548745Y-79909650D01*
X198548745Y-80268860D01*
X197791605Y-81026000D01*
X198728350Y-81962745D01*
X198990019Y-81870208D01*
X199208188Y-81278602D01*
X199208188Y-140843000D01*
X198548745Y-140843000D01*
X198548745Y-82142350D01*
X197612000Y-81205605D01*
X197432395Y-81385210D01*
X197432395Y-81026000D01*
X196495650Y-80089255D01*
X196233981Y-80181792D01*
X196015812Y-80773398D01*
X196040648Y-81403461D01*
X196233981Y-81870208D01*
X196495650Y-81962745D01*
X197432395Y-81026000D01*
X197432395Y-81385210D01*
X196675255Y-82142350D01*
X196767792Y-82404019D01*
X197359398Y-82622188D01*
X197989461Y-82597352D01*
X198456208Y-82404019D01*
X198548745Y-82142350D01*
X198548745Y-140843000D01*
X197485000Y-140843000D01*
X137740188Y-140843000D01*
X137740188Y-137412602D01*
X137715352Y-136782539D01*
X137522019Y-136315792D01*
X137486188Y-136303120D01*
X137486188Y-128522602D01*
X137486188Y-119632602D01*
X137461352Y-119002539D01*
X137268019Y-118535792D01*
X137006350Y-118443255D01*
X136826745Y-118622860D01*
X136826745Y-118263650D01*
X136734208Y-118001981D01*
X136142602Y-117783812D01*
X135512539Y-117808648D01*
X135045792Y-118001981D01*
X134953255Y-118263650D01*
X135890000Y-119200395D01*
X136826745Y-118263650D01*
X136826745Y-118622860D01*
X136069605Y-119380000D01*
X137006350Y-120316745D01*
X137268019Y-120224208D01*
X137486188Y-119632602D01*
X137486188Y-128522602D01*
X137461352Y-127892539D01*
X137268019Y-127425792D01*
X137006350Y-127333255D01*
X136826745Y-127512860D01*
X136826745Y-127153650D01*
X136826745Y-120496350D01*
X135890000Y-119559605D01*
X135710395Y-119739210D01*
X135710395Y-119380000D01*
X134773650Y-118443255D01*
X134511981Y-118535792D01*
X134293812Y-119127398D01*
X134318648Y-119757461D01*
X134511981Y-120224208D01*
X134773650Y-120316745D01*
X135710395Y-119380000D01*
X135710395Y-119739210D01*
X134953255Y-120496350D01*
X135045792Y-120758019D01*
X135637398Y-120976188D01*
X136267461Y-120951352D01*
X136734208Y-120758019D01*
X136826745Y-120496350D01*
X136826745Y-127153650D01*
X136734208Y-126891981D01*
X136142602Y-126673812D01*
X135512539Y-126698648D01*
X135045792Y-126891981D01*
X134953255Y-127153650D01*
X135890000Y-128090395D01*
X136826745Y-127153650D01*
X136826745Y-127512860D01*
X136069605Y-128270000D01*
X137006350Y-129206745D01*
X137268019Y-129114208D01*
X137486188Y-128522602D01*
X137486188Y-136303120D01*
X137260350Y-136223255D01*
X137080745Y-136402860D01*
X137080745Y-136043650D01*
X136988208Y-135781981D01*
X136826745Y-135722437D01*
X136826745Y-129386350D01*
X135890000Y-128449605D01*
X135710395Y-128629210D01*
X135710395Y-128270000D01*
X134773650Y-127333255D01*
X134511981Y-127425792D01*
X134293812Y-128017398D01*
X134318648Y-128647461D01*
X134511981Y-129114208D01*
X134773650Y-129206745D01*
X135710395Y-128270000D01*
X135710395Y-128629210D01*
X134953255Y-129386350D01*
X135045792Y-129648019D01*
X135637398Y-129866188D01*
X136267461Y-129841352D01*
X136734208Y-129648019D01*
X136826745Y-129386350D01*
X136826745Y-135722437D01*
X136396602Y-135563812D01*
X135766539Y-135588648D01*
X135299792Y-135781981D01*
X135207255Y-136043650D01*
X136144000Y-136980395D01*
X137080745Y-136043650D01*
X137080745Y-136402860D01*
X136323605Y-137160000D01*
X137260350Y-138096745D01*
X137522019Y-138004208D01*
X137740188Y-137412602D01*
X137740188Y-140843000D01*
X137080745Y-140843000D01*
X137080745Y-138276350D01*
X136144000Y-137339605D01*
X135964395Y-137519210D01*
X135964395Y-137160000D01*
X135027650Y-136223255D01*
X134765981Y-136315792D01*
X134547812Y-136907398D01*
X134572648Y-137537461D01*
X134765981Y-138004208D01*
X135027650Y-138096745D01*
X135964395Y-137160000D01*
X135964395Y-137519210D01*
X135207255Y-138276350D01*
X135299792Y-138538019D01*
X135891398Y-138756188D01*
X136521461Y-138731352D01*
X136988208Y-138538019D01*
X137080745Y-138276350D01*
X137080745Y-140843000D01*
X118053656Y-140843000D01*
X117602000Y-140391344D01*
X117602000Y-139065000D01*
X117602000Y-138184459D01*
X117655517Y-138131036D01*
X117916702Y-137502032D01*
X117917296Y-136820956D01*
X117657209Y-136191497D01*
X117602000Y-136136191D01*
X117602000Y-133104459D01*
X117655517Y-133051036D01*
X117916702Y-132422032D01*
X117917296Y-131740956D01*
X117657209Y-131111497D01*
X117602000Y-131056191D01*
X117602000Y-129294459D01*
X117655517Y-129241036D01*
X117916702Y-128612032D01*
X117917296Y-127930956D01*
X117657209Y-127301497D01*
X117602000Y-127246191D01*
X117602000Y-124214459D01*
X117655517Y-124161036D01*
X117916702Y-123532032D01*
X117917296Y-122850956D01*
X117657209Y-122221497D01*
X117602000Y-122166191D01*
X117602000Y-120404459D01*
X117655517Y-120351036D01*
X117916702Y-119722032D01*
X117917296Y-119040956D01*
X117657209Y-118411497D01*
X117602000Y-118356191D01*
X117602000Y-115324459D01*
X117655517Y-115271036D01*
X117916702Y-114642032D01*
X117917296Y-113960956D01*
X117657209Y-113331497D01*
X117176036Y-112849483D01*
X116547032Y-112588298D01*
X115865956Y-112587704D01*
X115236497Y-112847791D01*
X115181191Y-112903000D01*
X112522000Y-112903000D01*
X112522000Y-103259459D01*
X112575517Y-103206036D01*
X112836702Y-102577032D01*
X112837296Y-101895956D01*
X112577209Y-101266497D01*
X112522000Y-101211191D01*
X112522000Y-98179459D01*
X112575517Y-98126036D01*
X112836702Y-97497032D01*
X112837296Y-96815956D01*
X112577209Y-96186497D01*
X112096036Y-95704483D01*
X111467032Y-95443298D01*
X110785956Y-95442704D01*
X110156497Y-95702791D01*
X109674483Y-96183964D01*
X109413298Y-96812968D01*
X109412704Y-97494044D01*
X109672791Y-98123503D01*
X109728000Y-98178808D01*
X109728000Y-101210540D01*
X109674483Y-101263964D01*
X109413298Y-101892968D01*
X109412704Y-102574044D01*
X109672791Y-103203503D01*
X109728000Y-103258808D01*
X109728000Y-113275540D01*
X109674483Y-113328964D01*
X109413298Y-113957968D01*
X109412704Y-114639044D01*
X109672791Y-115268503D01*
X109728000Y-115323808D01*
X109728000Y-118355540D01*
X109674483Y-118408964D01*
X109413298Y-119037968D01*
X109412704Y-119719044D01*
X109672791Y-120348503D01*
X109728000Y-120403808D01*
X109728000Y-122165540D01*
X109674483Y-122218964D01*
X109413298Y-122847968D01*
X109412704Y-123529044D01*
X109672791Y-124158503D01*
X109728000Y-124213808D01*
X109728000Y-127245540D01*
X109674483Y-127298964D01*
X109413298Y-127927968D01*
X109412704Y-128609044D01*
X109672791Y-129238503D01*
X109728000Y-129293808D01*
X109728000Y-131055540D01*
X109674483Y-131108964D01*
X109413298Y-131737968D01*
X109412704Y-132419044D01*
X109672791Y-133048503D01*
X109728000Y-133103808D01*
X109728000Y-136135540D01*
X109674483Y-136188964D01*
X109413298Y-136817968D01*
X109412704Y-137499044D01*
X109672791Y-138128503D01*
X109728000Y-138183808D01*
X109728000Y-139700000D01*
X109728000Y-140391344D01*
X109276344Y-140843000D01*
X96520000Y-140843000D01*
X91131188Y-140843000D01*
X91131188Y-110107602D01*
X91131188Y-97407602D01*
X91106352Y-96777539D01*
X90913019Y-96310792D01*
X90651350Y-96218255D01*
X90471745Y-96397860D01*
X90471745Y-96038650D01*
X90379208Y-95776981D01*
X89787602Y-95558812D01*
X89157539Y-95583648D01*
X88690792Y-95776981D01*
X88598255Y-96038650D01*
X89535000Y-96975395D01*
X90471745Y-96038650D01*
X90471745Y-96397860D01*
X89714605Y-97155000D01*
X90651350Y-98091745D01*
X90913019Y-97999208D01*
X91131188Y-97407602D01*
X91131188Y-110107602D01*
X91106352Y-109477539D01*
X90913019Y-109010792D01*
X90651350Y-108918255D01*
X90471745Y-109097860D01*
X90471745Y-108738650D01*
X90471745Y-98271350D01*
X89535000Y-97334605D01*
X89355395Y-97514210D01*
X89355395Y-97155000D01*
X88418650Y-96218255D01*
X88156981Y-96310792D01*
X87938812Y-96902398D01*
X87963648Y-97532461D01*
X88156981Y-97999208D01*
X88418650Y-98091745D01*
X89355395Y-97155000D01*
X89355395Y-97514210D01*
X88598255Y-98271350D01*
X88690792Y-98533019D01*
X89282398Y-98751188D01*
X89912461Y-98726352D01*
X90379208Y-98533019D01*
X90471745Y-98271350D01*
X90471745Y-108738650D01*
X90379208Y-108476981D01*
X89787602Y-108258812D01*
X89157539Y-108283648D01*
X88690792Y-108476981D01*
X88598255Y-108738650D01*
X89535000Y-109675395D01*
X90471745Y-108738650D01*
X90471745Y-109097860D01*
X89714605Y-109855000D01*
X90651350Y-110791745D01*
X90913019Y-110699208D01*
X91131188Y-110107602D01*
X91131188Y-140843000D01*
X90496188Y-140843000D01*
X90496188Y-137412602D01*
X90496188Y-128522602D01*
X90496188Y-119632602D01*
X90471745Y-119012508D01*
X90471745Y-110971350D01*
X89535000Y-110034605D01*
X89355395Y-110214210D01*
X89355395Y-109855000D01*
X88418650Y-108918255D01*
X88156981Y-109010792D01*
X87938812Y-109602398D01*
X87963648Y-110232461D01*
X88156981Y-110699208D01*
X88418650Y-110791745D01*
X89355395Y-109855000D01*
X89355395Y-110214210D01*
X88598255Y-110971350D01*
X88690792Y-111233019D01*
X89282398Y-111451188D01*
X89912461Y-111426352D01*
X90379208Y-111233019D01*
X90471745Y-110971350D01*
X90471745Y-119012508D01*
X90471352Y-119002539D01*
X90278019Y-118535792D01*
X90016350Y-118443255D01*
X89836745Y-118622860D01*
X89836745Y-118263650D01*
X89744208Y-118001981D01*
X89152602Y-117783812D01*
X88522539Y-117808648D01*
X88055792Y-118001981D01*
X87963255Y-118263650D01*
X88900000Y-119200395D01*
X89836745Y-118263650D01*
X89836745Y-118622860D01*
X89079605Y-119380000D01*
X90016350Y-120316745D01*
X90278019Y-120224208D01*
X90496188Y-119632602D01*
X90496188Y-128522602D01*
X90471352Y-127892539D01*
X90278019Y-127425792D01*
X90016350Y-127333255D01*
X89836745Y-127512860D01*
X89836745Y-127153650D01*
X89836745Y-120496350D01*
X88900000Y-119559605D01*
X88720395Y-119739210D01*
X88720395Y-119380000D01*
X87783650Y-118443255D01*
X87521981Y-118535792D01*
X87303812Y-119127398D01*
X87328648Y-119757461D01*
X87521981Y-120224208D01*
X87783650Y-120316745D01*
X88720395Y-119380000D01*
X88720395Y-119739210D01*
X87963255Y-120496350D01*
X88055792Y-120758019D01*
X88647398Y-120976188D01*
X89277461Y-120951352D01*
X89744208Y-120758019D01*
X89836745Y-120496350D01*
X89836745Y-127153650D01*
X89744208Y-126891981D01*
X89152602Y-126673812D01*
X88522539Y-126698648D01*
X88055792Y-126891981D01*
X87963255Y-127153650D01*
X88900000Y-128090395D01*
X89836745Y-127153650D01*
X89836745Y-127512860D01*
X89079605Y-128270000D01*
X90016350Y-129206745D01*
X90278019Y-129114208D01*
X90496188Y-128522602D01*
X90496188Y-137412602D01*
X90471352Y-136782539D01*
X90278019Y-136315792D01*
X90016350Y-136223255D01*
X89836745Y-136402860D01*
X89836745Y-136043650D01*
X89836745Y-129386350D01*
X88900000Y-128449605D01*
X88720395Y-128629210D01*
X88720395Y-128270000D01*
X87783650Y-127333255D01*
X87521981Y-127425792D01*
X87303812Y-128017398D01*
X87328648Y-128647461D01*
X87521981Y-129114208D01*
X87783650Y-129206745D01*
X88720395Y-128270000D01*
X88720395Y-128629210D01*
X87963255Y-129386350D01*
X88055792Y-129648019D01*
X88647398Y-129866188D01*
X89277461Y-129841352D01*
X89744208Y-129648019D01*
X89836745Y-129386350D01*
X89836745Y-136043650D01*
X89744208Y-135781981D01*
X89152602Y-135563812D01*
X88522539Y-135588648D01*
X88055792Y-135781981D01*
X87963255Y-136043650D01*
X88900000Y-136980395D01*
X89836745Y-136043650D01*
X89836745Y-136402860D01*
X89079605Y-137160000D01*
X90016350Y-138096745D01*
X90278019Y-138004208D01*
X90496188Y-137412602D01*
X90496188Y-140843000D01*
X89836745Y-140843000D01*
X89836745Y-138276350D01*
X88900000Y-137339605D01*
X88720395Y-137519210D01*
X88720395Y-137160000D01*
X87783650Y-136223255D01*
X87521981Y-136315792D01*
X87303812Y-136907398D01*
X87328648Y-137537461D01*
X87521981Y-138004208D01*
X87783650Y-138096745D01*
X88720395Y-137160000D01*
X88720395Y-137519210D01*
X87963255Y-138276350D01*
X88055792Y-138538019D01*
X88647398Y-138756188D01*
X89277461Y-138731352D01*
X89744208Y-138538019D01*
X89836745Y-138276350D01*
X89836745Y-140843000D01*
X87573656Y-140843000D01*
X87122000Y-140391344D01*
X87122000Y-64135000D01*
X87122000Y-58998656D01*
X90367656Y-55753000D01*
X93209747Y-55753000D01*
X93037483Y-55924964D01*
X92776298Y-56553968D01*
X92775704Y-57235044D01*
X93035791Y-57864503D01*
X93336865Y-58166103D01*
X93037483Y-58464964D01*
X92776298Y-59093968D01*
X92775704Y-59775044D01*
X93035791Y-60404503D01*
X93336865Y-60706103D01*
X93037483Y-61004964D01*
X92776298Y-61633968D01*
X92775704Y-62315044D01*
X93035791Y-62944503D01*
X93336865Y-63246103D01*
X93037483Y-63544964D01*
X92776298Y-64173968D01*
X92775704Y-64855044D01*
X93035791Y-65484503D01*
X93336865Y-65786103D01*
X93037483Y-66084964D01*
X92776298Y-66713968D01*
X92775704Y-67395044D01*
X93035791Y-68024503D01*
X93336865Y-68326103D01*
X93209747Y-68453000D01*
X90932000Y-68453000D01*
X90494593Y-68540006D01*
X90123777Y-68787777D01*
X87583777Y-71327777D01*
X87336006Y-71698593D01*
X87249000Y-72136000D01*
X87249000Y-91440000D01*
X87336006Y-91877407D01*
X87583777Y-92248223D01*
X91821000Y-96485446D01*
X91821000Y-133350000D01*
X91908006Y-133787407D01*
X92155777Y-134158223D01*
X95965777Y-137968223D01*
X96336593Y-138215994D01*
X96774000Y-138303000D01*
X97621983Y-138303000D01*
X97928964Y-138610517D01*
X98557968Y-138871702D01*
X99239044Y-138872296D01*
X99868503Y-138612209D01*
X100178252Y-138303000D01*
X106036983Y-138303000D01*
X106343964Y-138610517D01*
X106972968Y-138871702D01*
X107654044Y-138872296D01*
X108283503Y-138612209D01*
X108765517Y-138131036D01*
X109026702Y-137502032D01*
X109027296Y-136820956D01*
X108767209Y-136191497D01*
X108458000Y-135881747D01*
X108458000Y-133358016D01*
X108765517Y-133051036D01*
X109026702Y-132422032D01*
X109027296Y-131740956D01*
X108767209Y-131111497D01*
X108286036Y-130629483D01*
X107657032Y-130368298D01*
X106975956Y-130367704D01*
X106346497Y-130627791D01*
X105864483Y-131108964D01*
X105603298Y-131737968D01*
X105602704Y-132419044D01*
X105862791Y-133048503D01*
X106172000Y-133358252D01*
X106172000Y-135881983D01*
X106036747Y-136017000D01*
X100178016Y-136017000D01*
X99871036Y-135709483D01*
X99242032Y-135448298D01*
X98560956Y-135447704D01*
X97931497Y-135707791D01*
X97621747Y-136017000D01*
X97247446Y-136017000D01*
X94107000Y-132876554D01*
X94107000Y-116297446D01*
X94869000Y-117059446D01*
X94869000Y-121666000D01*
X94956006Y-122103407D01*
X95203777Y-122474223D01*
X97757000Y-125027446D01*
X97757000Y-126991983D01*
X97449483Y-127298964D01*
X97188298Y-127927968D01*
X97187704Y-128609044D01*
X97447791Y-129238503D01*
X97928964Y-129720517D01*
X98557968Y-129981702D01*
X99239044Y-129982296D01*
X99868503Y-129722209D01*
X100178252Y-129413000D01*
X106036983Y-129413000D01*
X106343964Y-129720517D01*
X106972968Y-129981702D01*
X107654044Y-129982296D01*
X108283503Y-129722209D01*
X108765517Y-129241036D01*
X109026702Y-128612032D01*
X109027296Y-127930956D01*
X108767209Y-127301497D01*
X108458000Y-126991747D01*
X108458000Y-124468016D01*
X108765517Y-124161036D01*
X109026702Y-123532032D01*
X109027296Y-122850956D01*
X108767209Y-122221497D01*
X108286036Y-121739483D01*
X107657032Y-121478298D01*
X106975956Y-121477704D01*
X106346497Y-121737791D01*
X105864483Y-122218964D01*
X105603298Y-122847968D01*
X105602704Y-123529044D01*
X105862791Y-124158503D01*
X106172000Y-124468252D01*
X106172000Y-126991983D01*
X106036747Y-127127000D01*
X100178016Y-127127000D01*
X100043000Y-126991747D01*
X100043000Y-124554000D01*
X99955994Y-124116593D01*
X99708223Y-123745777D01*
X97155000Y-121192554D01*
X97155000Y-116586000D01*
X97067994Y-116148593D01*
X96820223Y-115777777D01*
X95885000Y-114842554D01*
X95885000Y-114479331D01*
X95965777Y-114600223D01*
X97757000Y-116391446D01*
X97757000Y-118101983D01*
X97449483Y-118408964D01*
X97188298Y-119037968D01*
X97187704Y-119719044D01*
X97447791Y-120348503D01*
X97928964Y-120830517D01*
X98557968Y-121091702D01*
X99239044Y-121092296D01*
X99868503Y-120832209D01*
X100178252Y-120523000D01*
X106036983Y-120523000D01*
X106343964Y-120830517D01*
X106972968Y-121091702D01*
X107654044Y-121092296D01*
X108283503Y-120832209D01*
X108765517Y-120351036D01*
X109026702Y-119722032D01*
X109027296Y-119040956D01*
X108767209Y-118411497D01*
X108458000Y-118101747D01*
X108458000Y-115578016D01*
X108765517Y-115271036D01*
X109026702Y-114642032D01*
X109027296Y-113960956D01*
X108767209Y-113331497D01*
X108286036Y-112849483D01*
X107657032Y-112588298D01*
X106975956Y-112587704D01*
X106346497Y-112847791D01*
X105864483Y-113328964D01*
X105603298Y-113957968D01*
X105602704Y-114639044D01*
X105862791Y-115268503D01*
X106172000Y-115578252D01*
X106172000Y-118101983D01*
X106036747Y-118237000D01*
X100178016Y-118237000D01*
X100043000Y-118101747D01*
X100043000Y-115918000D01*
X99955994Y-115480593D01*
X99708223Y-115109777D01*
X97917000Y-113318554D01*
X97917000Y-97722257D01*
X98082791Y-98123503D01*
X98563964Y-98605517D01*
X99192968Y-98866702D01*
X99874044Y-98867296D01*
X100503503Y-98607209D01*
X100813252Y-98298000D01*
X106036983Y-98298000D01*
X106172000Y-98433252D01*
X106172000Y-100956983D01*
X105864483Y-101263964D01*
X105603298Y-101892968D01*
X105602704Y-102574044D01*
X105862791Y-103203503D01*
X106343964Y-103685517D01*
X106972968Y-103946702D01*
X107654044Y-103947296D01*
X108283503Y-103687209D01*
X108765517Y-103206036D01*
X109026702Y-102577032D01*
X109027296Y-101895956D01*
X108767209Y-101266497D01*
X108458000Y-100956747D01*
X108458000Y-98433016D01*
X108765517Y-98126036D01*
X109026702Y-97497032D01*
X109027296Y-96815956D01*
X108767209Y-96186497D01*
X108286036Y-95704483D01*
X107657032Y-95443298D01*
X106975956Y-95442704D01*
X106346497Y-95702791D01*
X106036747Y-96012000D01*
X100813016Y-96012000D01*
X100678000Y-95876747D01*
X100678000Y-95090000D01*
X100590994Y-94652593D01*
X100343223Y-94281777D01*
X98933000Y-92871554D01*
X98933000Y-78105000D01*
X98845994Y-77667593D01*
X98598223Y-77296777D01*
X97709223Y-76407777D01*
X97338407Y-76160006D01*
X96901000Y-76073000D01*
X95766016Y-76073000D01*
X95639134Y-75945896D01*
X95938517Y-75647036D01*
X96199702Y-75018032D01*
X96200296Y-74336956D01*
X95940209Y-73707497D01*
X95639134Y-73405896D01*
X95938517Y-73107036D01*
X96199702Y-72478032D01*
X96200296Y-71796956D01*
X95940209Y-71167497D01*
X95639134Y-70865896D01*
X95938517Y-70567036D01*
X96199702Y-69938032D01*
X96200296Y-69256956D01*
X95940209Y-68627497D01*
X95639134Y-68325896D01*
X95938517Y-68027036D01*
X96199702Y-67398032D01*
X96200296Y-66716956D01*
X95940209Y-66087497D01*
X95639134Y-65785896D01*
X95938517Y-65487036D01*
X96199702Y-64858032D01*
X96200296Y-64176956D01*
X95940209Y-63547497D01*
X95639134Y-63245896D01*
X95938517Y-62947036D01*
X96199702Y-62318032D01*
X96200296Y-61636956D01*
X95940209Y-61007497D01*
X95639134Y-60705896D01*
X95938517Y-60407036D01*
X96199702Y-59778032D01*
X96200296Y-59096956D01*
X95940209Y-58467497D01*
X95639134Y-58165896D01*
X95938517Y-57867036D01*
X96199702Y-57238032D01*
X96200296Y-56556956D01*
X95940209Y-55927497D01*
X95766016Y-55753000D01*
X99314000Y-55753000D01*
X99848609Y-55646660D01*
X100301828Y-55343828D01*
X103222828Y-52422828D01*
X103525660Y-51969609D01*
X103632000Y-51435000D01*
X103632000Y-45663656D01*
X105988655Y-43307000D01*
X169601344Y-43307000D01*
X171958000Y-45663656D01*
X171958000Y-48397554D01*
X171881317Y-48300078D01*
X171323355Y-47986856D01*
X171195434Y-47955876D01*
X170942000Y-48075223D01*
X170942000Y-50419000D01*
X170962000Y-50419000D01*
X170962000Y-50673000D01*
X170942000Y-50673000D01*
X170942000Y-53016777D01*
X171195434Y-53136124D01*
X171323355Y-53105144D01*
X171881317Y-52791922D01*
X171984923Y-52660222D01*
X172109078Y-52846033D01*
X172680712Y-53227987D01*
X173355000Y-53362111D01*
X174029288Y-53227987D01*
X174600922Y-52846033D01*
X174625000Y-52809997D01*
X174649078Y-52846033D01*
X174752000Y-52914803D01*
X174752000Y-59851554D01*
X170688000Y-63915554D01*
X170688000Y-53016777D01*
X170688000Y-50673000D01*
X170688000Y-50419000D01*
X170688000Y-48075223D01*
X170434566Y-47955876D01*
X170306645Y-47986856D01*
X169748683Y-48300078D01*
X169353058Y-48802980D01*
X169180000Y-49419000D01*
X169180000Y-50419000D01*
X170688000Y-50419000D01*
X170688000Y-50673000D01*
X169180000Y-50673000D01*
X169180000Y-51673000D01*
X169353058Y-52289020D01*
X169748683Y-52791922D01*
X170306645Y-53105144D01*
X170434566Y-53136124D01*
X170688000Y-53016777D01*
X170688000Y-63915554D01*
X166150554Y-68453000D01*
X138756188Y-68453000D01*
X138756188Y-51560602D01*
X138731352Y-50930539D01*
X138538019Y-50463792D01*
X138276350Y-50371255D01*
X138096745Y-50550860D01*
X138096745Y-50191650D01*
X138004208Y-49929981D01*
X137412602Y-49711812D01*
X136782539Y-49736648D01*
X136315792Y-49929981D01*
X136223255Y-50191650D01*
X137160000Y-51128395D01*
X138096745Y-50191650D01*
X138096745Y-50550860D01*
X137339605Y-51308000D01*
X138276350Y-52244745D01*
X138538019Y-52152208D01*
X138756188Y-51560602D01*
X138756188Y-68453000D01*
X138096745Y-68453000D01*
X138096745Y-52424350D01*
X137160000Y-51487605D01*
X136980395Y-51667210D01*
X136980395Y-51308000D01*
X136043650Y-50371255D01*
X135781981Y-50463792D01*
X135563812Y-51055398D01*
X135588648Y-51685461D01*
X135781981Y-52152208D01*
X136043650Y-52244745D01*
X136980395Y-51308000D01*
X136980395Y-51667210D01*
X136223255Y-52424350D01*
X136315792Y-52686019D01*
X136907398Y-52904188D01*
X137537461Y-52879352D01*
X138004208Y-52686019D01*
X138096745Y-52424350D01*
X138096745Y-68453000D01*
X123010692Y-68453000D01*
X123010692Y-50153914D01*
X122667048Y-49322234D01*
X122031293Y-48685368D01*
X121200214Y-48340274D01*
X120300334Y-48339488D01*
X119468654Y-48683132D01*
X118831788Y-49318887D01*
X118486694Y-50149966D01*
X118485908Y-51049846D01*
X118829552Y-51881526D01*
X119465307Y-52518392D01*
X120296386Y-52863486D01*
X121196266Y-52864272D01*
X122027946Y-52520628D01*
X122664812Y-51884873D01*
X123009906Y-51053794D01*
X123010692Y-50153914D01*
X123010692Y-68453000D01*
X111006016Y-68453000D01*
X110879134Y-68325896D01*
X111178517Y-68027036D01*
X111439702Y-67398032D01*
X111440296Y-66716956D01*
X111180209Y-66087497D01*
X110879134Y-65785896D01*
X111178517Y-65487036D01*
X111439702Y-64858032D01*
X111440296Y-64176956D01*
X111180209Y-63547497D01*
X110879134Y-63245896D01*
X111178517Y-62947036D01*
X111439702Y-62318032D01*
X111440296Y-61636956D01*
X111180209Y-61007497D01*
X110879134Y-60705896D01*
X111178517Y-60407036D01*
X111439702Y-59778032D01*
X111440296Y-59096956D01*
X111180209Y-58467497D01*
X110879134Y-58165896D01*
X111178517Y-57867036D01*
X111439702Y-57238032D01*
X111440296Y-56556956D01*
X111180209Y-55927497D01*
X110879134Y-55625896D01*
X111178517Y-55327036D01*
X111439702Y-54698032D01*
X111440296Y-54016956D01*
X111180209Y-53387497D01*
X110879134Y-53085896D01*
X111178517Y-52787036D01*
X111439702Y-52158032D01*
X111440296Y-51476956D01*
X111324188Y-51195953D01*
X111324188Y-49528602D01*
X111299352Y-48898539D01*
X111106019Y-48431792D01*
X110844350Y-48339255D01*
X110664745Y-48518860D01*
X110664745Y-48159650D01*
X110572208Y-47897981D01*
X109980602Y-47679812D01*
X109350539Y-47704648D01*
X108883792Y-47897981D01*
X108791255Y-48159650D01*
X109728000Y-49096395D01*
X110664745Y-48159650D01*
X110664745Y-48518860D01*
X109907605Y-49276000D01*
X110844350Y-50212745D01*
X111106019Y-50120208D01*
X111324188Y-49528602D01*
X111324188Y-51195953D01*
X111180209Y-50847497D01*
X110699036Y-50365483D01*
X110594450Y-50322055D01*
X109728000Y-49455605D01*
X109548395Y-49635209D01*
X109548395Y-49276000D01*
X108611650Y-48339255D01*
X108349981Y-48431792D01*
X108131812Y-49023398D01*
X108156648Y-49653461D01*
X108349981Y-50120208D01*
X108611650Y-50212745D01*
X109548395Y-49276000D01*
X109548395Y-49635209D01*
X108862285Y-50321319D01*
X108759497Y-50363791D01*
X108277483Y-50844964D01*
X108016298Y-51473968D01*
X108015704Y-52155044D01*
X108275791Y-52784503D01*
X108576865Y-53086103D01*
X108277483Y-53384964D01*
X108016298Y-54013968D01*
X108015704Y-54695044D01*
X108275791Y-55324503D01*
X108576865Y-55626103D01*
X108449747Y-55753000D01*
X103124000Y-55753000D01*
X102686593Y-55840006D01*
X102315777Y-56087777D01*
X100029777Y-58373777D01*
X99782006Y-58744593D01*
X99695000Y-59182000D01*
X99695000Y-92202000D01*
X99782006Y-92639407D01*
X100029777Y-93010223D01*
X101553777Y-94534223D01*
X101924593Y-94781994D01*
X102362000Y-94869000D01*
X112556554Y-94869000D01*
X113157000Y-95469446D01*
X113157000Y-106045000D01*
X113244006Y-106482407D01*
X113491777Y-106853223D01*
X116031777Y-109393223D01*
X116057126Y-109410160D01*
X116075373Y-109434585D01*
X117323033Y-110557479D01*
X118872000Y-112106446D01*
X118872000Y-113021983D01*
X118564483Y-113328964D01*
X118303298Y-113957968D01*
X118302704Y-114639044D01*
X118562791Y-115268503D01*
X118872000Y-115578252D01*
X118872000Y-118101983D01*
X118564483Y-118408964D01*
X118303298Y-119037968D01*
X118302704Y-119719044D01*
X118562791Y-120348503D01*
X119043964Y-120830517D01*
X119672968Y-121091702D01*
X120354044Y-121092296D01*
X120983503Y-120832209D01*
X121293252Y-120523000D01*
X124611983Y-120523000D01*
X124918964Y-120830517D01*
X125547968Y-121091702D01*
X126229044Y-121092296D01*
X126858503Y-120832209D01*
X127340517Y-120351036D01*
X127601702Y-119722032D01*
X127602296Y-119040956D01*
X127342209Y-118411497D01*
X126861036Y-117929483D01*
X126232032Y-117668298D01*
X125550956Y-117667704D01*
X124921497Y-117927791D01*
X124611747Y-118237000D01*
X123104672Y-118237000D01*
X123104672Y-105134754D01*
X122761028Y-104303074D01*
X122125273Y-103666208D01*
X121294194Y-103321114D01*
X120394314Y-103320328D01*
X119562634Y-103663972D01*
X118925768Y-104299727D01*
X118580674Y-105130806D01*
X118579888Y-106030686D01*
X118923532Y-106862366D01*
X119559287Y-107499232D01*
X120390366Y-107844326D01*
X121290246Y-107845112D01*
X122121926Y-107501468D01*
X122758792Y-106865713D01*
X123103886Y-106034634D01*
X123104672Y-105134754D01*
X123104672Y-118237000D01*
X121293016Y-118237000D01*
X121158000Y-118101747D01*
X121158000Y-115578016D01*
X121465517Y-115271036D01*
X121726702Y-114642032D01*
X121727296Y-113960956D01*
X121467209Y-113331497D01*
X121158000Y-113021747D01*
X121158000Y-111633000D01*
X121070994Y-111195593D01*
X120823223Y-110824777D01*
X118918223Y-108919777D01*
X118892872Y-108902838D01*
X118874626Y-108878415D01*
X117626967Y-107755521D01*
X115443000Y-105571554D01*
X115443000Y-94996000D01*
X115355994Y-94558593D01*
X115108223Y-94187777D01*
X114011446Y-93091000D01*
X114842554Y-93091000D01*
X128143000Y-106391446D01*
X128143000Y-126526554D01*
X127542554Y-127127000D01*
X127168016Y-127127000D01*
X126861036Y-126819483D01*
X126232032Y-126558298D01*
X125550956Y-126557704D01*
X124921497Y-126817791D01*
X124611747Y-127127000D01*
X121293016Y-127127000D01*
X121158000Y-126991747D01*
X121158000Y-124468016D01*
X121465517Y-124161036D01*
X121726702Y-123532032D01*
X121727296Y-122850956D01*
X121467209Y-122221497D01*
X120986036Y-121739483D01*
X120357032Y-121478298D01*
X119675956Y-121477704D01*
X119046497Y-121737791D01*
X118564483Y-122218964D01*
X118303298Y-122847968D01*
X118302704Y-123529044D01*
X118562791Y-124158503D01*
X118872000Y-124468252D01*
X118872000Y-126991983D01*
X118564483Y-127298964D01*
X118303298Y-127927968D01*
X118302704Y-128609044D01*
X118562791Y-129238503D01*
X119043964Y-129720517D01*
X119672968Y-129981702D01*
X120354044Y-129982296D01*
X120983503Y-129722209D01*
X121293252Y-129413000D01*
X124611983Y-129413000D01*
X124918964Y-129720517D01*
X125547968Y-129981702D01*
X126229044Y-129982296D01*
X126858503Y-129722209D01*
X127168252Y-129413000D01*
X128016000Y-129413000D01*
X128453407Y-129325994D01*
X128824223Y-129078223D01*
X129921000Y-127981446D01*
X129921000Y-134654554D01*
X128558554Y-136017000D01*
X127422016Y-136017000D01*
X127115036Y-135709483D01*
X126486032Y-135448298D01*
X125804956Y-135447704D01*
X125175497Y-135707791D01*
X124865747Y-136017000D01*
X121293016Y-136017000D01*
X121158000Y-135881747D01*
X121158000Y-133358016D01*
X121465517Y-133051036D01*
X121726702Y-132422032D01*
X121727296Y-131740956D01*
X121467209Y-131111497D01*
X120986036Y-130629483D01*
X120357032Y-130368298D01*
X119675956Y-130367704D01*
X119046497Y-130627791D01*
X118564483Y-131108964D01*
X118303298Y-131737968D01*
X118302704Y-132419044D01*
X118562791Y-133048503D01*
X118872000Y-133358252D01*
X118872000Y-135881983D01*
X118564483Y-136188964D01*
X118303298Y-136817968D01*
X118302704Y-137499044D01*
X118562791Y-138128503D01*
X119043964Y-138610517D01*
X119672968Y-138871702D01*
X120354044Y-138872296D01*
X120983503Y-138612209D01*
X121293252Y-138303000D01*
X124865983Y-138303000D01*
X125172964Y-138610517D01*
X125801968Y-138871702D01*
X126483044Y-138872296D01*
X127112503Y-138612209D01*
X127422252Y-138303000D01*
X129032000Y-138303000D01*
X129469407Y-138215994D01*
X129840223Y-137968223D01*
X131872223Y-135936223D01*
X132119994Y-135565407D01*
X132207000Y-135128000D01*
X132207000Y-104902000D01*
X132119994Y-104464593D01*
X131872223Y-104093777D01*
X117140223Y-89361777D01*
X116769407Y-89114006D01*
X116332000Y-89027000D01*
X105629446Y-89027000D01*
X105410002Y-88807556D01*
X105410002Y-66132444D01*
X105883446Y-65659000D01*
X108449983Y-65659000D01*
X108576865Y-65786103D01*
X108277483Y-66084964D01*
X108016298Y-66713968D01*
X108015704Y-67395044D01*
X108275791Y-68024503D01*
X108576865Y-68326103D01*
X108277483Y-68624964D01*
X108016298Y-69253968D01*
X108015704Y-69935044D01*
X108275791Y-70564503D01*
X108576865Y-70866103D01*
X108277483Y-71164964D01*
X108016298Y-71793968D01*
X108015704Y-72475044D01*
X108275791Y-73104503D01*
X108576865Y-73406103D01*
X108277483Y-73704964D01*
X108016298Y-74333968D01*
X108015704Y-75015044D01*
X108275791Y-75644503D01*
X108576865Y-75946103D01*
X108277483Y-76244964D01*
X108016298Y-76873968D01*
X108015704Y-77555044D01*
X108275791Y-78184503D01*
X108576865Y-78486103D01*
X108277483Y-78784964D01*
X108016298Y-79413968D01*
X108015704Y-80095044D01*
X108275791Y-80724503D01*
X108576865Y-81026103D01*
X108277483Y-81324964D01*
X108016298Y-81953968D01*
X108015704Y-82635044D01*
X108275791Y-83264503D01*
X108756964Y-83746517D01*
X109385968Y-84007702D01*
X110067044Y-84008296D01*
X110696503Y-83748209D01*
X111006252Y-83439000D01*
X176784000Y-83439000D01*
X177221407Y-83351994D01*
X177592223Y-83104223D01*
X202103223Y-58593223D01*
X202350994Y-58222407D01*
X202438000Y-57785000D01*
X202438000Y-52914803D01*
X202540922Y-52846033D01*
X202565000Y-52809997D01*
X202589078Y-52846033D01*
X202732000Y-52941530D01*
X202732000Y-110106983D01*
X202424483Y-110413964D01*
X202163298Y-111042968D01*
X202162704Y-111724044D01*
X202422791Y-112353503D01*
X202903964Y-112835517D01*
X203532968Y-113096702D01*
X204214044Y-113097296D01*
X204843503Y-112837209D01*
X205325517Y-112356036D01*
X205586702Y-111727032D01*
X205587296Y-111045956D01*
X205327209Y-110416497D01*
X205018000Y-110106747D01*
X205018000Y-108786094D01*
X205084340Y-109119609D01*
X205387172Y-109572828D01*
X206248000Y-110433656D01*
X206248000Y-112451344D01*
X206248000Y-112451344D01*
G37*
X206248000Y-112451344D02*
X205387172Y-113312172D01*
X205084340Y-113765391D01*
X204978000Y-114300000D01*
X204978000Y-118110000D01*
X204978000Y-120260540D01*
X204924483Y-120313964D01*
X204663298Y-120942968D01*
X204662704Y-121624044D01*
X204922791Y-122253503D01*
X204978000Y-122308808D01*
X204978000Y-139756344D01*
X203891344Y-140843000D01*
X202891188Y-140843000D01*
X202891188Y-121537602D01*
X202866352Y-120907539D01*
X202673019Y-120440792D01*
X202411350Y-120348255D01*
X202231745Y-120527860D01*
X202231745Y-120168650D01*
X202139208Y-119906981D01*
X201547602Y-119688812D01*
X200917539Y-119713648D01*
X200450792Y-119906981D01*
X200358255Y-120168650D01*
X201295000Y-121105395D01*
X202231745Y-120168650D01*
X202231745Y-120527860D01*
X201474605Y-121285000D01*
X202411350Y-122221745D01*
X202673019Y-122129208D01*
X202891188Y-121537602D01*
X202891188Y-140843000D01*
X202231745Y-140843000D01*
X202231745Y-122401350D01*
X201295000Y-121464605D01*
X201115395Y-121644210D01*
X201115395Y-121285000D01*
X200178650Y-120348255D01*
X199916981Y-120440792D01*
X199698812Y-121032398D01*
X199723648Y-121662461D01*
X199916981Y-122129208D01*
X200178650Y-122221745D01*
X201115395Y-121285000D01*
X201115395Y-121644210D01*
X200358255Y-122401350D01*
X200450792Y-122663019D01*
X201042398Y-122881188D01*
X201672461Y-122856352D01*
X202139208Y-122663019D01*
X202231745Y-122401350D01*
X202231745Y-140843000D01*
X199208188Y-140843000D01*
X199208188Y-81278602D01*
X199183352Y-80648539D01*
X198990019Y-80181792D01*
X198728350Y-80089255D01*
X198548745Y-80268860D01*
X198548745Y-79909650D01*
X198456208Y-79647981D01*
X197864602Y-79429812D01*
X197234539Y-79454648D01*
X196767792Y-79647981D01*
X196675255Y-79909650D01*
X197612000Y-80846395D01*
X198548745Y-79909650D01*
X198548745Y-80268860D01*
X197791605Y-81026000D01*
X198728350Y-81962745D01*
X198990019Y-81870208D01*
X199208188Y-81278602D01*
X199208188Y-140843000D01*
X198548745Y-140843000D01*
X198548745Y-82142350D01*
X197612000Y-81205605D01*
X197432395Y-81385210D01*
X197432395Y-81026000D01*
X196495650Y-80089255D01*
X196233981Y-80181792D01*
X196015812Y-80773398D01*
X196040648Y-81403461D01*
X196233981Y-81870208D01*
X196495650Y-81962745D01*
X197432395Y-81026000D01*
X197432395Y-81385210D01*
X196675255Y-82142350D01*
X196767792Y-82404019D01*
X197359398Y-82622188D01*
X197989461Y-82597352D01*
X198456208Y-82404019D01*
X198548745Y-82142350D01*
X198548745Y-140843000D01*
X197485000Y-140843000D01*
X137740188Y-140843000D01*
X137740188Y-137412602D01*
X137715352Y-136782539D01*
X137522019Y-136315792D01*
X137486188Y-136303120D01*
X137486188Y-128522602D01*
X137486188Y-119632602D01*
X137461352Y-119002539D01*
X137268019Y-118535792D01*
X137006350Y-118443255D01*
X136826745Y-118622860D01*
X136826745Y-118263650D01*
X136734208Y-118001981D01*
X136142602Y-117783812D01*
X135512539Y-117808648D01*
X135045792Y-118001981D01*
X134953255Y-118263650D01*
X135890000Y-119200395D01*
X136826745Y-118263650D01*
X136826745Y-118622860D01*
X136069605Y-119380000D01*
X137006350Y-120316745D01*
X137268019Y-120224208D01*
X137486188Y-119632602D01*
X137486188Y-128522602D01*
X137461352Y-127892539D01*
X137268019Y-127425792D01*
X137006350Y-127333255D01*
X136826745Y-127512860D01*
X136826745Y-127153650D01*
X136826745Y-120496350D01*
X135890000Y-119559605D01*
X135710395Y-119739210D01*
X135710395Y-119380000D01*
X134773650Y-118443255D01*
X134511981Y-118535792D01*
X134293812Y-119127398D01*
X134318648Y-119757461D01*
X134511981Y-120224208D01*
X134773650Y-120316745D01*
X135710395Y-119380000D01*
X135710395Y-119739210D01*
X134953255Y-120496350D01*
X135045792Y-120758019D01*
X135637398Y-120976188D01*
X136267461Y-120951352D01*
X136734208Y-120758019D01*
X136826745Y-120496350D01*
X136826745Y-127153650D01*
X136734208Y-126891981D01*
X136142602Y-126673812D01*
X135512539Y-126698648D01*
X135045792Y-126891981D01*
X134953255Y-127153650D01*
X135890000Y-128090395D01*
X136826745Y-127153650D01*
X136826745Y-127512860D01*
X136069605Y-128270000D01*
X137006350Y-129206745D01*
X137268019Y-129114208D01*
X137486188Y-128522602D01*
X137486188Y-136303120D01*
X137260350Y-136223255D01*
X137080745Y-136402860D01*
X137080745Y-136043650D01*
X136988208Y-135781981D01*
X136826745Y-135722437D01*
X136826745Y-129386350D01*
X135890000Y-128449605D01*
X135710395Y-128629210D01*
X135710395Y-128270000D01*
X134773650Y-127333255D01*
X134511981Y-127425792D01*
X134293812Y-128017398D01*
X134318648Y-128647461D01*
X134511981Y-129114208D01*
X134773650Y-129206745D01*
X135710395Y-128270000D01*
X135710395Y-128629210D01*
X134953255Y-129386350D01*
X135045792Y-129648019D01*
X135637398Y-129866188D01*
X136267461Y-129841352D01*
X136734208Y-129648019D01*
X136826745Y-129386350D01*
X136826745Y-135722437D01*
X136396602Y-135563812D01*
X135766539Y-135588648D01*
X135299792Y-135781981D01*
X135207255Y-136043650D01*
X136144000Y-136980395D01*
X137080745Y-136043650D01*
X137080745Y-136402860D01*
X136323605Y-137160000D01*
X137260350Y-138096745D01*
X137522019Y-138004208D01*
X137740188Y-137412602D01*
X137740188Y-140843000D01*
X137080745Y-140843000D01*
X137080745Y-138276350D01*
X136144000Y-137339605D01*
X135964395Y-137519210D01*
X135964395Y-137160000D01*
X135027650Y-136223255D01*
X134765981Y-136315792D01*
X134547812Y-136907398D01*
X134572648Y-137537461D01*
X134765981Y-138004208D01*
X135027650Y-138096745D01*
X135964395Y-137160000D01*
X135964395Y-137519210D01*
X135207255Y-138276350D01*
X135299792Y-138538019D01*
X135891398Y-138756188D01*
X136521461Y-138731352D01*
X136988208Y-138538019D01*
X137080745Y-138276350D01*
X137080745Y-140843000D01*
X118053656Y-140843000D01*
X117602000Y-140391344D01*
X117602000Y-139065000D01*
X117602000Y-138184459D01*
X117655517Y-138131036D01*
X117916702Y-137502032D01*
X117917296Y-136820956D01*
X117657209Y-136191497D01*
X117602000Y-136136191D01*
X117602000Y-133104459D01*
X117655517Y-133051036D01*
X117916702Y-132422032D01*
X117917296Y-131740956D01*
X117657209Y-131111497D01*
X117602000Y-131056191D01*
X117602000Y-129294459D01*
X117655517Y-129241036D01*
X117916702Y-128612032D01*
X117917296Y-127930956D01*
X117657209Y-127301497D01*
X117602000Y-127246191D01*
X117602000Y-124214459D01*
X117655517Y-124161036D01*
X117916702Y-123532032D01*
X117917296Y-122850956D01*
X117657209Y-122221497D01*
X117602000Y-122166191D01*
X117602000Y-120404459D01*
X117655517Y-120351036D01*
X117916702Y-119722032D01*
X117917296Y-119040956D01*
X117657209Y-118411497D01*
X117602000Y-118356191D01*
X117602000Y-115324459D01*
X117655517Y-115271036D01*
X117916702Y-114642032D01*
X117917296Y-113960956D01*
X117657209Y-113331497D01*
X117176036Y-112849483D01*
X116547032Y-112588298D01*
X115865956Y-112587704D01*
X115236497Y-112847791D01*
X115181191Y-112903000D01*
X112522000Y-112903000D01*
X112522000Y-103259459D01*
X112575517Y-103206036D01*
X112836702Y-102577032D01*
X112837296Y-101895956D01*
X112577209Y-101266497D01*
X112522000Y-101211191D01*
X112522000Y-98179459D01*
X112575517Y-98126036D01*
X112836702Y-97497032D01*
X112837296Y-96815956D01*
X112577209Y-96186497D01*
X112096036Y-95704483D01*
X111467032Y-95443298D01*
X110785956Y-95442704D01*
X110156497Y-95702791D01*
X109674483Y-96183964D01*
X109413298Y-96812968D01*
X109412704Y-97494044D01*
X109672791Y-98123503D01*
X109728000Y-98178808D01*
X109728000Y-101210540D01*
X109674483Y-101263964D01*
X109413298Y-101892968D01*
X109412704Y-102574044D01*
X109672791Y-103203503D01*
X109728000Y-103258808D01*
X109728000Y-113275540D01*
X109674483Y-113328964D01*
X109413298Y-113957968D01*
X109412704Y-114639044D01*
X109672791Y-115268503D01*
X109728000Y-115323808D01*
X109728000Y-118355540D01*
X109674483Y-118408964D01*
X109413298Y-119037968D01*
X109412704Y-119719044D01*
X109672791Y-120348503D01*
X109728000Y-120403808D01*
X109728000Y-122165540D01*
X109674483Y-122218964D01*
X109413298Y-122847968D01*
X109412704Y-123529044D01*
X109672791Y-124158503D01*
X109728000Y-124213808D01*
X109728000Y-127245540D01*
X109674483Y-127298964D01*
X109413298Y-127927968D01*
X109412704Y-128609044D01*
X109672791Y-129238503D01*
X109728000Y-129293808D01*
X109728000Y-131055540D01*
X109674483Y-131108964D01*
X109413298Y-131737968D01*
X109412704Y-132419044D01*
X109672791Y-133048503D01*
X109728000Y-133103808D01*
X109728000Y-136135540D01*
X109674483Y-136188964D01*
X109413298Y-136817968D01*
X109412704Y-137499044D01*
X109672791Y-138128503D01*
X109728000Y-138183808D01*
X109728000Y-139700000D01*
X109728000Y-140391344D01*
X109276344Y-140843000D01*
X96520000Y-140843000D01*
X91131188Y-140843000D01*
X91131188Y-110107602D01*
X91131188Y-97407602D01*
X91106352Y-96777539D01*
X90913019Y-96310792D01*
X90651350Y-96218255D01*
X90471745Y-96397860D01*
X90471745Y-96038650D01*
X90379208Y-95776981D01*
X89787602Y-95558812D01*
X89157539Y-95583648D01*
X88690792Y-95776981D01*
X88598255Y-96038650D01*
X89535000Y-96975395D01*
X90471745Y-96038650D01*
X90471745Y-96397860D01*
X89714605Y-97155000D01*
X90651350Y-98091745D01*
X90913019Y-97999208D01*
X91131188Y-97407602D01*
X91131188Y-110107602D01*
X91106352Y-109477539D01*
X90913019Y-109010792D01*
X90651350Y-108918255D01*
X90471745Y-109097860D01*
X90471745Y-108738650D01*
X90471745Y-98271350D01*
X89535000Y-97334605D01*
X89355395Y-97514210D01*
X89355395Y-97155000D01*
X88418650Y-96218255D01*
X88156981Y-96310792D01*
X87938812Y-96902398D01*
X87963648Y-97532461D01*
X88156981Y-97999208D01*
X88418650Y-98091745D01*
X89355395Y-97155000D01*
X89355395Y-97514210D01*
X88598255Y-98271350D01*
X88690792Y-98533019D01*
X89282398Y-98751188D01*
X89912461Y-98726352D01*
X90379208Y-98533019D01*
X90471745Y-98271350D01*
X90471745Y-108738650D01*
X90379208Y-108476981D01*
X89787602Y-108258812D01*
X89157539Y-108283648D01*
X88690792Y-108476981D01*
X88598255Y-108738650D01*
X89535000Y-109675395D01*
X90471745Y-108738650D01*
X90471745Y-109097860D01*
X89714605Y-109855000D01*
X90651350Y-110791745D01*
X90913019Y-110699208D01*
X91131188Y-110107602D01*
X91131188Y-140843000D01*
X90496188Y-140843000D01*
X90496188Y-137412602D01*
X90496188Y-128522602D01*
X90496188Y-119632602D01*
X90471745Y-119012508D01*
X90471745Y-110971350D01*
X89535000Y-110034605D01*
X89355395Y-110214210D01*
X89355395Y-109855000D01*
X88418650Y-108918255D01*
X88156981Y-109010792D01*
X87938812Y-109602398D01*
X87963648Y-110232461D01*
X88156981Y-110699208D01*
X88418650Y-110791745D01*
X89355395Y-109855000D01*
X89355395Y-110214210D01*
X88598255Y-110971350D01*
X88690792Y-111233019D01*
X89282398Y-111451188D01*
X89912461Y-111426352D01*
X90379208Y-111233019D01*
X90471745Y-110971350D01*
X90471745Y-119012508D01*
X90471352Y-119002539D01*
X90278019Y-118535792D01*
X90016350Y-118443255D01*
X89836745Y-118622860D01*
X89836745Y-118263650D01*
X89744208Y-118001981D01*
X89152602Y-117783812D01*
X88522539Y-117808648D01*
X88055792Y-118001981D01*
X87963255Y-118263650D01*
X88900000Y-119200395D01*
X89836745Y-118263650D01*
X89836745Y-118622860D01*
X89079605Y-119380000D01*
X90016350Y-120316745D01*
X90278019Y-120224208D01*
X90496188Y-119632602D01*
X90496188Y-128522602D01*
X90471352Y-127892539D01*
X90278019Y-127425792D01*
X90016350Y-127333255D01*
X89836745Y-127512860D01*
X89836745Y-127153650D01*
X89836745Y-120496350D01*
X88900000Y-119559605D01*
X88720395Y-119739210D01*
X88720395Y-119380000D01*
X87783650Y-118443255D01*
X87521981Y-118535792D01*
X87303812Y-119127398D01*
X87328648Y-119757461D01*
X87521981Y-120224208D01*
X87783650Y-120316745D01*
X88720395Y-119380000D01*
X88720395Y-119739210D01*
X87963255Y-120496350D01*
X88055792Y-120758019D01*
X88647398Y-120976188D01*
X89277461Y-120951352D01*
X89744208Y-120758019D01*
X89836745Y-120496350D01*
X89836745Y-127153650D01*
X89744208Y-126891981D01*
X89152602Y-126673812D01*
X88522539Y-126698648D01*
X88055792Y-126891981D01*
X87963255Y-127153650D01*
X88900000Y-128090395D01*
X89836745Y-127153650D01*
X89836745Y-127512860D01*
X89079605Y-128270000D01*
X90016350Y-129206745D01*
X90278019Y-129114208D01*
X90496188Y-128522602D01*
X90496188Y-137412602D01*
X90471352Y-136782539D01*
X90278019Y-136315792D01*
X90016350Y-136223255D01*
X89836745Y-136402860D01*
X89836745Y-136043650D01*
X89836745Y-129386350D01*
X88900000Y-128449605D01*
X88720395Y-128629210D01*
X88720395Y-128270000D01*
X87783650Y-127333255D01*
X87521981Y-127425792D01*
X87303812Y-128017398D01*
X87328648Y-128647461D01*
X87521981Y-129114208D01*
X87783650Y-129206745D01*
X88720395Y-128270000D01*
X88720395Y-128629210D01*
X87963255Y-129386350D01*
X88055792Y-129648019D01*
X88647398Y-129866188D01*
X89277461Y-129841352D01*
X89744208Y-129648019D01*
X89836745Y-129386350D01*
X89836745Y-136043650D01*
X89744208Y-135781981D01*
X89152602Y-135563812D01*
X88522539Y-135588648D01*
X88055792Y-135781981D01*
X87963255Y-136043650D01*
X88900000Y-136980395D01*
X89836745Y-136043650D01*
X89836745Y-136402860D01*
X89079605Y-137160000D01*
X90016350Y-138096745D01*
X90278019Y-138004208D01*
X90496188Y-137412602D01*
X90496188Y-140843000D01*
X89836745Y-140843000D01*
X89836745Y-138276350D01*
X88900000Y-137339605D01*
X88720395Y-137519210D01*
X88720395Y-137160000D01*
X87783650Y-136223255D01*
X87521981Y-136315792D01*
X87303812Y-136907398D01*
X87328648Y-137537461D01*
X87521981Y-138004208D01*
X87783650Y-138096745D01*
X88720395Y-137160000D01*
X88720395Y-137519210D01*
X87963255Y-138276350D01*
X88055792Y-138538019D01*
X88647398Y-138756188D01*
X89277461Y-138731352D01*
X89744208Y-138538019D01*
X89836745Y-138276350D01*
X89836745Y-140843000D01*
X87573656Y-140843000D01*
X87122000Y-140391344D01*
X87122000Y-64135000D01*
X87122000Y-58998656D01*
X90367656Y-55753000D01*
X93209747Y-55753000D01*
X93037483Y-55924964D01*
X92776298Y-56553968D01*
X92775704Y-57235044D01*
X93035791Y-57864503D01*
X93336865Y-58166103D01*
X93037483Y-58464964D01*
X92776298Y-59093968D01*
X92775704Y-59775044D01*
X93035791Y-60404503D01*
X93336865Y-60706103D01*
X93037483Y-61004964D01*
X92776298Y-61633968D01*
X92775704Y-62315044D01*
X93035791Y-62944503D01*
X93336865Y-63246103D01*
X93037483Y-63544964D01*
X92776298Y-64173968D01*
X92775704Y-64855044D01*
X93035791Y-65484503D01*
X93336865Y-65786103D01*
X93037483Y-66084964D01*
X92776298Y-66713968D01*
X92775704Y-67395044D01*
X93035791Y-68024503D01*
X93336865Y-68326103D01*
X93209747Y-68453000D01*
X90932000Y-68453000D01*
X90494593Y-68540006D01*
X90123777Y-68787777D01*
X87583777Y-71327777D01*
X87336006Y-71698593D01*
X87249000Y-72136000D01*
X87249000Y-91440000D01*
X87336006Y-91877407D01*
X87583777Y-92248223D01*
X91821000Y-96485446D01*
X91821000Y-133350000D01*
X91908006Y-133787407D01*
X92155777Y-134158223D01*
X95965777Y-137968223D01*
X96336593Y-138215994D01*
X96774000Y-138303000D01*
X97621983Y-138303000D01*
X97928964Y-138610517D01*
X98557968Y-138871702D01*
X99239044Y-138872296D01*
X99868503Y-138612209D01*
X100178252Y-138303000D01*
X106036983Y-138303000D01*
X106343964Y-138610517D01*
X106972968Y-138871702D01*
X107654044Y-138872296D01*
X108283503Y-138612209D01*
X108765517Y-138131036D01*
X109026702Y-137502032D01*
X109027296Y-136820956D01*
X108767209Y-136191497D01*
X108458000Y-135881747D01*
X108458000Y-133358016D01*
X108765517Y-133051036D01*
X109026702Y-132422032D01*
X109027296Y-131740956D01*
X108767209Y-131111497D01*
X108286036Y-130629483D01*
X107657032Y-130368298D01*
X106975956Y-130367704D01*
X106346497Y-130627791D01*
X105864483Y-131108964D01*
X105603298Y-131737968D01*
X105602704Y-132419044D01*
X105862791Y-133048503D01*
X106172000Y-133358252D01*
X106172000Y-135881983D01*
X106036747Y-136017000D01*
X100178016Y-136017000D01*
X99871036Y-135709483D01*
X99242032Y-135448298D01*
X98560956Y-135447704D01*
X97931497Y-135707791D01*
X97621747Y-136017000D01*
X97247446Y-136017000D01*
X94107000Y-132876554D01*
X94107000Y-116297446D01*
X94869000Y-117059446D01*
X94869000Y-121666000D01*
X94956006Y-122103407D01*
X95203777Y-122474223D01*
X97757000Y-125027446D01*
X97757000Y-126991983D01*
X97449483Y-127298964D01*
X97188298Y-127927968D01*
X97187704Y-128609044D01*
X97447791Y-129238503D01*
X97928964Y-129720517D01*
X98557968Y-129981702D01*
X99239044Y-129982296D01*
X99868503Y-129722209D01*
X100178252Y-129413000D01*
X106036983Y-129413000D01*
X106343964Y-129720517D01*
X106972968Y-129981702D01*
X107654044Y-129982296D01*
X108283503Y-129722209D01*
X108765517Y-129241036D01*
X109026702Y-128612032D01*
X109027296Y-127930956D01*
X108767209Y-127301497D01*
X108458000Y-126991747D01*
X108458000Y-124468016D01*
X108765517Y-124161036D01*
X109026702Y-123532032D01*
X109027296Y-122850956D01*
X108767209Y-122221497D01*
X108286036Y-121739483D01*
X107657032Y-121478298D01*
X106975956Y-121477704D01*
X106346497Y-121737791D01*
X105864483Y-122218964D01*
X105603298Y-122847968D01*
X105602704Y-123529044D01*
X105862791Y-124158503D01*
X106172000Y-124468252D01*
X106172000Y-126991983D01*
X106036747Y-127127000D01*
X100178016Y-127127000D01*
X100043000Y-126991747D01*
X100043000Y-124554000D01*
X99955994Y-124116593D01*
X99708223Y-123745777D01*
X97155000Y-121192554D01*
X97155000Y-116586000D01*
X97067994Y-116148593D01*
X96820223Y-115777777D01*
X95885000Y-114842554D01*
X95885000Y-114479331D01*
X95965777Y-114600223D01*
X97757000Y-116391446D01*
X97757000Y-118101983D01*
X97449483Y-118408964D01*
X97188298Y-119037968D01*
X97187704Y-119719044D01*
X97447791Y-120348503D01*
X97928964Y-120830517D01*
X98557968Y-121091702D01*
X99239044Y-121092296D01*
X99868503Y-120832209D01*
X100178252Y-120523000D01*
X106036983Y-120523000D01*
X106343964Y-120830517D01*
X106972968Y-121091702D01*
X107654044Y-121092296D01*
X108283503Y-120832209D01*
X108765517Y-120351036D01*
X109026702Y-119722032D01*
X109027296Y-119040956D01*
X108767209Y-118411497D01*
X108458000Y-118101747D01*
X108458000Y-115578016D01*
X108765517Y-115271036D01*
X109026702Y-114642032D01*
X109027296Y-113960956D01*
X108767209Y-113331497D01*
X108286036Y-112849483D01*
X107657032Y-112588298D01*
X106975956Y-112587704D01*
X106346497Y-112847791D01*
X105864483Y-113328964D01*
X105603298Y-113957968D01*
X105602704Y-114639044D01*
X105862791Y-115268503D01*
X106172000Y-115578252D01*
X106172000Y-118101983D01*
X106036747Y-118237000D01*
X100178016Y-118237000D01*
X100043000Y-118101747D01*
X100043000Y-115918000D01*
X99955994Y-115480593D01*
X99708223Y-115109777D01*
X97917000Y-113318554D01*
X97917000Y-97722257D01*
X98082791Y-98123503D01*
X98563964Y-98605517D01*
X99192968Y-98866702D01*
X99874044Y-98867296D01*
X100503503Y-98607209D01*
X100813252Y-98298000D01*
X106036983Y-98298000D01*
X106172000Y-98433252D01*
X106172000Y-100956983D01*
X105864483Y-101263964D01*
X105603298Y-101892968D01*
X105602704Y-102574044D01*
X105862791Y-103203503D01*
X106343964Y-103685517D01*
X106972968Y-103946702D01*
X107654044Y-103947296D01*
X108283503Y-103687209D01*
X108765517Y-103206036D01*
X109026702Y-102577032D01*
X109027296Y-101895956D01*
X108767209Y-101266497D01*
X108458000Y-100956747D01*
X108458000Y-98433016D01*
X108765517Y-98126036D01*
X109026702Y-97497032D01*
X109027296Y-96815956D01*
X108767209Y-96186497D01*
X108286036Y-95704483D01*
X107657032Y-95443298D01*
X106975956Y-95442704D01*
X106346497Y-95702791D01*
X106036747Y-96012000D01*
X100813016Y-96012000D01*
X100678000Y-95876747D01*
X100678000Y-95090000D01*
X100590994Y-94652593D01*
X100343223Y-94281777D01*
X98933000Y-92871554D01*
X98933000Y-78105000D01*
X98845994Y-77667593D01*
X98598223Y-77296777D01*
X97709223Y-76407777D01*
X97338407Y-76160006D01*
X96901000Y-76073000D01*
X95766016Y-76073000D01*
X95639134Y-75945896D01*
X95938517Y-75647036D01*
X96199702Y-75018032D01*
X96200296Y-74336956D01*
X95940209Y-73707497D01*
X95639134Y-73405896D01*
X95938517Y-73107036D01*
X96199702Y-72478032D01*
X96200296Y-71796956D01*
X95940209Y-71167497D01*
X95639134Y-70865896D01*
X95938517Y-70567036D01*
X96199702Y-69938032D01*
X96200296Y-69256956D01*
X95940209Y-68627497D01*
X95639134Y-68325896D01*
X95938517Y-68027036D01*
X96199702Y-67398032D01*
X96200296Y-66716956D01*
X95940209Y-66087497D01*
X95639134Y-65785896D01*
X95938517Y-65487036D01*
X96199702Y-64858032D01*
X96200296Y-64176956D01*
X95940209Y-63547497D01*
X95639134Y-63245896D01*
X95938517Y-62947036D01*
X96199702Y-62318032D01*
X96200296Y-61636956D01*
X95940209Y-61007497D01*
X95639134Y-60705896D01*
X95938517Y-60407036D01*
X96199702Y-59778032D01*
X96200296Y-59096956D01*
X95940209Y-58467497D01*
X95639134Y-58165896D01*
X95938517Y-57867036D01*
X96199702Y-57238032D01*
X96200296Y-56556956D01*
X95940209Y-55927497D01*
X95766016Y-55753000D01*
X99314000Y-55753000D01*
X99848609Y-55646660D01*
X100301828Y-55343828D01*
X103222828Y-52422828D01*
X103525660Y-51969609D01*
X103632000Y-51435000D01*
X103632000Y-45663656D01*
X105988655Y-43307000D01*
X169601344Y-43307000D01*
X171958000Y-45663656D01*
X171958000Y-48397554D01*
X171881317Y-48300078D01*
X171323355Y-47986856D01*
X171195434Y-47955876D01*
X170942000Y-48075223D01*
X170942000Y-50419000D01*
X170962000Y-50419000D01*
X170962000Y-50673000D01*
X170942000Y-50673000D01*
X170942000Y-53016777D01*
X171195434Y-53136124D01*
X171323355Y-53105144D01*
X171881317Y-52791922D01*
X171984923Y-52660222D01*
X172109078Y-52846033D01*
X172680712Y-53227987D01*
X173355000Y-53362111D01*
X174029288Y-53227987D01*
X174600922Y-52846033D01*
X174625000Y-52809997D01*
X174649078Y-52846033D01*
X174752000Y-52914803D01*
X174752000Y-59851554D01*
X170688000Y-63915554D01*
X170688000Y-53016777D01*
X170688000Y-50673000D01*
X170688000Y-50419000D01*
X170688000Y-48075223D01*
X170434566Y-47955876D01*
X170306645Y-47986856D01*
X169748683Y-48300078D01*
X169353058Y-48802980D01*
X169180000Y-49419000D01*
X169180000Y-50419000D01*
X170688000Y-50419000D01*
X170688000Y-50673000D01*
X169180000Y-50673000D01*
X169180000Y-51673000D01*
X169353058Y-52289020D01*
X169748683Y-52791922D01*
X170306645Y-53105144D01*
X170434566Y-53136124D01*
X170688000Y-53016777D01*
X170688000Y-63915554D01*
X166150554Y-68453000D01*
X138756188Y-68453000D01*
X138756188Y-51560602D01*
X138731352Y-50930539D01*
X138538019Y-50463792D01*
X138276350Y-50371255D01*
X138096745Y-50550860D01*
X138096745Y-50191650D01*
X138004208Y-49929981D01*
X137412602Y-49711812D01*
X136782539Y-49736648D01*
X136315792Y-49929981D01*
X136223255Y-50191650D01*
X137160000Y-51128395D01*
X138096745Y-50191650D01*
X138096745Y-50550860D01*
X137339605Y-51308000D01*
X138276350Y-52244745D01*
X138538019Y-52152208D01*
X138756188Y-51560602D01*
X138756188Y-68453000D01*
X138096745Y-68453000D01*
X138096745Y-52424350D01*
X137160000Y-51487605D01*
X136980395Y-51667210D01*
X136980395Y-51308000D01*
X136043650Y-50371255D01*
X135781981Y-50463792D01*
X135563812Y-51055398D01*
X135588648Y-51685461D01*
X135781981Y-52152208D01*
X136043650Y-52244745D01*
X136980395Y-51308000D01*
X136980395Y-51667210D01*
X136223255Y-52424350D01*
X136315792Y-52686019D01*
X136907398Y-52904188D01*
X137537461Y-52879352D01*
X138004208Y-52686019D01*
X138096745Y-52424350D01*
X138096745Y-68453000D01*
X123010692Y-68453000D01*
X123010692Y-50153914D01*
X122667048Y-49322234D01*
X122031293Y-48685368D01*
X121200214Y-48340274D01*
X120300334Y-48339488D01*
X119468654Y-48683132D01*
X118831788Y-49318887D01*
X118486694Y-50149966D01*
X118485908Y-51049846D01*
X118829552Y-51881526D01*
X119465307Y-52518392D01*
X120296386Y-52863486D01*
X121196266Y-52864272D01*
X122027946Y-52520628D01*
X122664812Y-51884873D01*
X123009906Y-51053794D01*
X123010692Y-50153914D01*
X123010692Y-68453000D01*
X111006016Y-68453000D01*
X110879134Y-68325896D01*
X111178517Y-68027036D01*
X111439702Y-67398032D01*
X111440296Y-66716956D01*
X111180209Y-66087497D01*
X110879134Y-65785896D01*
X111178517Y-65487036D01*
X111439702Y-64858032D01*
X111440296Y-64176956D01*
X111180209Y-63547497D01*
X110879134Y-63245896D01*
X111178517Y-62947036D01*
X111439702Y-62318032D01*
X111440296Y-61636956D01*
X111180209Y-61007497D01*
X110879134Y-60705896D01*
X111178517Y-60407036D01*
X111439702Y-59778032D01*
X111440296Y-59096956D01*
X111180209Y-58467497D01*
X110879134Y-58165896D01*
X111178517Y-57867036D01*
X111439702Y-57238032D01*
X111440296Y-56556956D01*
X111180209Y-55927497D01*
X110879134Y-55625896D01*
X111178517Y-55327036D01*
X111439702Y-54698032D01*
X111440296Y-54016956D01*
X111180209Y-53387497D01*
X110879134Y-53085896D01*
X111178517Y-52787036D01*
X111439702Y-52158032D01*
X111440296Y-51476956D01*
X111324188Y-51195953D01*
X111324188Y-49528602D01*
X111299352Y-48898539D01*
X111106019Y-48431792D01*
X110844350Y-48339255D01*
X110664745Y-48518860D01*
X110664745Y-48159650D01*
X110572208Y-47897981D01*
X109980602Y-47679812D01*
X109350539Y-47704648D01*
X108883792Y-47897981D01*
X108791255Y-48159650D01*
X109728000Y-49096395D01*
X110664745Y-48159650D01*
X110664745Y-48518860D01*
X109907605Y-49276000D01*
X110844350Y-50212745D01*
X111106019Y-50120208D01*
X111324188Y-49528602D01*
X111324188Y-51195953D01*
X111180209Y-50847497D01*
X110699036Y-50365483D01*
X110594450Y-50322055D01*
X109728000Y-49455605D01*
X109548395Y-49635209D01*
X109548395Y-49276000D01*
X108611650Y-48339255D01*
X108349981Y-48431792D01*
X108131812Y-49023398D01*
X108156648Y-49653461D01*
X108349981Y-50120208D01*
X108611650Y-50212745D01*
X109548395Y-49276000D01*
X109548395Y-49635209D01*
X108862285Y-50321319D01*
X108759497Y-50363791D01*
X108277483Y-50844964D01*
X108016298Y-51473968D01*
X108015704Y-52155044D01*
X108275791Y-52784503D01*
X108576865Y-53086103D01*
X108277483Y-53384964D01*
X108016298Y-54013968D01*
X108015704Y-54695044D01*
X108275791Y-55324503D01*
X108576865Y-55626103D01*
X108449747Y-55753000D01*
X103124000Y-55753000D01*
X102686593Y-55840006D01*
X102315777Y-56087777D01*
X100029777Y-58373777D01*
X99782006Y-58744593D01*
X99695000Y-59182000D01*
X99695000Y-92202000D01*
X99782006Y-92639407D01*
X100029777Y-93010223D01*
X101553777Y-94534223D01*
X101924593Y-94781994D01*
X102362000Y-94869000D01*
X112556554Y-94869000D01*
X113157000Y-95469446D01*
X113157000Y-106045000D01*
X113244006Y-106482407D01*
X113491777Y-106853223D01*
X116031777Y-109393223D01*
X116057126Y-109410160D01*
X116075373Y-109434585D01*
X117323033Y-110557479D01*
X118872000Y-112106446D01*
X118872000Y-113021983D01*
X118564483Y-113328964D01*
X118303298Y-113957968D01*
X118302704Y-114639044D01*
X118562791Y-115268503D01*
X118872000Y-115578252D01*
X118872000Y-118101983D01*
X118564483Y-118408964D01*
X118303298Y-119037968D01*
X118302704Y-119719044D01*
X118562791Y-120348503D01*
X119043964Y-120830517D01*
X119672968Y-121091702D01*
X120354044Y-121092296D01*
X120983503Y-120832209D01*
X121293252Y-120523000D01*
X124611983Y-120523000D01*
X124918964Y-120830517D01*
X125547968Y-121091702D01*
X126229044Y-121092296D01*
X126858503Y-120832209D01*
X127340517Y-120351036D01*
X127601702Y-119722032D01*
X127602296Y-119040956D01*
X127342209Y-118411497D01*
X126861036Y-117929483D01*
X126232032Y-117668298D01*
X125550956Y-117667704D01*
X124921497Y-117927791D01*
X124611747Y-118237000D01*
X123104672Y-118237000D01*
X123104672Y-105134754D01*
X122761028Y-104303074D01*
X122125273Y-103666208D01*
X121294194Y-103321114D01*
X120394314Y-103320328D01*
X119562634Y-103663972D01*
X118925768Y-104299727D01*
X118580674Y-105130806D01*
X118579888Y-106030686D01*
X118923532Y-106862366D01*
X119559287Y-107499232D01*
X120390366Y-107844326D01*
X121290246Y-107845112D01*
X122121926Y-107501468D01*
X122758792Y-106865713D01*
X123103886Y-106034634D01*
X123104672Y-105134754D01*
X123104672Y-118237000D01*
X121293016Y-118237000D01*
X121158000Y-118101747D01*
X121158000Y-115578016D01*
X121465517Y-115271036D01*
X121726702Y-114642032D01*
X121727296Y-113960956D01*
X121467209Y-113331497D01*
X121158000Y-113021747D01*
X121158000Y-111633000D01*
X121070994Y-111195593D01*
X120823223Y-110824777D01*
X118918223Y-108919777D01*
X118892872Y-108902838D01*
X118874626Y-108878415D01*
X117626967Y-107755521D01*
X115443000Y-105571554D01*
X115443000Y-94996000D01*
X115355994Y-94558593D01*
X115108223Y-94187777D01*
X114011446Y-93091000D01*
X114842554Y-93091000D01*
X128143000Y-106391446D01*
X128143000Y-126526554D01*
X127542554Y-127127000D01*
X127168016Y-127127000D01*
X126861036Y-126819483D01*
X126232032Y-126558298D01*
X125550956Y-126557704D01*
X124921497Y-126817791D01*
X124611747Y-127127000D01*
X121293016Y-127127000D01*
X121158000Y-126991747D01*
X121158000Y-124468016D01*
X121465517Y-124161036D01*
X121726702Y-123532032D01*
X121727296Y-122850956D01*
X121467209Y-122221497D01*
X120986036Y-121739483D01*
X120357032Y-121478298D01*
X119675956Y-121477704D01*
X119046497Y-121737791D01*
X118564483Y-122218964D01*
X118303298Y-122847968D01*
X118302704Y-123529044D01*
X118562791Y-124158503D01*
X118872000Y-124468252D01*
X118872000Y-126991983D01*
X118564483Y-127298964D01*
X118303298Y-127927968D01*
X118302704Y-128609044D01*
X118562791Y-129238503D01*
X119043964Y-129720517D01*
X119672968Y-129981702D01*
X120354044Y-129982296D01*
X120983503Y-129722209D01*
X121293252Y-129413000D01*
X124611983Y-129413000D01*
X124918964Y-129720517D01*
X125547968Y-129981702D01*
X126229044Y-129982296D01*
X126858503Y-129722209D01*
X127168252Y-129413000D01*
X128016000Y-129413000D01*
X128453407Y-129325994D01*
X128824223Y-129078223D01*
X129921000Y-127981446D01*
X129921000Y-134654554D01*
X128558554Y-136017000D01*
X127422016Y-136017000D01*
X127115036Y-135709483D01*
X126486032Y-135448298D01*
X125804956Y-135447704D01*
X125175497Y-135707791D01*
X124865747Y-136017000D01*
X121293016Y-136017000D01*
X121158000Y-135881747D01*
X121158000Y-133358016D01*
X121465517Y-133051036D01*
X121726702Y-132422032D01*
X121727296Y-131740956D01*
X121467209Y-131111497D01*
X120986036Y-130629483D01*
X120357032Y-130368298D01*
X119675956Y-130367704D01*
X119046497Y-130627791D01*
X118564483Y-131108964D01*
X118303298Y-131737968D01*
X118302704Y-132419044D01*
X118562791Y-133048503D01*
X118872000Y-133358252D01*
X118872000Y-135881983D01*
X118564483Y-136188964D01*
X118303298Y-136817968D01*
X118302704Y-137499044D01*
X118562791Y-138128503D01*
X119043964Y-138610517D01*
X119672968Y-138871702D01*
X120354044Y-138872296D01*
X120983503Y-138612209D01*
X121293252Y-138303000D01*
X124865983Y-138303000D01*
X125172964Y-138610517D01*
X125801968Y-138871702D01*
X126483044Y-138872296D01*
X127112503Y-138612209D01*
X127422252Y-138303000D01*
X129032000Y-138303000D01*
X129469407Y-138215994D01*
X129840223Y-137968223D01*
X131872223Y-135936223D01*
X132119994Y-135565407D01*
X132207000Y-135128000D01*
X132207000Y-104902000D01*
X132119994Y-104464593D01*
X131872223Y-104093777D01*
X117140223Y-89361777D01*
X116769407Y-89114006D01*
X116332000Y-89027000D01*
X105629446Y-89027000D01*
X105410002Y-88807556D01*
X105410002Y-66132444D01*
X105883446Y-65659000D01*
X108449983Y-65659000D01*
X108576865Y-65786103D01*
X108277483Y-66084964D01*
X108016298Y-66713968D01*
X108015704Y-67395044D01*
X108275791Y-68024503D01*
X108576865Y-68326103D01*
X108277483Y-68624964D01*
X108016298Y-69253968D01*
X108015704Y-69935044D01*
X108275791Y-70564503D01*
X108576865Y-70866103D01*
X108277483Y-71164964D01*
X108016298Y-71793968D01*
X108015704Y-72475044D01*
X108275791Y-73104503D01*
X108576865Y-73406103D01*
X108277483Y-73704964D01*
X108016298Y-74333968D01*
X108015704Y-75015044D01*
X108275791Y-75644503D01*
X108576865Y-75946103D01*
X108277483Y-76244964D01*
X108016298Y-76873968D01*
X108015704Y-77555044D01*
X108275791Y-78184503D01*
X108576865Y-78486103D01*
X108277483Y-78784964D01*
X108016298Y-79413968D01*
X108015704Y-80095044D01*
X108275791Y-80724503D01*
X108576865Y-81026103D01*
X108277483Y-81324964D01*
X108016298Y-81953968D01*
X108015704Y-82635044D01*
X108275791Y-83264503D01*
X108756964Y-83746517D01*
X109385968Y-84007702D01*
X110067044Y-84008296D01*
X110696503Y-83748209D01*
X111006252Y-83439000D01*
X176784000Y-83439000D01*
X177221407Y-83351994D01*
X177592223Y-83104223D01*
X202103223Y-58593223D01*
X202350994Y-58222407D01*
X202438000Y-57785000D01*
X202438000Y-52914803D01*
X202540922Y-52846033D01*
X202565000Y-52809997D01*
X202589078Y-52846033D01*
X202732000Y-52941530D01*
X202732000Y-110106983D01*
X202424483Y-110413964D01*
X202163298Y-111042968D01*
X202162704Y-111724044D01*
X202422791Y-112353503D01*
X202903964Y-112835517D01*
X203532968Y-113096702D01*
X204214044Y-113097296D01*
X204843503Y-112837209D01*
X205325517Y-112356036D01*
X205586702Y-111727032D01*
X205587296Y-111045956D01*
X205327209Y-110416497D01*
X205018000Y-110106747D01*
X205018000Y-108786094D01*
X205084340Y-109119609D01*
X205387172Y-109572828D01*
X206248000Y-110433656D01*
X206248000Y-112451344D01*
G36*
X218313000Y-146558000D02*
X216854292Y-146558000D01*
X216854292Y-104931554D01*
X216790792Y-104777872D01*
X216790792Y-50098034D01*
X216447148Y-49266354D01*
X215811393Y-48629488D01*
X214980314Y-48284394D01*
X214080434Y-48283608D01*
X213248754Y-48627252D01*
X212611888Y-49263007D01*
X212266794Y-50094086D01*
X212266008Y-50993966D01*
X212609652Y-51825646D01*
X213245407Y-52462512D01*
X214076486Y-52807606D01*
X214976366Y-52808392D01*
X215808046Y-52464748D01*
X216444912Y-51828993D01*
X216790006Y-50997914D01*
X216790792Y-50098034D01*
X216790792Y-104777872D01*
X216510648Y-104099874D01*
X215874893Y-103463008D01*
X215043814Y-103117914D01*
X214143934Y-103117128D01*
X213312254Y-103460772D01*
X213178188Y-103594604D01*
X213178188Y-81278602D01*
X213153352Y-80648539D01*
X212960019Y-80181792D01*
X212698350Y-80089255D01*
X212518745Y-80268860D01*
X212518745Y-79909650D01*
X212426208Y-79647981D01*
X211834602Y-79429812D01*
X211204539Y-79454648D01*
X210737792Y-79647981D01*
X210645255Y-79909650D01*
X211582000Y-80846395D01*
X212518745Y-79909650D01*
X212518745Y-80268860D01*
X211761605Y-81026000D01*
X212698350Y-81962745D01*
X212960019Y-81870208D01*
X213178188Y-81278602D01*
X213178188Y-103594604D01*
X212675388Y-104096527D01*
X212518745Y-104473765D01*
X212518745Y-82142350D01*
X211582000Y-81205605D01*
X211402395Y-81385210D01*
X211402395Y-81026000D01*
X210550000Y-80173605D01*
X210550000Y-51673000D01*
X210550000Y-50673000D01*
X210550000Y-50419000D01*
X210550000Y-49419000D01*
X210376942Y-48802980D01*
X209981317Y-48300078D01*
X209423355Y-47986856D01*
X209295434Y-47955876D01*
X209042000Y-48075223D01*
X209042000Y-50419000D01*
X210550000Y-50419000D01*
X210550000Y-50673000D01*
X209042000Y-50673000D01*
X209042000Y-53016777D01*
X209295434Y-53136124D01*
X209423355Y-53105144D01*
X209981317Y-52791922D01*
X210376942Y-52289020D01*
X210550000Y-51673000D01*
X210550000Y-80173605D01*
X210465650Y-80089255D01*
X210203981Y-80181792D01*
X209985812Y-80773398D01*
X210010648Y-81403461D01*
X210203981Y-81870208D01*
X210465650Y-81962745D01*
X211402395Y-81026000D01*
X211402395Y-81385210D01*
X210645255Y-82142350D01*
X210737792Y-82404019D01*
X211329398Y-82622188D01*
X211959461Y-82597352D01*
X212426208Y-82404019D01*
X212518745Y-82142350D01*
X212518745Y-104473765D01*
X212330294Y-104927606D01*
X212329508Y-105827486D01*
X212673152Y-106659166D01*
X213308907Y-107296032D01*
X214139986Y-107641126D01*
X215039866Y-107641912D01*
X215871546Y-107298268D01*
X216508412Y-106662513D01*
X216853506Y-105831434D01*
X216854292Y-104931554D01*
X216854292Y-146558000D01*
X209042000Y-146558000D01*
X209042000Y-113030000D01*
X209042000Y-109855000D01*
X208935660Y-109320391D01*
X208632828Y-108867172D01*
X207772000Y-108006344D01*
X207772000Y-102870000D01*
X207772000Y-52694445D01*
X207848683Y-52791922D01*
X208406645Y-53105144D01*
X208534566Y-53136124D01*
X208788000Y-53016777D01*
X208788000Y-50673000D01*
X208768000Y-50673000D01*
X208768000Y-50419000D01*
X208788000Y-50419000D01*
X208788000Y-48075223D01*
X208534566Y-47955876D01*
X208406645Y-47986856D01*
X207848683Y-48300078D01*
X207745076Y-48431777D01*
X207620922Y-48245967D01*
X207049288Y-47864013D01*
X206375000Y-47729889D01*
X205700712Y-47864013D01*
X205129078Y-48245967D01*
X205105000Y-48282002D01*
X205080922Y-48245967D01*
X204509288Y-47864013D01*
X203835000Y-47729889D01*
X203160712Y-47864013D01*
X202589078Y-48245967D01*
X202565000Y-48282002D01*
X202540922Y-48245967D01*
X201969288Y-47864013D01*
X201295000Y-47729889D01*
X200620712Y-47864013D01*
X200049078Y-48245967D01*
X199924923Y-48431777D01*
X199821317Y-48300078D01*
X199263355Y-47986856D01*
X199135434Y-47955876D01*
X198882000Y-48075223D01*
X198882000Y-50419000D01*
X198902000Y-50419000D01*
X198902000Y-50673000D01*
X198882000Y-50673000D01*
X198882000Y-53016777D01*
X199135434Y-53136124D01*
X199263355Y-53105144D01*
X199821317Y-52791922D01*
X199924923Y-52660222D01*
X200049078Y-52846033D01*
X200152000Y-52914803D01*
X200152000Y-57311554D01*
X197358000Y-60105554D01*
X197358000Y-52914803D01*
X197460922Y-52846033D01*
X197585076Y-52660222D01*
X197688683Y-52791922D01*
X198246645Y-53105144D01*
X198374566Y-53136124D01*
X198628000Y-53016777D01*
X198628000Y-50673000D01*
X198608000Y-50673000D01*
X198608000Y-50419000D01*
X198628000Y-50419000D01*
X198628000Y-48075223D01*
X198374566Y-47955876D01*
X198246645Y-47986856D01*
X197688683Y-48300078D01*
X197585076Y-48431777D01*
X197460922Y-48245967D01*
X196889288Y-47864013D01*
X196215000Y-47729889D01*
X195540712Y-47864013D01*
X194969078Y-48245967D01*
X194945000Y-48282002D01*
X194920922Y-48245967D01*
X194349288Y-47864013D01*
X193675000Y-47729889D01*
X193000712Y-47864013D01*
X192429078Y-48245967D01*
X192405000Y-48282002D01*
X192380922Y-48245967D01*
X191809288Y-47864013D01*
X191135000Y-47729889D01*
X190460712Y-47864013D01*
X189889078Y-48245967D01*
X189865000Y-48282002D01*
X189840922Y-48245967D01*
X189269288Y-47864013D01*
X188595000Y-47729889D01*
X187920712Y-47864013D01*
X187349078Y-48245967D01*
X187325000Y-48282002D01*
X187300922Y-48245967D01*
X186729288Y-47864013D01*
X186055000Y-47729889D01*
X185380712Y-47864013D01*
X184809078Y-48245967D01*
X184785000Y-48282002D01*
X184760922Y-48245967D01*
X184189288Y-47864013D01*
X183515000Y-47729889D01*
X182840712Y-47864013D01*
X182269078Y-48245967D01*
X182245000Y-48282002D01*
X182220922Y-48245967D01*
X181649288Y-47864013D01*
X180975000Y-47729889D01*
X180300712Y-47864013D01*
X179729078Y-48245967D01*
X179705000Y-48282002D01*
X179680922Y-48245967D01*
X179109288Y-47864013D01*
X178435000Y-47729889D01*
X177760712Y-47864013D01*
X177189078Y-48245967D01*
X177165000Y-48282002D01*
X177140922Y-48245967D01*
X176569288Y-47864013D01*
X175895000Y-47729889D01*
X175220712Y-47864013D01*
X174752000Y-48177196D01*
X174752000Y-45085000D01*
X174645660Y-44550391D01*
X174342828Y-44097172D01*
X171167828Y-40922172D01*
X170714609Y-40619340D01*
X170180000Y-40513000D01*
X138756188Y-40513000D01*
X138756188Y-37844602D01*
X138731352Y-37214539D01*
X138538019Y-36747792D01*
X138276350Y-36655255D01*
X138096745Y-36834860D01*
X138096745Y-36475650D01*
X138004208Y-36213981D01*
X137412602Y-35995812D01*
X136782539Y-36020648D01*
X136315792Y-36213981D01*
X136223255Y-36475650D01*
X137160000Y-37412395D01*
X138096745Y-36475650D01*
X138096745Y-36834860D01*
X137339605Y-37592000D01*
X138276350Y-38528745D01*
X138538019Y-38436208D01*
X138756188Y-37844602D01*
X138756188Y-40513000D01*
X138096745Y-40513000D01*
X138096745Y-38708350D01*
X137160000Y-37771605D01*
X136980395Y-37951210D01*
X136980395Y-37592000D01*
X136043650Y-36655255D01*
X135781981Y-36747792D01*
X135563812Y-37339398D01*
X135588648Y-37969461D01*
X135781981Y-38436208D01*
X136043650Y-38528745D01*
X136980395Y-37592000D01*
X136980395Y-37951210D01*
X136223255Y-38708350D01*
X136315792Y-38970019D01*
X136907398Y-39188188D01*
X137537461Y-39163352D01*
X138004208Y-38970019D01*
X138096745Y-38708350D01*
X138096745Y-40513000D01*
X105410000Y-40513000D01*
X104875391Y-40619340D01*
X104422172Y-40922172D01*
X101247172Y-44097172D01*
X100944340Y-44550391D01*
X100838000Y-45085000D01*
X100838000Y-50856344D01*
X98735344Y-52959000D01*
X95766252Y-52959000D01*
X95938517Y-52787036D01*
X96199702Y-52158032D01*
X96200296Y-51476956D01*
X95940209Y-50847497D01*
X95639134Y-50545896D01*
X95938517Y-50247036D01*
X96199702Y-49618032D01*
X96200296Y-48936956D01*
X95940209Y-48307497D01*
X95459036Y-47825483D01*
X94830032Y-47564298D01*
X94148956Y-47563704D01*
X93519497Y-47823791D01*
X93037483Y-48304964D01*
X92776298Y-48933968D01*
X92775704Y-49615044D01*
X93035791Y-50244503D01*
X93336865Y-50546103D01*
X93037483Y-50844964D01*
X92776298Y-51473968D01*
X92775704Y-52155044D01*
X93035791Y-52784503D01*
X93209983Y-52959000D01*
X89789000Y-52959000D01*
X89254391Y-53065340D01*
X88801172Y-53368172D01*
X84737172Y-57432172D01*
X84434340Y-57885391D01*
X84328000Y-58420000D01*
X84328000Y-64135000D01*
X84328000Y-140970000D01*
X84434340Y-141504609D01*
X84737172Y-141957828D01*
X86007172Y-143227828D01*
X86460391Y-143530660D01*
X86995000Y-143637000D01*
X96520000Y-143637000D01*
X109855000Y-143637000D01*
X110389609Y-143530660D01*
X110842828Y-143227828D01*
X111125000Y-142945656D01*
X111407172Y-143227828D01*
X111860391Y-143530660D01*
X112395000Y-143637000D01*
X114935000Y-143637000D01*
X115469609Y-143530660D01*
X115922828Y-143227828D01*
X116205000Y-142945656D01*
X116487172Y-143227828D01*
X116940391Y-143530660D01*
X117475000Y-143637000D01*
X197485000Y-143637000D01*
X204470000Y-143637000D01*
X205004609Y-143530660D01*
X205457828Y-143227828D01*
X207362828Y-141322828D01*
X207665660Y-140869609D01*
X207772000Y-140335000D01*
X207772000Y-122309459D01*
X207825517Y-122256036D01*
X208086702Y-121627032D01*
X208087296Y-120945956D01*
X207827209Y-120316497D01*
X207772000Y-120261191D01*
X207772000Y-118110000D01*
X207772000Y-114878656D01*
X208632828Y-114017828D01*
X208935660Y-113564609D01*
X209042000Y-113030000D01*
X209042000Y-146558000D01*
X82241188Y-146558000D01*
X82241188Y-110107602D01*
X82216352Y-109477539D01*
X82023019Y-109010792D01*
X81761350Y-108918255D01*
X81581745Y-109097860D01*
X81581745Y-108738650D01*
X81489208Y-108476981D01*
X80897602Y-108258812D01*
X80267539Y-108283648D01*
X79800792Y-108476981D01*
X79708255Y-108738650D01*
X80645000Y-109675395D01*
X81581745Y-108738650D01*
X81581745Y-109097860D01*
X80824605Y-109855000D01*
X81761350Y-110791745D01*
X82023019Y-110699208D01*
X82241188Y-110107602D01*
X82241188Y-146558000D01*
X81581745Y-146558000D01*
X81581745Y-110971350D01*
X80645000Y-110034605D01*
X80465395Y-110214210D01*
X80465395Y-109855000D01*
X79528650Y-108918255D01*
X79266981Y-109010792D01*
X79048812Y-109602398D01*
X79073648Y-110232461D01*
X79266981Y-110699208D01*
X79528650Y-110791745D01*
X80465395Y-109855000D01*
X80465395Y-110214210D01*
X79708255Y-110971350D01*
X79800792Y-111233019D01*
X80392398Y-111451188D01*
X81022461Y-111426352D01*
X81489208Y-111233019D01*
X81581745Y-110971350D01*
X81581745Y-146558000D01*
X71247000Y-146558000D01*
X71247000Y-144780000D01*
X71247000Y-142240000D01*
X71247000Y-35687000D01*
X218313000Y-35687000D01*
X218313000Y-142240000D01*
X218313000Y-144145000D01*
X218313000Y-146558000D01*
X218313000Y-146558000D01*
G37*
X218313000Y-146558000D02*
X216854292Y-146558000D01*
X216854292Y-104931554D01*
X216790792Y-104777872D01*
X216790792Y-50098034D01*
X216447148Y-49266354D01*
X215811393Y-48629488D01*
X214980314Y-48284394D01*
X214080434Y-48283608D01*
X213248754Y-48627252D01*
X212611888Y-49263007D01*
X212266794Y-50094086D01*
X212266008Y-50993966D01*
X212609652Y-51825646D01*
X213245407Y-52462512D01*
X214076486Y-52807606D01*
X214976366Y-52808392D01*
X215808046Y-52464748D01*
X216444912Y-51828993D01*
X216790006Y-50997914D01*
X216790792Y-50098034D01*
X216790792Y-104777872D01*
X216510648Y-104099874D01*
X215874893Y-103463008D01*
X215043814Y-103117914D01*
X214143934Y-103117128D01*
X213312254Y-103460772D01*
X213178188Y-103594604D01*
X213178188Y-81278602D01*
X213153352Y-80648539D01*
X212960019Y-80181792D01*
X212698350Y-80089255D01*
X212518745Y-80268860D01*
X212518745Y-79909650D01*
X212426208Y-79647981D01*
X211834602Y-79429812D01*
X211204539Y-79454648D01*
X210737792Y-79647981D01*
X210645255Y-79909650D01*
X211582000Y-80846395D01*
X212518745Y-79909650D01*
X212518745Y-80268860D01*
X211761605Y-81026000D01*
X212698350Y-81962745D01*
X212960019Y-81870208D01*
X213178188Y-81278602D01*
X213178188Y-103594604D01*
X212675388Y-104096527D01*
X212518745Y-104473765D01*
X212518745Y-82142350D01*
X211582000Y-81205605D01*
X211402395Y-81385210D01*
X211402395Y-81026000D01*
X210550000Y-80173605D01*
X210550000Y-51673000D01*
X210550000Y-50673000D01*
X210550000Y-50419000D01*
X210550000Y-49419000D01*
X210376942Y-48802980D01*
X209981317Y-48300078D01*
X209423355Y-47986856D01*
X209295434Y-47955876D01*
X209042000Y-48075223D01*
X209042000Y-50419000D01*
X210550000Y-50419000D01*
X210550000Y-50673000D01*
X209042000Y-50673000D01*
X209042000Y-53016777D01*
X209295434Y-53136124D01*
X209423355Y-53105144D01*
X209981317Y-52791922D01*
X210376942Y-52289020D01*
X210550000Y-51673000D01*
X210550000Y-80173605D01*
X210465650Y-80089255D01*
X210203981Y-80181792D01*
X209985812Y-80773398D01*
X210010648Y-81403461D01*
X210203981Y-81870208D01*
X210465650Y-81962745D01*
X211402395Y-81026000D01*
X211402395Y-81385210D01*
X210645255Y-82142350D01*
X210737792Y-82404019D01*
X211329398Y-82622188D01*
X211959461Y-82597352D01*
X212426208Y-82404019D01*
X212518745Y-82142350D01*
X212518745Y-104473765D01*
X212330294Y-104927606D01*
X212329508Y-105827486D01*
X212673152Y-106659166D01*
X213308907Y-107296032D01*
X214139986Y-107641126D01*
X215039866Y-107641912D01*
X215871546Y-107298268D01*
X216508412Y-106662513D01*
X216853506Y-105831434D01*
X216854292Y-104931554D01*
X216854292Y-146558000D01*
X209042000Y-146558000D01*
X209042000Y-113030000D01*
X209042000Y-109855000D01*
X208935660Y-109320391D01*
X208632828Y-108867172D01*
X207772000Y-108006344D01*
X207772000Y-102870000D01*
X207772000Y-52694445D01*
X207848683Y-52791922D01*
X208406645Y-53105144D01*
X208534566Y-53136124D01*
X208788000Y-53016777D01*
X208788000Y-50673000D01*
X208768000Y-50673000D01*
X208768000Y-50419000D01*
X208788000Y-50419000D01*
X208788000Y-48075223D01*
X208534566Y-47955876D01*
X208406645Y-47986856D01*
X207848683Y-48300078D01*
X207745076Y-48431777D01*
X207620922Y-48245967D01*
X207049288Y-47864013D01*
X206375000Y-47729889D01*
X205700712Y-47864013D01*
X205129078Y-48245967D01*
X205105000Y-48282002D01*
X205080922Y-48245967D01*
X204509288Y-47864013D01*
X203835000Y-47729889D01*
X203160712Y-47864013D01*
X202589078Y-48245967D01*
X202565000Y-48282002D01*
X202540922Y-48245967D01*
X201969288Y-47864013D01*
X201295000Y-47729889D01*
X200620712Y-47864013D01*
X200049078Y-48245967D01*
X199924923Y-48431777D01*
X199821317Y-48300078D01*
X199263355Y-47986856D01*
X199135434Y-47955876D01*
X198882000Y-48075223D01*
X198882000Y-50419000D01*
X198902000Y-50419000D01*
X198902000Y-50673000D01*
X198882000Y-50673000D01*
X198882000Y-53016777D01*
X199135434Y-53136124D01*
X199263355Y-53105144D01*
X199821317Y-52791922D01*
X199924923Y-52660222D01*
X200049078Y-52846033D01*
X200152000Y-52914803D01*
X200152000Y-57311554D01*
X197358000Y-60105554D01*
X197358000Y-52914803D01*
X197460922Y-52846033D01*
X197585076Y-52660222D01*
X197688683Y-52791922D01*
X198246645Y-53105144D01*
X198374566Y-53136124D01*
X198628000Y-53016777D01*
X198628000Y-50673000D01*
X198608000Y-50673000D01*
X198608000Y-50419000D01*
X198628000Y-50419000D01*
X198628000Y-48075223D01*
X198374566Y-47955876D01*
X198246645Y-47986856D01*
X197688683Y-48300078D01*
X197585076Y-48431777D01*
X197460922Y-48245967D01*
X196889288Y-47864013D01*
X196215000Y-47729889D01*
X195540712Y-47864013D01*
X194969078Y-48245967D01*
X194945000Y-48282002D01*
X194920922Y-48245967D01*
X194349288Y-47864013D01*
X193675000Y-47729889D01*
X193000712Y-47864013D01*
X192429078Y-48245967D01*
X192405000Y-48282002D01*
X192380922Y-48245967D01*
X191809288Y-47864013D01*
X191135000Y-47729889D01*
X190460712Y-47864013D01*
X189889078Y-48245967D01*
X189865000Y-48282002D01*
X189840922Y-48245967D01*
X189269288Y-47864013D01*
X188595000Y-47729889D01*
X187920712Y-47864013D01*
X187349078Y-48245967D01*
X187325000Y-48282002D01*
X187300922Y-48245967D01*
X186729288Y-47864013D01*
X186055000Y-47729889D01*
X185380712Y-47864013D01*
X184809078Y-48245967D01*
X184785000Y-48282002D01*
X184760922Y-48245967D01*
X184189288Y-47864013D01*
X183515000Y-47729889D01*
X182840712Y-47864013D01*
X182269078Y-48245967D01*
X182245000Y-48282002D01*
X182220922Y-48245967D01*
X181649288Y-47864013D01*
X180975000Y-47729889D01*
X180300712Y-47864013D01*
X179729078Y-48245967D01*
X179705000Y-48282002D01*
X179680922Y-48245967D01*
X179109288Y-47864013D01*
X178435000Y-47729889D01*
X177760712Y-47864013D01*
X177189078Y-48245967D01*
X177165000Y-48282002D01*
X177140922Y-48245967D01*
X176569288Y-47864013D01*
X175895000Y-47729889D01*
X175220712Y-47864013D01*
X174752000Y-48177196D01*
X174752000Y-45085000D01*
X174645660Y-44550391D01*
X174342828Y-44097172D01*
X171167828Y-40922172D01*
X170714609Y-40619340D01*
X170180000Y-40513000D01*
X138756188Y-40513000D01*
X138756188Y-37844602D01*
X138731352Y-37214539D01*
X138538019Y-36747792D01*
X138276350Y-36655255D01*
X138096745Y-36834860D01*
X138096745Y-36475650D01*
X138004208Y-36213981D01*
X137412602Y-35995812D01*
X136782539Y-36020648D01*
X136315792Y-36213981D01*
X136223255Y-36475650D01*
X137160000Y-37412395D01*
X138096745Y-36475650D01*
X138096745Y-36834860D01*
X137339605Y-37592000D01*
X138276350Y-38528745D01*
X138538019Y-38436208D01*
X138756188Y-37844602D01*
X138756188Y-40513000D01*
X138096745Y-40513000D01*
X138096745Y-38708350D01*
X137160000Y-37771605D01*
X136980395Y-37951210D01*
X136980395Y-37592000D01*
X136043650Y-36655255D01*
X135781981Y-36747792D01*
X135563812Y-37339398D01*
X135588648Y-37969461D01*
X135781981Y-38436208D01*
X136043650Y-38528745D01*
X136980395Y-37592000D01*
X136980395Y-37951210D01*
X136223255Y-38708350D01*
X136315792Y-38970019D01*
X136907398Y-39188188D01*
X137537461Y-39163352D01*
X138004208Y-38970019D01*
X138096745Y-38708350D01*
X138096745Y-40513000D01*
X105410000Y-40513000D01*
X104875391Y-40619340D01*
X104422172Y-40922172D01*
X101247172Y-44097172D01*
X100944340Y-44550391D01*
X100838000Y-45085000D01*
X100838000Y-50856344D01*
X98735344Y-52959000D01*
X95766252Y-52959000D01*
X95938517Y-52787036D01*
X96199702Y-52158032D01*
X96200296Y-51476956D01*
X95940209Y-50847497D01*
X95639134Y-50545896D01*
X95938517Y-50247036D01*
X96199702Y-49618032D01*
X96200296Y-48936956D01*
X95940209Y-48307497D01*
X95459036Y-47825483D01*
X94830032Y-47564298D01*
X94148956Y-47563704D01*
X93519497Y-47823791D01*
X93037483Y-48304964D01*
X92776298Y-48933968D01*
X92775704Y-49615044D01*
X93035791Y-50244503D01*
X93336865Y-50546103D01*
X93037483Y-50844964D01*
X92776298Y-51473968D01*
X92775704Y-52155044D01*
X93035791Y-52784503D01*
X93209983Y-52959000D01*
X89789000Y-52959000D01*
X89254391Y-53065340D01*
X88801172Y-53368172D01*
X84737172Y-57432172D01*
X84434340Y-57885391D01*
X84328000Y-58420000D01*
X84328000Y-64135000D01*
X84328000Y-140970000D01*
X84434340Y-141504609D01*
X84737172Y-141957828D01*
X86007172Y-143227828D01*
X86460391Y-143530660D01*
X86995000Y-143637000D01*
X96520000Y-143637000D01*
X109855000Y-143637000D01*
X110389609Y-143530660D01*
X110842828Y-143227828D01*
X111125000Y-142945656D01*
X111407172Y-143227828D01*
X111860391Y-143530660D01*
X112395000Y-143637000D01*
X114935000Y-143637000D01*
X115469609Y-143530660D01*
X115922828Y-143227828D01*
X116205000Y-142945656D01*
X116487172Y-143227828D01*
X116940391Y-143530660D01*
X117475000Y-143637000D01*
X197485000Y-143637000D01*
X204470000Y-143637000D01*
X205004609Y-143530660D01*
X205457828Y-143227828D01*
X207362828Y-141322828D01*
X207665660Y-140869609D01*
X207772000Y-140335000D01*
X207772000Y-122309459D01*
X207825517Y-122256036D01*
X208086702Y-121627032D01*
X208087296Y-120945956D01*
X207827209Y-120316497D01*
X207772000Y-120261191D01*
X207772000Y-118110000D01*
X207772000Y-114878656D01*
X208632828Y-114017828D01*
X208935660Y-113564609D01*
X209042000Y-113030000D01*
X209042000Y-146558000D01*
X82241188Y-146558000D01*
X82241188Y-110107602D01*
X82216352Y-109477539D01*
X82023019Y-109010792D01*
X81761350Y-108918255D01*
X81581745Y-109097860D01*
X81581745Y-108738650D01*
X81489208Y-108476981D01*
X80897602Y-108258812D01*
X80267539Y-108283648D01*
X79800792Y-108476981D01*
X79708255Y-108738650D01*
X80645000Y-109675395D01*
X81581745Y-108738650D01*
X81581745Y-109097860D01*
X80824605Y-109855000D01*
X81761350Y-110791745D01*
X82023019Y-110699208D01*
X82241188Y-110107602D01*
X82241188Y-146558000D01*
X81581745Y-146558000D01*
X81581745Y-110971350D01*
X80645000Y-110034605D01*
X80465395Y-110214210D01*
X80465395Y-109855000D01*
X79528650Y-108918255D01*
X79266981Y-109010792D01*
X79048812Y-109602398D01*
X79073648Y-110232461D01*
X79266981Y-110699208D01*
X79528650Y-110791745D01*
X80465395Y-109855000D01*
X80465395Y-110214210D01*
X79708255Y-110971350D01*
X79800792Y-111233019D01*
X80392398Y-111451188D01*
X81022461Y-111426352D01*
X81489208Y-111233019D01*
X81581745Y-110971350D01*
X81581745Y-146558000D01*
X71247000Y-146558000D01*
X71247000Y-144780000D01*
X71247000Y-142240000D01*
X71247000Y-35687000D01*
X218313000Y-35687000D01*
X218313000Y-142240000D01*
X218313000Y-144145000D01*
X218313000Y-146558000D01*
M02*
