G04 #@! TF.FileFunction,Legend,Bot*
%FSLAX46Y46*%
G04 Gerber Fmt 4.6, Leading zero omitted, Abs format (unit mm)*
G04 Created by KiCad (PCBNEW (2015-03-05 BZR 5480)-product) date Tue 17 Mar 2015 09:12:55 CET*
%MOMM*%
G01*
G04 APERTURE LIST*
%ADD10C,0.100000*%
%ADD11C,0.150000*%
G04 APERTURE END LIST*
D10*
D11*
X217170000Y-108006000D02*
X118170000Y-108006000D01*
X118170000Y-98006000D02*
X217170000Y-98006000D01*
X118170000Y-48006000D02*
X217170000Y-48006000D01*
X118170000Y-58006000D02*
X217170000Y-58006000D01*
X118170000Y-108006000D02*
X118170000Y-48006000D01*
X207170000Y-65006000D02*
X207170000Y-91006000D01*
X207170000Y-91006000D02*
X128670000Y-91006000D01*
X128670000Y-91006000D02*
X128670000Y-65506000D01*
X128670000Y-65506000D02*
X128670000Y-65006000D01*
X128670000Y-65006000D02*
X207170000Y-65006000D01*
X217170000Y-98006000D02*
X217170000Y-58006000D01*
X217170000Y-48006000D02*
X217170000Y-108006000D01*
X217170000Y-108006000D02*
X137170000Y-108006000D01*
X123247660Y-50601880D02*
G75*
G03X123247660Y-50601880I-2499360J0D01*
G01*
X123257820Y-105582720D02*
G75*
G03X123257820Y-105582720I-2499360J0D01*
G01*
X217093800Y-105379520D02*
G75*
G03X217093800Y-105379520I-2501900J0D01*
G01*
X217027760Y-50546000D02*
G75*
G03X217027760Y-50546000I-2499360J0D01*
G01*
X126619000Y-137160000D02*
X127889000Y-137160000D01*
X127889000Y-137160000D02*
X127889000Y-135890000D01*
X127889000Y-135890000D02*
X134239000Y-135890000D01*
X134239000Y-135890000D02*
X134874000Y-135890000D01*
X134874000Y-135890000D02*
X134874000Y-137160000D01*
X134874000Y-137160000D02*
X135509000Y-137160000D01*
X135509000Y-137160000D02*
X134874000Y-137160000D01*
X134874000Y-137160000D02*
X134874000Y-138430000D01*
X134874000Y-138430000D02*
X127889000Y-138430000D01*
X127889000Y-138430000D02*
X127889000Y-137160000D01*
X98425000Y-119380000D02*
X97155000Y-119380000D01*
X97155000Y-119380000D02*
X97155000Y-120650000D01*
X97155000Y-120650000D02*
X90805000Y-120650000D01*
X90805000Y-120650000D02*
X90170000Y-120650000D01*
X90170000Y-120650000D02*
X90170000Y-119380000D01*
X90170000Y-119380000D02*
X89535000Y-119380000D01*
X89535000Y-119380000D02*
X90170000Y-119380000D01*
X90170000Y-119380000D02*
X90170000Y-118110000D01*
X90170000Y-118110000D02*
X97155000Y-118110000D01*
X97155000Y-118110000D02*
X97155000Y-119380000D01*
X126365000Y-119380000D02*
X127635000Y-119380000D01*
X127635000Y-119380000D02*
X127635000Y-118110000D01*
X127635000Y-118110000D02*
X133985000Y-118110000D01*
X133985000Y-118110000D02*
X134620000Y-118110000D01*
X134620000Y-118110000D02*
X134620000Y-119380000D01*
X134620000Y-119380000D02*
X135255000Y-119380000D01*
X135255000Y-119380000D02*
X134620000Y-119380000D01*
X134620000Y-119380000D02*
X134620000Y-120650000D01*
X134620000Y-120650000D02*
X127635000Y-120650000D01*
X127635000Y-120650000D02*
X127635000Y-119380000D01*
X98425000Y-128270000D02*
X97155000Y-128270000D01*
X97155000Y-128270000D02*
X97155000Y-129540000D01*
X97155000Y-129540000D02*
X90805000Y-129540000D01*
X90805000Y-129540000D02*
X90170000Y-129540000D01*
X90170000Y-129540000D02*
X90170000Y-128270000D01*
X90170000Y-128270000D02*
X89535000Y-128270000D01*
X89535000Y-128270000D02*
X90170000Y-128270000D01*
X90170000Y-128270000D02*
X90170000Y-127000000D01*
X90170000Y-127000000D02*
X97155000Y-127000000D01*
X97155000Y-127000000D02*
X97155000Y-128270000D01*
X126365000Y-128270000D02*
X127635000Y-128270000D01*
X127635000Y-128270000D02*
X127635000Y-127000000D01*
X127635000Y-127000000D02*
X133985000Y-127000000D01*
X133985000Y-127000000D02*
X134620000Y-127000000D01*
X134620000Y-127000000D02*
X134620000Y-128270000D01*
X134620000Y-128270000D02*
X135255000Y-128270000D01*
X135255000Y-128270000D02*
X134620000Y-128270000D01*
X134620000Y-128270000D02*
X134620000Y-129540000D01*
X134620000Y-129540000D02*
X127635000Y-129540000D01*
X127635000Y-129540000D02*
X127635000Y-128270000D01*
X98425000Y-137160000D02*
X97155000Y-137160000D01*
X97155000Y-137160000D02*
X97155000Y-138430000D01*
X97155000Y-138430000D02*
X90805000Y-138430000D01*
X90805000Y-138430000D02*
X90170000Y-138430000D01*
X90170000Y-138430000D02*
X90170000Y-137160000D01*
X90170000Y-137160000D02*
X89535000Y-137160000D01*
X89535000Y-137160000D02*
X90170000Y-137160000D01*
X90170000Y-137160000D02*
X90170000Y-135890000D01*
X90170000Y-135890000D02*
X97155000Y-135890000D01*
X97155000Y-135890000D02*
X97155000Y-137160000D01*
X203835000Y-113665000D02*
X204470000Y-114935000D01*
X203835000Y-119380000D02*
X203835000Y-113665000D01*
X203835000Y-113665000D02*
X203200000Y-114935000D01*
X207786313Y-116586000D02*
G75*
G03X207786313Y-116586000I-3951313J0D01*
G01*
X109855000Y-113030000D02*
X109855000Y-120650000D01*
X109855000Y-120650000D02*
X108585000Y-120650000D01*
X108585000Y-120650000D02*
X108585000Y-113030000D01*
X112395000Y-113030000D02*
X106045000Y-113030000D01*
X106045000Y-113030000D02*
X106045000Y-120650000D01*
X106045000Y-120650000D02*
X112395000Y-120650000D01*
X112395000Y-120650000D02*
X112395000Y-113030000D01*
X117475000Y-120650000D02*
X117475000Y-113030000D01*
X117475000Y-113030000D02*
X118745000Y-113030000D01*
X118745000Y-113030000D02*
X118745000Y-120650000D01*
X114935000Y-120650000D02*
X121285000Y-120650000D01*
X121285000Y-120650000D02*
X121285000Y-113030000D01*
X121285000Y-113030000D02*
X114935000Y-113030000D01*
X114935000Y-113030000D02*
X114935000Y-120650000D01*
X109855000Y-121920000D02*
X109855000Y-129540000D01*
X109855000Y-129540000D02*
X108585000Y-129540000D01*
X108585000Y-129540000D02*
X108585000Y-121920000D01*
X112395000Y-121920000D02*
X106045000Y-121920000D01*
X106045000Y-121920000D02*
X106045000Y-129540000D01*
X106045000Y-129540000D02*
X112395000Y-129540000D01*
X112395000Y-129540000D02*
X112395000Y-121920000D01*
X117475000Y-129540000D02*
X117475000Y-121920000D01*
X117475000Y-121920000D02*
X118745000Y-121920000D01*
X118745000Y-121920000D02*
X118745000Y-129540000D01*
X114935000Y-129540000D02*
X121285000Y-129540000D01*
X121285000Y-129540000D02*
X121285000Y-121920000D01*
X121285000Y-121920000D02*
X114935000Y-121920000D01*
X114935000Y-121920000D02*
X114935000Y-129540000D01*
X109855000Y-130810000D02*
X109855000Y-138430000D01*
X109855000Y-138430000D02*
X108585000Y-138430000D01*
X108585000Y-138430000D02*
X108585000Y-130810000D01*
X112395000Y-130810000D02*
X106045000Y-130810000D01*
X106045000Y-130810000D02*
X106045000Y-138430000D01*
X106045000Y-138430000D02*
X112395000Y-138430000D01*
X112395000Y-138430000D02*
X112395000Y-130810000D01*
X117475000Y-138430000D02*
X117475000Y-130810000D01*
X117475000Y-130810000D02*
X118745000Y-130810000D01*
X118745000Y-130810000D02*
X118745000Y-138430000D01*
X114935000Y-138430000D02*
X121285000Y-138430000D01*
X121285000Y-138430000D02*
X121285000Y-130810000D01*
X121285000Y-130810000D02*
X114935000Y-130810000D01*
X114935000Y-130810000D02*
X114935000Y-138430000D01*
X97028000Y-49276000D02*
X97028000Y-79756000D01*
X97028000Y-79756000D02*
X107188000Y-79756000D01*
X107188000Y-79756000D02*
X107188000Y-49276000D01*
X107188000Y-49276000D02*
X97028000Y-49276000D01*
X99060000Y-97155000D02*
X97790000Y-97155000D01*
X97790000Y-97155000D02*
X97790000Y-98425000D01*
X97790000Y-98425000D02*
X91440000Y-98425000D01*
X91440000Y-98425000D02*
X90805000Y-98425000D01*
X90805000Y-98425000D02*
X90805000Y-97155000D01*
X90805000Y-97155000D02*
X90170000Y-97155000D01*
X90170000Y-97155000D02*
X90805000Y-97155000D01*
X90805000Y-97155000D02*
X90805000Y-95885000D01*
X90805000Y-95885000D02*
X97790000Y-95885000D01*
X97790000Y-95885000D02*
X97790000Y-97155000D01*
X109855000Y-95885000D02*
X109855000Y-103505000D01*
X109855000Y-103505000D02*
X108585000Y-103505000D01*
X108585000Y-103505000D02*
X108585000Y-95885000D01*
X112395000Y-95885000D02*
X106045000Y-95885000D01*
X106045000Y-95885000D02*
X106045000Y-103505000D01*
X106045000Y-103505000D02*
X112395000Y-103505000D01*
X112395000Y-103505000D02*
X112395000Y-95885000D01*
X213243326Y-47399201D02*
X213243326Y-46399201D01*
X213005231Y-46399201D01*
X212862373Y-46446820D01*
X212767135Y-46542058D01*
X212719516Y-46637296D01*
X212671897Y-46827772D01*
X212671897Y-46970630D01*
X212719516Y-47161106D01*
X212767135Y-47256344D01*
X212862373Y-47351582D01*
X213005231Y-47399201D01*
X213243326Y-47399201D01*
X212290945Y-47351582D02*
X212148088Y-47399201D01*
X211909992Y-47399201D01*
X211814754Y-47351582D01*
X211767135Y-47303963D01*
X211719516Y-47208725D01*
X211719516Y-47113487D01*
X211767135Y-47018249D01*
X211814754Y-46970630D01*
X211909992Y-46923010D01*
X212100469Y-46875391D01*
X212195707Y-46827772D01*
X212243326Y-46780153D01*
X212290945Y-46684915D01*
X212290945Y-46589677D01*
X212243326Y-46494439D01*
X212195707Y-46446820D01*
X212100469Y-46399201D01*
X211862373Y-46399201D01*
X211719516Y-46446820D01*
X210767135Y-47399201D02*
X211338564Y-47399201D01*
X211052850Y-47399201D02*
X211052850Y-46399201D01*
X211148088Y-46542058D01*
X211243326Y-46637296D01*
X211338564Y-46684915D01*
X128107142Y-43350571D02*
X128107142Y-41850571D01*
X127535714Y-41850571D01*
X127392856Y-41922000D01*
X127321428Y-41993429D01*
X127249999Y-42136286D01*
X127249999Y-42350571D01*
X127321428Y-42493429D01*
X127392856Y-42564857D01*
X127535714Y-42636286D01*
X128107142Y-42636286D01*
X125821428Y-43350571D02*
X126678571Y-43350571D01*
X126249999Y-43350571D02*
X126249999Y-41850571D01*
X126392856Y-42064857D01*
X126535714Y-42207714D01*
X126678571Y-42279143D01*
X128107142Y-57066571D02*
X128107142Y-55566571D01*
X127535714Y-55566571D01*
X127392856Y-55638000D01*
X127321428Y-55709429D01*
X127249999Y-55852286D01*
X127249999Y-56066571D01*
X127321428Y-56209429D01*
X127392856Y-56280857D01*
X127535714Y-56352286D01*
X128107142Y-56352286D01*
X126678571Y-55709429D02*
X126607142Y-55638000D01*
X126464285Y-55566571D01*
X126107142Y-55566571D01*
X125964285Y-55638000D01*
X125892856Y-55709429D01*
X125821428Y-55852286D01*
X125821428Y-55995143D01*
X125892856Y-56209429D01*
X126749999Y-57066571D01*
X125821428Y-57066571D01*
X188559142Y-86784571D02*
X188559142Y-85284571D01*
X187987714Y-85284571D01*
X187844856Y-85356000D01*
X187773428Y-85427429D01*
X187701999Y-85570286D01*
X187701999Y-85784571D01*
X187773428Y-85927429D01*
X187844856Y-85998857D01*
X187987714Y-86070286D01*
X188559142Y-86070286D01*
X187201999Y-85284571D02*
X186273428Y-85284571D01*
X186773428Y-85856000D01*
X186559142Y-85856000D01*
X186416285Y-85927429D01*
X186344856Y-85998857D01*
X186273428Y-86141714D01*
X186273428Y-86498857D01*
X186344856Y-86641714D01*
X186416285Y-86713143D01*
X186559142Y-86784571D01*
X186987714Y-86784571D01*
X187130571Y-86713143D01*
X187201999Y-86641714D01*
X202529142Y-86784571D02*
X202529142Y-85284571D01*
X201957714Y-85284571D01*
X201814856Y-85356000D01*
X201743428Y-85427429D01*
X201671999Y-85570286D01*
X201671999Y-85784571D01*
X201743428Y-85927429D01*
X201814856Y-85998857D01*
X201957714Y-86070286D01*
X202529142Y-86070286D01*
X200386285Y-85784571D02*
X200386285Y-86784571D01*
X200743428Y-85213143D02*
X201100571Y-86284571D01*
X200171999Y-86284571D01*
X131948999Y-135298571D02*
X132448999Y-134584286D01*
X132806142Y-135298571D02*
X132806142Y-133798571D01*
X132234714Y-133798571D01*
X132091856Y-133870000D01*
X132020428Y-133941429D01*
X131948999Y-134084286D01*
X131948999Y-134298571D01*
X132020428Y-134441429D01*
X132091856Y-134512857D01*
X132234714Y-134584286D01*
X132806142Y-134584286D01*
X130520428Y-135298571D02*
X131377571Y-135298571D01*
X130948999Y-135298571D02*
X130948999Y-133798571D01*
X131091856Y-134012857D01*
X131234714Y-134155714D01*
X131377571Y-134227143D01*
X93594999Y-122598571D02*
X94094999Y-121884286D01*
X94452142Y-122598571D02*
X94452142Y-121098571D01*
X93880714Y-121098571D01*
X93737856Y-121170000D01*
X93666428Y-121241429D01*
X93594999Y-121384286D01*
X93594999Y-121598571D01*
X93666428Y-121741429D01*
X93737856Y-121812857D01*
X93880714Y-121884286D01*
X94452142Y-121884286D01*
X93023571Y-121241429D02*
X92952142Y-121170000D01*
X92809285Y-121098571D01*
X92452142Y-121098571D01*
X92309285Y-121170000D01*
X92237856Y-121241429D01*
X92166428Y-121384286D01*
X92166428Y-121527143D01*
X92237856Y-121741429D01*
X93094999Y-122598571D01*
X92166428Y-122598571D01*
X131694999Y-117518571D02*
X132194999Y-116804286D01*
X132552142Y-117518571D02*
X132552142Y-116018571D01*
X131980714Y-116018571D01*
X131837856Y-116090000D01*
X131766428Y-116161429D01*
X131694999Y-116304286D01*
X131694999Y-116518571D01*
X131766428Y-116661429D01*
X131837856Y-116732857D01*
X131980714Y-116804286D01*
X132552142Y-116804286D01*
X131194999Y-116018571D02*
X130266428Y-116018571D01*
X130766428Y-116590000D01*
X130552142Y-116590000D01*
X130409285Y-116661429D01*
X130337856Y-116732857D01*
X130266428Y-116875714D01*
X130266428Y-117232857D01*
X130337856Y-117375714D01*
X130409285Y-117447143D01*
X130552142Y-117518571D01*
X130980714Y-117518571D01*
X131123571Y-117447143D01*
X131194999Y-117375714D01*
X93594999Y-131488571D02*
X94094999Y-130774286D01*
X94452142Y-131488571D02*
X94452142Y-129988571D01*
X93880714Y-129988571D01*
X93737856Y-130060000D01*
X93666428Y-130131429D01*
X93594999Y-130274286D01*
X93594999Y-130488571D01*
X93666428Y-130631429D01*
X93737856Y-130702857D01*
X93880714Y-130774286D01*
X94452142Y-130774286D01*
X92309285Y-130488571D02*
X92309285Y-131488571D01*
X92666428Y-129917143D02*
X93023571Y-130988571D01*
X92094999Y-130988571D01*
X131694999Y-126408571D02*
X132194999Y-125694286D01*
X132552142Y-126408571D02*
X132552142Y-124908571D01*
X131980714Y-124908571D01*
X131837856Y-124980000D01*
X131766428Y-125051429D01*
X131694999Y-125194286D01*
X131694999Y-125408571D01*
X131766428Y-125551429D01*
X131837856Y-125622857D01*
X131980714Y-125694286D01*
X132552142Y-125694286D01*
X130337856Y-124908571D02*
X131052142Y-124908571D01*
X131123571Y-125622857D01*
X131052142Y-125551429D01*
X130909285Y-125480000D01*
X130552142Y-125480000D01*
X130409285Y-125551429D01*
X130337856Y-125622857D01*
X130266428Y-125765714D01*
X130266428Y-126122857D01*
X130337856Y-126265714D01*
X130409285Y-126337143D01*
X130552142Y-126408571D01*
X130909285Y-126408571D01*
X131052142Y-126337143D01*
X131123571Y-126265714D01*
X93594999Y-140378571D02*
X94094999Y-139664286D01*
X94452142Y-140378571D02*
X94452142Y-138878571D01*
X93880714Y-138878571D01*
X93737856Y-138950000D01*
X93666428Y-139021429D01*
X93594999Y-139164286D01*
X93594999Y-139378571D01*
X93666428Y-139521429D01*
X93737856Y-139592857D01*
X93880714Y-139664286D01*
X94452142Y-139664286D01*
X92309285Y-138878571D02*
X92594999Y-138878571D01*
X92737856Y-138950000D01*
X92809285Y-139021429D01*
X92952142Y-139235714D01*
X93023571Y-139521429D01*
X93023571Y-140092857D01*
X92952142Y-140235714D01*
X92880714Y-140307143D01*
X92737856Y-140378571D01*
X92452142Y-140378571D01*
X92309285Y-140307143D01*
X92237856Y-140235714D01*
X92166428Y-140092857D01*
X92166428Y-139735714D01*
X92237856Y-139592857D01*
X92309285Y-139521429D01*
X92452142Y-139450000D01*
X92737856Y-139450000D01*
X92880714Y-139521429D01*
X92952142Y-139592857D01*
X93023571Y-139735714D01*
X218697856Y-100373571D02*
X219197856Y-99659286D01*
X219554999Y-100373571D02*
X219554999Y-98873571D01*
X218983571Y-98873571D01*
X218840713Y-98945000D01*
X218769285Y-99016429D01*
X218697856Y-99159286D01*
X218697856Y-99373571D01*
X218769285Y-99516429D01*
X218840713Y-99587857D01*
X218983571Y-99659286D01*
X219554999Y-99659286D01*
X218269285Y-98873571D02*
X217769285Y-100373571D01*
X217269285Y-98873571D01*
X216840714Y-99016429D02*
X216769285Y-98945000D01*
X216626428Y-98873571D01*
X216269285Y-98873571D01*
X216126428Y-98945000D01*
X216054999Y-99016429D01*
X215983571Y-99159286D01*
X215983571Y-99302143D01*
X216054999Y-99516429D01*
X216912142Y-100373571D01*
X215983571Y-100373571D01*
X113125000Y-123797143D02*
X112910714Y-123868571D01*
X112553571Y-123868571D01*
X112410714Y-123797143D01*
X112339285Y-123725714D01*
X112267857Y-123582857D01*
X112267857Y-123440000D01*
X112339285Y-123297143D01*
X112410714Y-123225714D01*
X112553571Y-123154286D01*
X112839285Y-123082857D01*
X112982143Y-123011429D01*
X113053571Y-122940000D01*
X113125000Y-122797143D01*
X113125000Y-122654286D01*
X113053571Y-122511429D01*
X112982143Y-122440000D01*
X112839285Y-122368571D01*
X112482143Y-122368571D01*
X112267857Y-122440000D01*
X111767857Y-122368571D02*
X111410714Y-123868571D01*
X111125000Y-122797143D01*
X110839286Y-123868571D01*
X110482143Y-122368571D01*
X109125000Y-123868571D02*
X109982143Y-123868571D01*
X109553571Y-123868571D02*
X109553571Y-122368571D01*
X109696428Y-122582857D01*
X109839286Y-122725714D01*
X109982143Y-122797143D01*
X118205000Y-111097143D02*
X117990714Y-111168571D01*
X117633571Y-111168571D01*
X117490714Y-111097143D01*
X117419285Y-111025714D01*
X117347857Y-110882857D01*
X117347857Y-110740000D01*
X117419285Y-110597143D01*
X117490714Y-110525714D01*
X117633571Y-110454286D01*
X117919285Y-110382857D01*
X118062143Y-110311429D01*
X118133571Y-110240000D01*
X118205000Y-110097143D01*
X118205000Y-109954286D01*
X118133571Y-109811429D01*
X118062143Y-109740000D01*
X117919285Y-109668571D01*
X117562143Y-109668571D01*
X117347857Y-109740000D01*
X116847857Y-109668571D02*
X116490714Y-111168571D01*
X116205000Y-110097143D01*
X115919286Y-111168571D01*
X115562143Y-109668571D01*
X115062143Y-109811429D02*
X114990714Y-109740000D01*
X114847857Y-109668571D01*
X114490714Y-109668571D01*
X114347857Y-109740000D01*
X114276428Y-109811429D01*
X114205000Y-109954286D01*
X114205000Y-110097143D01*
X114276428Y-110311429D01*
X115133571Y-111168571D01*
X114205000Y-111168571D01*
X113125000Y-132687143D02*
X112910714Y-132758571D01*
X112553571Y-132758571D01*
X112410714Y-132687143D01*
X112339285Y-132615714D01*
X112267857Y-132472857D01*
X112267857Y-132330000D01*
X112339285Y-132187143D01*
X112410714Y-132115714D01*
X112553571Y-132044286D01*
X112839285Y-131972857D01*
X112982143Y-131901429D01*
X113053571Y-131830000D01*
X113125000Y-131687143D01*
X113125000Y-131544286D01*
X113053571Y-131401429D01*
X112982143Y-131330000D01*
X112839285Y-131258571D01*
X112482143Y-131258571D01*
X112267857Y-131330000D01*
X111767857Y-131258571D02*
X111410714Y-132758571D01*
X111125000Y-131687143D01*
X110839286Y-132758571D01*
X110482143Y-131258571D01*
X110053571Y-131258571D02*
X109125000Y-131258571D01*
X109625000Y-131830000D01*
X109410714Y-131830000D01*
X109267857Y-131901429D01*
X109196428Y-131972857D01*
X109125000Y-132115714D01*
X109125000Y-132472857D01*
X109196428Y-132615714D01*
X109267857Y-132687143D01*
X109410714Y-132758571D01*
X109839286Y-132758571D01*
X109982143Y-132687143D01*
X110053571Y-132615714D01*
X118205000Y-119987143D02*
X117990714Y-120058571D01*
X117633571Y-120058571D01*
X117490714Y-119987143D01*
X117419285Y-119915714D01*
X117347857Y-119772857D01*
X117347857Y-119630000D01*
X117419285Y-119487143D01*
X117490714Y-119415714D01*
X117633571Y-119344286D01*
X117919285Y-119272857D01*
X118062143Y-119201429D01*
X118133571Y-119130000D01*
X118205000Y-118987143D01*
X118205000Y-118844286D01*
X118133571Y-118701429D01*
X118062143Y-118630000D01*
X117919285Y-118558571D01*
X117562143Y-118558571D01*
X117347857Y-118630000D01*
X116847857Y-118558571D02*
X116490714Y-120058571D01*
X116205000Y-118987143D01*
X115919286Y-120058571D01*
X115562143Y-118558571D01*
X114347857Y-119058571D02*
X114347857Y-120058571D01*
X114705000Y-118487143D02*
X115062143Y-119558571D01*
X114133571Y-119558571D01*
X113125000Y-141577143D02*
X112910714Y-141648571D01*
X112553571Y-141648571D01*
X112410714Y-141577143D01*
X112339285Y-141505714D01*
X112267857Y-141362857D01*
X112267857Y-141220000D01*
X112339285Y-141077143D01*
X112410714Y-141005714D01*
X112553571Y-140934286D01*
X112839285Y-140862857D01*
X112982143Y-140791429D01*
X113053571Y-140720000D01*
X113125000Y-140577143D01*
X113125000Y-140434286D01*
X113053571Y-140291429D01*
X112982143Y-140220000D01*
X112839285Y-140148571D01*
X112482143Y-140148571D01*
X112267857Y-140220000D01*
X111767857Y-140148571D02*
X111410714Y-141648571D01*
X111125000Y-140577143D01*
X110839286Y-141648571D01*
X110482143Y-140148571D01*
X109196428Y-140148571D02*
X109910714Y-140148571D01*
X109982143Y-140862857D01*
X109910714Y-140791429D01*
X109767857Y-140720000D01*
X109410714Y-140720000D01*
X109267857Y-140791429D01*
X109196428Y-140862857D01*
X109125000Y-141005714D01*
X109125000Y-141362857D01*
X109196428Y-141505714D01*
X109267857Y-141577143D01*
X109410714Y-141648571D01*
X109767857Y-141648571D01*
X109910714Y-141577143D01*
X109982143Y-141505714D01*
X118205000Y-128877143D02*
X117990714Y-128948571D01*
X117633571Y-128948571D01*
X117490714Y-128877143D01*
X117419285Y-128805714D01*
X117347857Y-128662857D01*
X117347857Y-128520000D01*
X117419285Y-128377143D01*
X117490714Y-128305714D01*
X117633571Y-128234286D01*
X117919285Y-128162857D01*
X118062143Y-128091429D01*
X118133571Y-128020000D01*
X118205000Y-127877143D01*
X118205000Y-127734286D01*
X118133571Y-127591429D01*
X118062143Y-127520000D01*
X117919285Y-127448571D01*
X117562143Y-127448571D01*
X117347857Y-127520000D01*
X116847857Y-127448571D02*
X116490714Y-128948571D01*
X116205000Y-127877143D01*
X115919286Y-128948571D01*
X115562143Y-127448571D01*
X114347857Y-127448571D02*
X114633571Y-127448571D01*
X114776428Y-127520000D01*
X114847857Y-127591429D01*
X114990714Y-127805714D01*
X115062143Y-128091429D01*
X115062143Y-128662857D01*
X114990714Y-128805714D01*
X114919286Y-128877143D01*
X114776428Y-128948571D01*
X114490714Y-128948571D01*
X114347857Y-128877143D01*
X114276428Y-128805714D01*
X114205000Y-128662857D01*
X114205000Y-128305714D01*
X114276428Y-128162857D01*
X114347857Y-128091429D01*
X114490714Y-128020000D01*
X114776428Y-128020000D01*
X114919286Y-128091429D01*
X114990714Y-128162857D01*
X115062143Y-128305714D01*
X103250857Y-45914571D02*
X103250857Y-47128857D01*
X103179429Y-47271714D01*
X103108000Y-47343143D01*
X102965143Y-47414571D01*
X102679429Y-47414571D01*
X102536571Y-47343143D01*
X102465143Y-47271714D01*
X102393714Y-47128857D01*
X102393714Y-45914571D01*
X100893714Y-47414571D02*
X101750857Y-47414571D01*
X101322285Y-47414571D02*
X101322285Y-45914571D01*
X101465142Y-46128857D01*
X101608000Y-46271714D01*
X101750857Y-46343143D01*
X94229999Y-100373571D02*
X94729999Y-99659286D01*
X95087142Y-100373571D02*
X95087142Y-98873571D01*
X94515714Y-98873571D01*
X94372856Y-98945000D01*
X94301428Y-99016429D01*
X94229999Y-99159286D01*
X94229999Y-99373571D01*
X94301428Y-99516429D01*
X94372856Y-99587857D01*
X94515714Y-99659286D01*
X95087142Y-99659286D01*
X93729999Y-98873571D02*
X92729999Y-98873571D01*
X93372856Y-100373571D01*
X113125000Y-106652143D02*
X112910714Y-106723571D01*
X112553571Y-106723571D01*
X112410714Y-106652143D01*
X112339285Y-106580714D01*
X112267857Y-106437857D01*
X112267857Y-106295000D01*
X112339285Y-106152143D01*
X112410714Y-106080714D01*
X112553571Y-106009286D01*
X112839285Y-105937857D01*
X112982143Y-105866429D01*
X113053571Y-105795000D01*
X113125000Y-105652143D01*
X113125000Y-105509286D01*
X113053571Y-105366429D01*
X112982143Y-105295000D01*
X112839285Y-105223571D01*
X112482143Y-105223571D01*
X112267857Y-105295000D01*
X111767857Y-105223571D02*
X111410714Y-106723571D01*
X111125000Y-105652143D01*
X110839286Y-106723571D01*
X110482143Y-105223571D01*
X110053571Y-105223571D02*
X109053571Y-105223571D01*
X109696428Y-106723571D01*
X80482142Y-115613571D02*
X80482142Y-114113571D01*
X79910714Y-114113571D01*
X79767856Y-114185000D01*
X79696428Y-114256429D01*
X79624999Y-114399286D01*
X79624999Y-114613571D01*
X79696428Y-114756429D01*
X79767856Y-114827857D01*
X79910714Y-114899286D01*
X80482142Y-114899286D01*
X78267856Y-114113571D02*
X78982142Y-114113571D01*
X79053571Y-114827857D01*
X78982142Y-114756429D01*
X78839285Y-114685000D01*
X78482142Y-114685000D01*
X78339285Y-114756429D01*
X78267856Y-114827857D01*
X78196428Y-114970714D01*
X78196428Y-115327857D01*
X78267856Y-115470714D01*
X78339285Y-115542143D01*
X78482142Y-115613571D01*
X78839285Y-115613571D01*
X78982142Y-115542143D01*
X79053571Y-115470714D01*
X71592142Y-115613571D02*
X71592142Y-114113571D01*
X71020714Y-114113571D01*
X70877856Y-114185000D01*
X70806428Y-114256429D01*
X70734999Y-114399286D01*
X70734999Y-114613571D01*
X70806428Y-114756429D01*
X70877856Y-114827857D01*
X71020714Y-114899286D01*
X71592142Y-114899286D01*
X69449285Y-114113571D02*
X69734999Y-114113571D01*
X69877856Y-114185000D01*
X69949285Y-114256429D01*
X70092142Y-114470714D01*
X70163571Y-114756429D01*
X70163571Y-115327857D01*
X70092142Y-115470714D01*
X70020714Y-115542143D01*
X69877856Y-115613571D01*
X69592142Y-115613571D01*
X69449285Y-115542143D01*
X69377856Y-115470714D01*
X69306428Y-115327857D01*
X69306428Y-114970714D01*
X69377856Y-114827857D01*
X69449285Y-114756429D01*
X69592142Y-114685000D01*
X69877856Y-114685000D01*
X70020714Y-114756429D01*
X70092142Y-114827857D01*
X70163571Y-114970714D01*
M02*
