<?xml version="1.0" standalone="no"?>
 <!DOCTYPE svg PUBLIC "-//W3C//DTD SVG 1.1//EN" 
 "http://www.w3.org/Graphics/SVG/1.1/DTD/svg11.dtd"> 
<svg xmlns="http://www.w3.org/2000/svg" version="1.1" 
    width="29.7002cm" height="21.0007cm" viewBox="0 0 116930 82680 ">
<title>SVG Picture created as Teensy-Shorcuts-brd.svg date 2015/03/16 15:52:34 </title>
  <desc>Picture generated by PCBNEW </desc>
<g style="fill:#000000; fill-opacity:1;stroke:#000000; stroke-opacity:1;
stroke-linecap:round; stroke-linejoin:round; "
 transform="translate(0 0) scale(1 1)">
</g>
<g style="fill:#000000; fill-opacity:0.0; 
stroke:#000000; stroke-width:39.3701; stroke-opacity:1; 
stroke-linecap:round; stroke-linejoin:round;">
</g>
<g style="fill:#000000; fill-opacity:0.0; 
stroke:#000000; stroke-width:59.0551; stroke-opacity:1; 
stroke-linecap:round; stroke-linejoin:round;">
<rect x="69685.9" y="65357.2" width="42519.7" height="12598.4" rx="0" />
</g>
<g style="fill:#000000; fill-opacity:0.0; 
stroke:#000000; stroke-width:39.3701; stroke-opacity:1; 
stroke-linecap:round; stroke-linejoin:round;">
</g>
<g style="fill:#000000; fill-opacity:0.0; 
stroke:#000000; stroke-width:59.0551; stroke-opacity:1; 
stroke-linecap:round; stroke-linejoin:round;">
<rect x="3937.01" y="3937.01" width="109056" height="74806" rx="0" />
</g>
<g style="fill:#000000; fill-opacity:0.0; 
stroke:#000000; stroke-width:39.3701; stroke-opacity:1; 
stroke-linecap:round; stroke-linejoin:round;">
</g>
<g style="fill:#000000; fill-opacity:0.0; 
stroke:#000000; stroke-width:59.0551; stroke-opacity:1; 
stroke-linecap:round; stroke-linejoin:round;">
<rect x="4724.41" y="4724.41" width="107481" height="73231.2" rx="0" />
</g>
<g style="fill:#000000; fill-opacity:0.0; 
stroke:#000000; stroke-width:39.3701; stroke-opacity:1; 
stroke-linecap:round; stroke-linejoin:round;">
</g>
<g style="fill:#000000; fill-opacity:0.0; 
stroke:#000000; stroke-width:59.0551; stroke-opacity:1; 
stroke-linecap:round; stroke-linejoin:round;">
<path d="M23622 4724
L23622 3937
" />
</g>
<g style="fill:#000000; fill-opacity:0.0; 
stroke:#000000; stroke-width:39.3701; stroke-opacity:1; 
stroke-linecap:round; stroke-linejoin:round;">
</g>
<g style="fill:#000000; fill-opacity:0.0; 
stroke:#000000; stroke-width:59.0551; stroke-opacity:1; 
stroke-linecap:round; stroke-linejoin:round;">
<path d="M43307 4724
L43307 3937
" />
</g>
<g style="fill:#000000; fill-opacity:0.0; 
stroke:#000000; stroke-width:39.3701; stroke-opacity:1; 
stroke-linecap:round; stroke-linejoin:round;">
</g>
<g style="fill:#000000; fill-opacity:0.0; 
stroke:#000000; stroke-width:59.0551; stroke-opacity:1; 
stroke-linecap:round; stroke-linejoin:round;">
<path d="M62992 4724
L62992 3937
" />
</g>
<g style="fill:#000000; fill-opacity:0.0; 
stroke:#000000; stroke-width:39.3701; stroke-opacity:1; 
stroke-linecap:round; stroke-linejoin:round;">
</g>
<g style="fill:#000000; fill-opacity:0.0; 
stroke:#000000; stroke-width:59.0551; stroke-opacity:1; 
stroke-linecap:round; stroke-linejoin:round;">
<path d="M82677 4724
L82677 3937
" />
</g>
<g style="fill:#000000; fill-opacity:0.0; 
stroke:#000000; stroke-width:39.3701; stroke-opacity:1; 
stroke-linecap:round; stroke-linejoin:round;">
</g>
<g style="fill:#000000; fill-opacity:0.0; 
stroke:#000000; stroke-width:59.0551; stroke-opacity:1; 
stroke-linecap:round; stroke-linejoin:round;">
<path d="M102362 4724
L102362 3937
" />
</g>
<g style="fill:#000000; fill-opacity:0.0; 
stroke:#000000; stroke-width:39.3701; stroke-opacity:1; 
stroke-linecap:round; stroke-linejoin:round;">
</g>
<g style="fill:#000000; fill-opacity:0.0; 
stroke:#000000; stroke-width:59.0551; stroke-opacity:1; 
stroke-linecap:round; stroke-linejoin:round;">
<path d="M14169 4562
L13877 4562
" />
<path d="M14023 4562
L14023 4050
L13974 4123
L13925 4172
L13877 4196
" />
</g>
<g style="fill:#000000; fill-opacity:0.0; 
stroke:#000000; stroke-width:39.3701; stroke-opacity:1; 
stroke-linecap:round; stroke-linejoin:round;">
</g>
<g style="fill:#000000; fill-opacity:0.0; 
stroke:#000000; stroke-width:59.0551; stroke-opacity:1; 
stroke-linecap:round; stroke-linejoin:round;">
<path d="M33562 4099
L33586 4074
L33635 4050
L33757 4050
L33805 4074
L33830 4099
L33854 4147
L33854 4196
L33830 4269
L33537 4562
L33854 4562
" />
</g>
<g style="fill:#000000; fill-opacity:0.0; 
stroke:#000000; stroke-width:39.3701; stroke-opacity:1; 
stroke-linecap:round; stroke-linejoin:round;">
</g>
<g style="fill:#000000; fill-opacity:0.0; 
stroke:#000000; stroke-width:59.0551; stroke-opacity:1; 
stroke-linecap:round; stroke-linejoin:round;">
<path d="M53222 4050
L53539 4050
L53368 4245
L53442 4245
L53490 4269
L53515 4294
L53539 4342
L53539 4464
L53515 4513
L53490 4537
L53442 4562
L53295 4562
L53247 4537
L53222 4513
" />
</g>
<g style="fill:#000000; fill-opacity:0.0; 
stroke:#000000; stroke-width:39.3701; stroke-opacity:1; 
stroke-linecap:round; stroke-linejoin:round;">
</g>
<g style="fill:#000000; fill-opacity:0.0; 
stroke:#000000; stroke-width:59.0551; stroke-opacity:1; 
stroke-linecap:round; stroke-linejoin:round;">
<path d="M73175 4221
L73175 4562
" />
<path d="M73053 4026
L72932 4391
L73248 4391
" />
</g>
<g style="fill:#000000; fill-opacity:0.0; 
stroke:#000000; stroke-width:39.3701; stroke-opacity:1; 
stroke-linecap:round; stroke-linejoin:round;">
</g>
<g style="fill:#000000; fill-opacity:0.0; 
stroke:#000000; stroke-width:59.0551; stroke-opacity:1; 
stroke-linecap:round; stroke-linejoin:round;">
<path d="M92885 4050
L92641 4050
L92617 4294
L92641 4269
L92690 4245
L92812 4245
L92860 4269
L92885 4294
L92909 4342
L92909 4464
L92885 4513
L92860 4537
L92812 4562
L92690 4562
L92641 4537
L92617 4513
" />
</g>
<g style="fill:#000000; fill-opacity:0.0; 
stroke:#000000; stroke-width:39.3701; stroke-opacity:1; 
stroke-linecap:round; stroke-linejoin:round;">
</g>
<g style="fill:#000000; fill-opacity:0.0; 
stroke:#000000; stroke-width:59.0551; stroke-opacity:1; 
stroke-linecap:round; stroke-linejoin:round;">
<path d="M112545 4050
L112448 4050
L112399 4074
L112375 4099
L112326 4172
L112302 4269
L112302 4464
L112326 4513
L112350 4537
L112399 4562
L112497 4562
L112545 4537
L112570 4513
L112594 4464
L112594 4342
L112570 4294
L112545 4269
L112497 4245
L112399 4245
L112350 4269
L112326 4294
L112302 4342
" />
</g>
<g style="fill:#000000; fill-opacity:0.0; 
stroke:#000000; stroke-width:39.3701; stroke-opacity:1; 
stroke-linecap:round; stroke-linejoin:round;">
</g>
<g style="fill:#000000; fill-opacity:0.0; 
stroke:#000000; stroke-width:59.0551; stroke-opacity:1; 
stroke-linecap:round; stroke-linejoin:round;">
<path d="M23622 77955
L23622 78742
" />
</g>
<g style="fill:#000000; fill-opacity:0.0; 
stroke:#000000; stroke-width:39.3701; stroke-opacity:1; 
stroke-linecap:round; stroke-linejoin:round;">
</g>
<g style="fill:#000000; fill-opacity:0.0; 
stroke:#000000; stroke-width:59.0551; stroke-opacity:1; 
stroke-linecap:round; stroke-linejoin:round;">
<path d="M43307 77955
L43307 78742
" />
</g>
<g style="fill:#000000; fill-opacity:0.0; 
stroke:#000000; stroke-width:39.3701; stroke-opacity:1; 
stroke-linecap:round; stroke-linejoin:round;">
</g>
<g style="fill:#000000; fill-opacity:0.0; 
stroke:#000000; stroke-width:59.0551; stroke-opacity:1; 
stroke-linecap:round; stroke-linejoin:round;">
<path d="M62992 77955
L62992 78742
" />
</g>
<g style="fill:#000000; fill-opacity:0.0; 
stroke:#000000; stroke-width:39.3701; stroke-opacity:1; 
stroke-linecap:round; stroke-linejoin:round;">
</g>
<g style="fill:#000000; fill-opacity:0.0; 
stroke:#000000; stroke-width:59.0551; stroke-opacity:1; 
stroke-linecap:round; stroke-linejoin:round;">
<path d="M82677 77955
L82677 78742
" />
</g>
<g style="fill:#000000; fill-opacity:0.0; 
stroke:#000000; stroke-width:39.3701; stroke-opacity:1; 
stroke-linecap:round; stroke-linejoin:round;">
</g>
<g style="fill:#000000; fill-opacity:0.0; 
stroke:#000000; stroke-width:59.0551; stroke-opacity:1; 
stroke-linecap:round; stroke-linejoin:round;">
<path d="M102362 77955
L102362 78742
" />
</g>
<g style="fill:#000000; fill-opacity:0.0; 
stroke:#000000; stroke-width:39.3701; stroke-opacity:1; 
stroke-linecap:round; stroke-linejoin:round;">
</g>
<g style="fill:#000000; fill-opacity:0.0; 
stroke:#000000; stroke-width:59.0551; stroke-opacity:1; 
stroke-linecap:round; stroke-linejoin:round;">
<path d="M14169 78580
L13877 78580
" />
<path d="M14023 78580
L14023 78069
L13974 78142
L13925 78190
L13877 78215
" />
</g>
<g style="fill:#000000; fill-opacity:0.0; 
stroke:#000000; stroke-width:39.3701; stroke-opacity:1; 
stroke-linecap:round; stroke-linejoin:round;">
</g>
<g style="fill:#000000; fill-opacity:0.0; 
stroke:#000000; stroke-width:59.0551; stroke-opacity:1; 
stroke-linecap:round; stroke-linejoin:round;">
<path d="M33562 78117
L33586 78093
L33635 78069
L33757 78069
L33805 78093
L33830 78117
L33854 78166
L33854 78215
L33830 78288
L33537 78580
L33854 78580
" />
</g>
<g style="fill:#000000; fill-opacity:0.0; 
stroke:#000000; stroke-width:39.3701; stroke-opacity:1; 
stroke-linecap:round; stroke-linejoin:round;">
</g>
<g style="fill:#000000; fill-opacity:0.0; 
stroke:#000000; stroke-width:59.0551; stroke-opacity:1; 
stroke-linecap:round; stroke-linejoin:round;">
<path d="M53222 78069
L53539 78069
L53368 78263
L53442 78263
L53490 78288
L53515 78312
L53539 78361
L53539 78483
L53515 78532
L53490 78556
L53442 78580
L53295 78580
L53247 78556
L53222 78532
" />
</g>
<g style="fill:#000000; fill-opacity:0.0; 
stroke:#000000; stroke-width:39.3701; stroke-opacity:1; 
stroke-linecap:round; stroke-linejoin:round;">
</g>
<g style="fill:#000000; fill-opacity:0.0; 
stroke:#000000; stroke-width:59.0551; stroke-opacity:1; 
stroke-linecap:round; stroke-linejoin:round;">
<path d="M73175 78239
L73175 78580
" />
<path d="M73053 78044
L72932 78410
L73248 78410
" />
</g>
<g style="fill:#000000; fill-opacity:0.0; 
stroke:#000000; stroke-width:39.3701; stroke-opacity:1; 
stroke-linecap:round; stroke-linejoin:round;">
</g>
<g style="fill:#000000; fill-opacity:0.0; 
stroke:#000000; stroke-width:59.0551; stroke-opacity:1; 
stroke-linecap:round; stroke-linejoin:round;">
<path d="M92885 78069
L92641 78069
L92617 78312
L92641 78288
L92690 78263
L92812 78263
L92860 78288
L92885 78312
L92909 78361
L92909 78483
L92885 78532
L92860 78556
L92812 78580
L92690 78580
L92641 78556
L92617 78532
" />
</g>
<g style="fill:#000000; fill-opacity:0.0; 
stroke:#000000; stroke-width:39.3701; stroke-opacity:1; 
stroke-linecap:round; stroke-linejoin:round;">
</g>
<g style="fill:#000000; fill-opacity:0.0; 
stroke:#000000; stroke-width:59.0551; stroke-opacity:1; 
stroke-linecap:round; stroke-linejoin:round;">
<path d="M112545 78069
L112448 78069
L112399 78093
L112375 78117
L112326 78190
L112302 78288
L112302 78483
L112326 78532
L112350 78556
L112399 78580
L112497 78580
L112545 78556
L112570 78532
L112594 78483
L112594 78361
L112570 78312
L112545 78288
L112497 78263
L112399 78263
L112350 78288
L112326 78312
L112302 78361
" />
</g>
<g style="fill:#000000; fill-opacity:0.0; 
stroke:#000000; stroke-width:39.3701; stroke-opacity:1; 
stroke-linecap:round; stroke-linejoin:round;">
</g>
<g style="fill:#000000; fill-opacity:0.0; 
stroke:#000000; stroke-width:59.0551; stroke-opacity:1; 
stroke-linecap:round; stroke-linejoin:round;">
<path d="M3937 23622
L4724 23622
" />
</g>
<g style="fill:#000000; fill-opacity:0.0; 
stroke:#000000; stroke-width:39.3701; stroke-opacity:1; 
stroke-linecap:round; stroke-linejoin:round;">
</g>
<g style="fill:#000000; fill-opacity:0.0; 
stroke:#000000; stroke-width:59.0551; stroke-opacity:1; 
stroke-linecap:round; stroke-linejoin:round;">
<path d="M3937 43307
L4724 43307
" />
</g>
<g style="fill:#000000; fill-opacity:0.0; 
stroke:#000000; stroke-width:39.3701; stroke-opacity:1; 
stroke-linecap:round; stroke-linejoin:round;">
</g>
<g style="fill:#000000; fill-opacity:0.0; 
stroke:#000000; stroke-width:59.0551; stroke-opacity:1; 
stroke-linecap:round; stroke-linejoin:round;">
<path d="M3937 62992
L4724 62992
" />
</g>
<g style="fill:#000000; fill-opacity:0.0; 
stroke:#000000; stroke-width:39.3701; stroke-opacity:1; 
stroke-linecap:round; stroke-linejoin:round;">
</g>
<g style="fill:#000000; fill-opacity:0.0; 
stroke:#000000; stroke-width:59.0551; stroke-opacity:1; 
stroke-linecap:round; stroke-linejoin:round;">
<path d="M4208 13864
L4452 13864
" />
<path d="M4160 14011
L4330 13499
L4501 14011
" />
</g>
<g style="fill:#000000; fill-opacity:0.0; 
stroke:#000000; stroke-width:39.3701; stroke-opacity:1; 
stroke-linecap:round; stroke-linejoin:round;">
</g>
<g style="fill:#000000; fill-opacity:0.0; 
stroke:#000000; stroke-width:59.0551; stroke-opacity:1; 
stroke-linecap:round; stroke-linejoin:round;">
<path d="M4367 33428
L4440 33452
L4464 33476
L4489 33525
L4489 33598
L4464 33647
L4440 33671
L4391 33696
L4196 33696
L4196 33184
L4367 33184
L4416 33208
L4440 33233
L4464 33281
L4464 33330
L4440 33379
L4416 33403
L4367 33428
L4196 33428
" />
</g>
<g style="fill:#000000; fill-opacity:0.0; 
stroke:#000000; stroke-width:39.3701; stroke-opacity:1; 
stroke-linecap:round; stroke-linejoin:round;">
</g>
<g style="fill:#000000; fill-opacity:0.0; 
stroke:#000000; stroke-width:59.0551; stroke-opacity:1; 
stroke-linecap:round; stroke-linejoin:round;">
<path d="M4489 53332
L4464 53356
L4391 53381
L4342 53381
L4269 53356
L4221 53308
L4196 53259
L4172 53161
L4172 53088
L4196 52991
L4221 52942
L4269 52893
L4342 52869
L4391 52869
L4464 52893
L4489 52918
" />
</g>
<g style="fill:#000000; fill-opacity:0.0; 
stroke:#000000; stroke-width:39.3701; stroke-opacity:1; 
stroke-linecap:round; stroke-linejoin:round;">
</g>
<g style="fill:#000000; fill-opacity:0.0; 
stroke:#000000; stroke-width:59.0551; stroke-opacity:1; 
stroke-linecap:round; stroke-linejoin:round;">
<path d="M4196 73066
L4196 72554
L4318 72554
L4391 72578
L4440 72627
L4464 72676
L4489 72773
L4489 72846
L4464 72944
L4440 72993
L4391 73041
L4318 73066
L4196 73066
" />
</g>
<g style="fill:#000000; fill-opacity:0.0; 
stroke:#000000; stroke-width:39.3701; stroke-opacity:1; 
stroke-linecap:round; stroke-linejoin:round;">
</g>
<g style="fill:#000000; fill-opacity:0.0; 
stroke:#000000; stroke-width:59.0551; stroke-opacity:1; 
stroke-linecap:round; stroke-linejoin:round;">
<path d="M112992 23622
L112205 23622
" />
</g>
<g style="fill:#000000; fill-opacity:0.0; 
stroke:#000000; stroke-width:39.3701; stroke-opacity:1; 
stroke-linecap:round; stroke-linejoin:round;">
</g>
<g style="fill:#000000; fill-opacity:0.0; 
stroke:#000000; stroke-width:59.0551; stroke-opacity:1; 
stroke-linecap:round; stroke-linejoin:round;">
<path d="M112992 43307
L112205 43307
" />
</g>
<g style="fill:#000000; fill-opacity:0.0; 
stroke:#000000; stroke-width:39.3701; stroke-opacity:1; 
stroke-linecap:round; stroke-linejoin:round;">
</g>
<g style="fill:#000000; fill-opacity:0.0; 
stroke:#000000; stroke-width:59.0551; stroke-opacity:1; 
stroke-linecap:round; stroke-linejoin:round;">
<path d="M112992 62992
L112205 62992
" />
</g>
<g style="fill:#000000; fill-opacity:0.0; 
stroke:#000000; stroke-width:39.3701; stroke-opacity:1; 
stroke-linecap:round; stroke-linejoin:round;">
</g>
<g style="fill:#000000; fill-opacity:0.0; 
stroke:#000000; stroke-width:59.0551; stroke-opacity:1; 
stroke-linecap:round; stroke-linejoin:round;">
<path d="M112477 13864
L112721 13864
" />
<path d="M112428 14011
L112599 13499
L112769 14011
" />
</g>
<g style="fill:#000000; fill-opacity:0.0; 
stroke:#000000; stroke-width:39.3701; stroke-opacity:1; 
stroke-linecap:round; stroke-linejoin:round;">
</g>
<g style="fill:#000000; fill-opacity:0.0; 
stroke:#000000; stroke-width:59.0551; stroke-opacity:1; 
stroke-linecap:round; stroke-linejoin:round;">
<path d="M112635 33428
L112708 33452
L112733 33476
L112757 33525
L112757 33598
L112733 33647
L112708 33671
L112660 33696
L112465 33696
L112465 33184
L112635 33184
L112684 33208
L112708 33233
L112733 33281
L112733 33330
L112708 33379
L112684 33403
L112635 33428
L112465 33428
" />
</g>
<g style="fill:#000000; fill-opacity:0.0; 
stroke:#000000; stroke-width:39.3701; stroke-opacity:1; 
stroke-linecap:round; stroke-linejoin:round;">
</g>
<g style="fill:#000000; fill-opacity:0.0; 
stroke:#000000; stroke-width:59.0551; stroke-opacity:1; 
stroke-linecap:round; stroke-linejoin:round;">
<path d="M112757 53332
L112733 53356
L112660 53381
L112611 53381
L112538 53356
L112489 53308
L112465 53259
L112440 53161
L112440 53088
L112465 52991
L112489 52942
L112538 52893
L112611 52869
L112660 52869
L112733 52893
L112757 52918
" />
</g>
<g style="fill:#000000; fill-opacity:0.0; 
stroke:#000000; stroke-width:39.3701; stroke-opacity:1; 
stroke-linecap:round; stroke-linejoin:round;">
</g>
<g style="fill:#000000; fill-opacity:0.0; 
stroke:#000000; stroke-width:59.0551; stroke-opacity:1; 
stroke-linecap:round; stroke-linejoin:round;">
<path d="M112465 73066
L112465 72554
L112587 72554
L112660 72578
L112708 72627
L112733 72676
L112757 72773
L112757 72846
L112733 72944
L112708 72993
L112660 73041
L112587 73066
L112465 73066
" />
</g>
<g style="fill:#000000; fill-opacity:0.0; 
stroke:#000000; stroke-width:39.3701; stroke-opacity:1; 
stroke-linecap:round; stroke-linejoin:round;">
</g>
<g style="fill:#000000; fill-opacity:0.0; 
stroke:#000000; stroke-width:59.0551; stroke-opacity:1; 
stroke-linecap:round; stroke-linejoin:round;">
<path d="M78881 76293
L78881 75703
L79022 75703
L79106 75731
L79162 75787
L79190 75843
L79219 75956
L79219 76040
L79190 76153
L79162 76209
L79106 76265
L79022 76293
L78881 76293
" />
<path d="M79725 76293
L79725 75984
L79697 75928
L79640 75899
L79528 75899
L79472 75928
" />
<path d="M79725 76265
L79669 76293
L79528 76293
L79472 76265
L79444 76209
L79444 76153
L79472 76096
L79528 76068
L79669 76068
L79725 76040
" />
<path d="M79922 75899
L80147 75899
" />
<path d="M80006 75703
L80006 76209
L80034 76265
L80090 76293
L80147 76293
" />
<path d="M80568 76265
L80512 76293
L80400 76293
L80343 76265
L80315 76209
L80315 75984
L80343 75928
L80400 75899
L80512 75899
L80568 75928
L80597 75984
L80597 76040
L80315 76096
" />
<path d="M80850 76237
L80878 76265
L80850 76293
L80822 76265
L80850 76237
L80850 76293
" />
<path d="M80850 75928
L80878 75956
L80850 75984
L80822 75956
L80850 75928
L80850 75984
" />
</g>
<g style="fill:#000000; fill-opacity:0.0; 
stroke:#000000; stroke-width:39.3701; stroke-opacity:1; 
stroke-linecap:round; stroke-linejoin:round;">
</g>
<g style="fill:#000000; fill-opacity:0.0; 
stroke:#000000; stroke-width:59.0551; stroke-opacity:1; 
stroke-linecap:round; stroke-linejoin:round;">
<path d="M69685 76577
L112205 76577
" />
</g>
<g style="fill:#000000; fill-opacity:0.0; 
stroke:#000000; stroke-width:39.3701; stroke-opacity:1; 
stroke-linecap:round; stroke-linejoin:round;">
</g>
<g style="fill:#000000; fill-opacity:0.0; 
stroke:#000000; stroke-width:59.0551; stroke-opacity:1; 
stroke-linecap:round; stroke-linejoin:round;">
<path d="M70220 77395
L70220 76805
" />
<path d="M70557 77395
L70304 77058
" />
<path d="M70557 76805
L70220 77142
" />
<path d="M70810 77395
L70810 77002
" />
<path d="M70810 76805
L70782 76833
L70810 76861
L70838 76833
L70810 76805
L70810 76861
" />
<path d="M71429 77339
L71401 77367
L71316 77395
L71260 77395
L71176 77367
L71120 77311
L71091 77255
L71063 77142
L71063 77058
L71091 76946
L71120 76889
L71176 76833
L71260 76805
L71316 76805
L71401 76833
L71429 76861
" />
<path d="M71935 77395
L71935 77086
L71907 77030
L71851 77002
L71738 77002
L71682 77030
" />
<path d="M71935 77367
L71879 77395
L71738 77395
L71682 77367
L71654 77311
L71654 77255
L71682 77199
L71738 77171
L71879 77171
L71935 77142
" />
<path d="M72469 77395
L72469 76805
" />
<path d="M72469 77367
L72413 77395
L72301 77395
L72244 77367
L72216 77339
L72188 77283
L72188 77114
L72216 77058
L72244 77030
L72301 77002
L72413 77002
L72469 77030
" />
<path d="M73201 77086
L73397 77086
" />
<path d="M73482 77395
L73201 77395
L73201 76805
L73482 76805
" />
<path d="M73735 77339
L73763 77367
L73735 77395
L73707 77367
L73735 77339
L73735 77395
" />
<path d="M74016 77395
L74016 76805
L74157 76805
L74241 76833
L74297 76889
L74325 76946
L74354 77058
L74354 77142
L74325 77255
L74297 77311
L74241 77367
L74157 77395
L74016 77395
" />
<path d="M74607 77339
L74635 77367
L74607 77395
L74579 77367
L74607 77339
L74607 77395
" />
<path d="M74860 77227
L75141 77227
" />
<path d="M74804 77395
L75000 76805
L75197 77395
" />
<path d="M75394 77339
L75422 77367
L75394 77395
L75366 77367
L75394 77339
L75394 77395
" />
<path d="M76575 77395
L76575 76805
" />
<path d="M76631 77171
L76800 77395
" />
<path d="M76800 77002
L76575 77227
" />
<path d="M77053 77395
L77053 77002
" />
<path d="M77053 76805
L77025 76833
L77053 76861
L77081 76833
L77053 76805
L77053 76861
" />
<path d="M77588 77367
L77531 77395
L77419 77395
L77363 77367
L77334 77339
L77306 77283
L77306 77114
L77334 77058
L77363 77030
L77419 77002
L77531 77002
L77588 77030
" />
<path d="M78094 77395
L78094 77086
L78066 77030
L78009 77002
L77897 77002
L77841 77030
" />
<path d="M78094 77367
L78037 77395
L77897 77395
L77841 77367
L77813 77311
L77813 77255
L77841 77199
L77897 77171
L78037 77171
L78094 77142
" />
<path d="M78628 77395
L78628 76805
" />
<path d="M78628 77367
L78572 77395
L78459 77395
L78403 77367
L78375 77339
L78347 77283
L78347 77114
L78375 77058
L78403 77030
L78459 77002
L78572 77002
L78628 77030
" />
<path d="M79528 77620
L79500 77592
L79444 77508
L79415 77452
L79387 77367
L79359 77227
L79359 77114
L79387 76974
L79415 76889
L79444 76833
L79500 76749
L79528 76721
" />
<path d="M79725 76861
L79753 76833
L79809 76805
L79950 76805
L80006 76833
L80034 76861
L80062 76917
L80062 76974
L80034 77058
L79697 77395
L80062 77395
" />
<path d="M80428 76805
L80484 76805
L80540 76833
L80568 76861
L80597 76917
L80625 77030
L80625 77171
L80597 77283
L80568 77339
L80540 77367
L80484 77395
L80428 77395
L80372 77367
L80343 77339
L80315 77283
L80287 77171
L80287 77030
L80315 76917
L80343 76861
L80372 76833
L80428 76805
" />
<path d="M81187 77395
L80850 77395
" />
<path d="M81018 77395
L81018 76805
L80962 76889
L80906 76946
L80850 76974
" />
<path d="M81721 76805
L81440 76805
L81412 77086
L81440 77058
L81496 77030
L81637 77030
L81693 77058
L81721 77086
L81750 77142
L81750 77283
L81721 77339
L81693 77367
L81637 77395
L81496 77395
L81440 77367
L81412 77339
" />
<path d="M82003 77171
L82453 77171
" />
<path d="M82846 76805
L82903 76805
L82959 76833
L82987 76861
L83015 76917
L83043 77030
L83043 77171
L83015 77283
L82987 77339
L82959 77367
L82903 77395
L82846 77395
L82790 77367
L82762 77339
L82734 77283
L82706 77171
L82706 77030
L82734 76917
L82762 76861
L82790 76833
L82846 76805
" />
<path d="M83240 76805
L83606 76805
L83409 77030
L83493 77030
L83549 77058
L83577 77086
L83606 77142
L83606 77283
L83577 77339
L83549 77367
L83493 77395
L83324 77395
L83268 77367
L83240 77339
" />
<path d="M83859 77171
L84309 77171
" />
<path d="M84702 76805
L84759 76805
L84815 76833
L84843 76861
L84871 76917
L84899 77030
L84899 77171
L84871 77283
L84843 77339
L84815 77367
L84759 77395
L84702 77395
L84646 77367
L84618 77339
L84590 77283
L84562 77171
L84562 77030
L84590 76917
L84618 76861
L84646 76833
L84702 76805
" />
<path d="M85433 76805
L85152 76805
L85124 77086
L85152 77058
L85208 77030
L85349 77030
L85405 77058
L85433 77086
L85462 77142
L85462 77283
L85433 77339
L85405 77367
L85349 77395
L85208 77395
L85152 77367
L85124 77339
" />
<path d="M86361 77086
L86446 77114
L86474 77142
L86502 77199
L86502 77283
L86474 77339
L86446 77367
L86390 77395
L86165 77395
L86165 76805
L86361 76805
L86418 76833
L86446 76861
L86474 76917
L86474 76974
L86446 77030
L86418 77058
L86361 77086
L86165 77086
" />
<path d="M86699 76805
L87093 76805
L86699 77395
L87093 77395
" />
<path d="M87655 77395
L87458 77114
" />
<path d="M87318 77395
L87318 76805
L87543 76805
L87599 76833
L87627 76861
L87655 76917
L87655 77002
L87627 77058
L87599 77086
L87543 77114
L87318 77114
" />
<path d="M88639 76805
L88358 76805
L88330 77086
L88358 77058
L88414 77030
L88555 77030
L88611 77058
L88639 77086
L88667 77142
L88667 77283
L88639 77339
L88611 77367
L88555 77395
L88414 77395
L88358 77367
L88330 77339
" />
<path d="M89174 77002
L89174 77395
" />
<path d="M89033 76777
L88892 77199
L89258 77199
" />
<path d="M89567 77058
L89511 77030
L89483 77002
L89455 76946
L89455 76917
L89483 76861
L89511 76833
L89567 76805
L89680 76805
L89736 76833
L89764 76861
L89792 76917
L89792 76946
L89764 77002
L89736 77030
L89680 77058
L89567 77058
L89511 77086
L89483 77114
L89455 77171
L89455 77283
L89483 77339
L89511 77367
L89567 77395
L89680 77395
L89736 77367
L89764 77339
L89792 77283
L89792 77171
L89764 77114
L89736 77086
L89680 77058
" />
<path d="M90158 76805
L90214 76805
L90270 76833
L90298 76861
L90327 76917
L90355 77030
L90355 77171
L90327 77283
L90298 77339
L90270 77367
L90214 77395
L90158 77395
L90102 77367
L90073 77339
L90045 77283
L90017 77171
L90017 77030
L90045 76917
L90073 76861
L90102 76833
L90158 76805
" />
<path d="M90552 77620
L90580 77592
L90636 77508
L90664 77452
L90692 77367
L90720 77227
L90720 77114
L90692 76974
L90664 76889
L90636 76833
L90580 76749
L90552 76721
" />
<path d="M91001 77171
L91451 77171
" />
<path d="M91733 77002
L91733 77592
" />
<path d="M91733 77030
L91789 77002
L91901 77002
L91958 77030
L91986 77058
L92014 77114
L92014 77283
L91986 77339
L91958 77367
L91901 77395
L91789 77395
L91733 77367
" />
<path d="M92267 77395
L92267 77002
" />
<path d="M92267 77114
L92295 77058
L92323 77030
L92379 77002
L92436 77002
" />
<path d="M92717 77395
L92661 77367
L92633 77339
L92604 77283
L92604 77114
L92633 77058
L92661 77030
L92717 77002
L92801 77002
L92858 77030
L92886 77058
L92914 77114
L92914 77283
L92886 77339
L92858 77367
L92801 77395
L92717 77395
" />
<path d="M93420 77395
L93420 76805
" />
<path d="M93420 77367
L93364 77395
L93251 77395
L93195 77367
L93167 77339
L93139 77283
L93139 77114
L93167 77058
L93195 77030
L93251 77002
L93364 77002
L93420 77030
" />
<path d="M93954 77002
L93954 77395
" />
<path d="M93701 77002
L93701 77311
L93729 77367
L93786 77395
L93870 77395
L93926 77367
L93954 77339
" />
<path d="M94489 77367
L94432 77395
L94320 77395
L94264 77367
L94235 77339
L94207 77283
L94207 77114
L94235 77058
L94264 77030
L94320 77002
L94432 77002
L94489 77030
" />
<path d="M94657 77002
L94882 77002
" />
<path d="M94742 76805
L94742 77311
L94770 77367
L94826 77395
L94882 77395
" />
</g>
<g style="fill:#000000; fill-opacity:0.0; 
stroke:#000000; stroke-width:39.3701; stroke-opacity:1; 
stroke-linecap:round; stroke-linejoin:round;">
</g>
<g style="fill:#000000; fill-opacity:0.0; 
stroke:#000000; stroke-width:59.0551; stroke-opacity:1; 
stroke-linecap:round; stroke-linejoin:round;">
<path d="M69685 75396
L112205 75396
" />
</g>
<g style="fill:#000000; fill-opacity:0.0; 
stroke:#000000; stroke-width:39.3701; stroke-opacity:1; 
stroke-linecap:round; stroke-linejoin:round;">
</g>
<g style="fill:#000000; fill-opacity:0.0; 
stroke:#000000; stroke-width:118.11; stroke-opacity:1; 
stroke-linecap:round; stroke-linejoin:round;">
<path d="M104022 76293
L103825 76012
" />
<path d="M103684 76293
L103684 75703
L103909 75703
L103965 75731
L103994 75759
L104022 75815
L104022 75899
L103994 75956
L103965 75984
L103909 76012
L103684 76012
" />
<path d="M104500 76265
L104444 76293
L104331 76293
L104275 76265
L104247 76209
L104247 75984
L104275 75928
L104331 75899
L104444 75899
L104500 75928
L104528 75984
L104528 76040
L104247 76096
" />
<path d="M104725 75899
L104865 76293
L105006 75899
" />
<path d="M105231 76237
L105259 76265
L105231 76293
L105203 76265
L105231 76237
L105231 76293
" />
<path d="M105231 75928
L105259 75956
L105231 75984
L105203 75956
L105231 75928
L105231 75984
" />
</g>
<g style="fill:#000000; fill-opacity:0.0; 
stroke:#000000; stroke-width:39.3701; stroke-opacity:1; 
stroke-linecap:round; stroke-linejoin:round;">
</g>
<g style="fill:#000000; fill-opacity:0.0; 
stroke:#000000; stroke-width:59.0551; stroke-opacity:1; 
stroke-linecap:round; stroke-linejoin:round;">
<path d="M70192 76265
L70276 76293
L70417 76293
L70473 76265
L70501 76237
L70529 76181
L70529 76124
L70501 76068
L70473 76040
L70417 76012
L70304 75984
L70248 75956
L70220 75928
L70192 75871
L70192 75815
L70220 75759
L70248 75731
L70304 75703
L70445 75703
L70529 75731
" />
<path d="M70782 76293
L70782 75899
" />
<path d="M70782 75703
L70754 75731
L70782 75759
L70810 75731
L70782 75703
L70782 75759
" />
<path d="M71007 75899
L71316 75899
L71007 76293
L71316 76293
" />
<path d="M71766 76265
L71710 76293
L71598 76293
L71541 76265
L71513 76209
L71513 75984
L71541 75928
L71598 75899
L71710 75899
L71766 75928
L71795 75984
L71795 76040
L71513 76096
" />
<path d="M72048 76237
L72076 76265
L72048 76293
L72019 76265
L72048 76237
L72048 76293
" />
<path d="M72048 75928
L72076 75956
L72048 75984
L72019 75956
L72048 75928
L72048 75984
" />
<path d="M72751 76124
L73032 76124
" />
<path d="M72694 76293
L72891 75703
L73088 76293
" />
<path d="M73538 75899
L73538 76293
" />
<path d="M73397 75674
L73257 76096
L73622 76096
" />
</g>
<g style="fill:#000000; fill-opacity:0.0; 
stroke:#000000; stroke-width:39.3701; stroke-opacity:1; 
stroke-linecap:round; stroke-linejoin:round;">
</g>
<g style="fill:#000000; fill-opacity:0.0; 
stroke:#000000; stroke-width:59.0551; stroke-opacity:1; 
stroke-linecap:round; stroke-linejoin:round;">
<path d="M103684 77395
L103684 76805
" />
<path d="M104219 77395
L104219 76805
" />
<path d="M104219 77367
L104162 77395
L104050 77395
L103994 77367
L103965 77339
L103937 77283
L103937 77114
L103965 77058
L103994 77030
L104050 77002
L104162 77002
L104219 77030
" />
<path d="M104500 77339
L104528 77367
L104500 77395
L104472 77367
L104500 77339
L104500 77395
" />
<path d="M104500 77030
L104528 77058
L104500 77086
L104472 77058
L104500 77030
L104500 77086
" />
<path d="M105540 77395
L105203 77395
" />
<path d="M105372 77395
L105372 76805
L105315 76889
L105259 76946
L105203 76974
" />
<path d="M106215 76777
L105709 77536
" />
<path d="M106721 77395
L106384 77395
" />
<path d="M106553 77395
L106553 76805
L106496 76889
L106440 76946
L106384 76974
" />
</g>
<g style="fill:#000000; fill-opacity:0.0; 
stroke:#000000; stroke-width:39.3701; stroke-opacity:1; 
stroke-linecap:round; stroke-linejoin:round;">
</g>
<g style="fill:#000000; fill-opacity:0.0; 
stroke:#000000; stroke-width:59.0551; stroke-opacity:1; 
stroke-linecap:round; stroke-linejoin:round;">
<path d="M69685 73821
L112205 73821
" />
</g>
<g style="fill:#000000; fill-opacity:0.0; 
stroke:#000000; stroke-width:39.3701; stroke-opacity:1; 
stroke-linecap:round; stroke-linejoin:round;">
</g>
<g style="fill:#000000; fill-opacity:0.0; 
stroke:#000000; stroke-width:157.48; stroke-opacity:1; 
stroke-linecap:round; stroke-linejoin:round;">
<path d="M70257 74099
L70707 74099
" />
<path d="M70384 74886
L70482 74099
" />
<path d="M70871 74886
L70937 74361
" />
<path d="M70970 74099
L70927 74136
L70960 74174
L71002 74136
L70970 74099
L70960 74174
" />
<path d="M71199 74361
L71499 74361
" />
<path d="M71345 74099
L71260 74774
L71288 74849
L71359 74886
L71434 74886
" />
<path d="M71809 74886
L71738 74849
L71710 74774
L71795 74099
" />
<path d="M72413 74849
L72334 74886
L72184 74886
L72113 74849
L72085 74774
L72123 74474
L72169 74399
L72249 74361
L72399 74361
L72469 74399
L72498 74474
L72488 74549
L72104 74624
" />
<path d="M72793 74811
L72826 74849
L72783 74886
L72751 74849
L72793 74811
L72783 74886
" />
<path d="M72844 74399
L72877 74436
L72835 74474
L72802 74436
L72844 74399
L72835 74474
" />
</g>
<g style="fill:#000000; fill-opacity:0.0; 
stroke:#000000; stroke-width:39.3701; stroke-opacity:1; 
stroke-linecap:round; stroke-linejoin:round;">
</g>
<g style="fill:#000000; fill-opacity:0.0; 
stroke:#000000; stroke-width:59.0551; stroke-opacity:1; 
stroke-linecap:round; stroke-linejoin:round;">
<path d="M70417 73070
L70220 73070
" />
<path d="M70220 73380
L70220 72789
L70501 72789
" />
<path d="M70726 73380
L70726 72986
" />
<path d="M70726 72789
L70698 72817
L70726 72845
L70754 72817
L70726 72789
L70726 72845
" />
<path d="M71091 73380
L71035 73352
L71007 73295
L71007 72789
" />
<path d="M71541 73352
L71485 73380
L71373 73380
L71316 73352
L71288 73295
L71288 73070
L71316 73014
L71373 72986
L71485 72986
L71541 73014
L71570 73070
L71570 73127
L71288 73183
" />
<path d="M71823 73323
L71851 73352
L71823 73380
L71795 73352
L71823 73323
L71823 73380
" />
<path d="M71823 73014
L71851 73042
L71823 73070
L71795 73042
L71823 73014
L71823 73070
" />
<path d="M72469 72789
L72807 72789
" />
<path d="M72638 73380
L72638 72789
" />
<path d="M73229 73352
L73172 73380
L73060 73380
L73004 73352
L72976 73295
L72976 73070
L73004 73014
L73060 72986
L73172 72986
L73229 73014
L73257 73070
L73257 73127
L72976 73183
" />
<path d="M73735 73352
L73679 73380
L73566 73380
L73510 73352
L73482 73295
L73482 73070
L73510 73014
L73566 72986
L73679 72986
L73735 73014
L73763 73070
L73763 73127
L73482 73183
" />
<path d="M74016 72986
L74016 73380
" />
<path d="M74016 73042
L74044 73014
L74100 72986
L74185 72986
L74241 73014
L74269 73070
L74269 73380
" />
<path d="M74522 73352
L74579 73380
L74691 73380
L74747 73352
L74775 73295
L74775 73267
L74747 73211
L74691 73183
L74607 73183
L74550 73155
L74522 73099
L74522 73070
L74550 73014
L74607 72986
L74691 72986
L74747 73014
" />
<path d="M74972 72986
L75113 73380
" />
<path d="M75253 72986
L75113 73380
L75057 73520
L75028 73548
L74972 73577
" />
<path d="M75478 73155
L75928 73155
" />
<path d="M76181 73352
L76266 73380
L76406 73380
L76463 73352
L76491 73323
L76519 73267
L76519 73211
L76491 73155
L76463 73127
L76406 73099
L76294 73070
L76238 73042
L76210 73014
L76181 72958
L76181 72902
L76210 72845
L76238 72817
L76294 72789
L76435 72789
L76519 72817
" />
<path d="M76772 73380
L76772 72789
" />
<path d="M77025 73380
L77025 73070
L76997 73014
L76941 72986
L76856 72986
L76800 73014
L76772 73042
" />
<path d="M77391 73380
L77334 73352
L77306 73323
L77278 73267
L77278 73099
L77306 73042
L77334 73014
L77391 72986
L77475 72986
L77531 73014
L77559 73042
L77588 73099
L77588 73267
L77559 73323
L77531 73352
L77475 73380
L77391 73380
" />
<path d="M77841 73380
L77841 72986
" />
<path d="M77841 73099
L77869 73042
L77897 73014
L77953 72986
L78009 72986
" />
<path d="M78459 73352
L78403 73380
L78291 73380
L78234 73352
L78206 73323
L78178 73267
L78178 73099
L78206 73042
L78234 73014
L78291 72986
L78403 72986
L78459 73014
" />
<path d="M78965 72986
L78965 73380
" />
<path d="M78712 72986
L78712 73295
L78741 73352
L78797 73380
L78881 73380
L78937 73352
L78965 73323
" />
<path d="M79162 72986
L79387 72986
" />
<path d="M79247 72789
L79247 73295
L79275 73352
L79331 73380
L79387 73380
" />
<path d="M79556 73352
L79612 73380
L79725 73380
L79781 73352
L79809 73295
L79809 73267
L79781 73211
L79725 73183
L79640 73183
L79584 73155
L79556 73099
L79556 73070
L79584 73014
L79640 72986
L79725 72986
L79781 73014
" />
<path d="M80062 73323
L80090 73352
L80062 73380
L80034 73352
L80062 73323
L80062 73380
" />
<path d="M80343 73380
L80343 72789
" />
<path d="M80400 73155
L80568 73380
" />
<path d="M80568 72986
L80343 73211
" />
<path d="M80822 73380
L80822 72986
" />
<path d="M80822 72789
L80793 72817
L80822 72845
L80850 72817
L80822 72789
L80822 72845
" />
<path d="M81356 73352
L81300 73380
L81187 73380
L81131 73352
L81103 73323
L81075 73267
L81075 73099
L81103 73042
L81131 73014
L81187 72986
L81300 72986
L81356 73014
" />
<path d="M81862 73380
L81862 73070
L81834 73014
L81778 72986
L81665 72986
L81609 73014
" />
<path d="M81862 73352
L81806 73380
L81665 73380
L81609 73352
L81581 73295
L81581 73239
L81609 73183
L81665 73155
L81806 73155
L81862 73127
" />
<path d="M82396 73380
L82396 72789
" />
<path d="M82396 73352
L82340 73380
L82228 73380
L82171 73352
L82143 73323
L82115 73267
L82115 73099
L82143 73042
L82171 73014
L82228 72986
L82340 72986
L82396 73014
" />
<path d="M82537 73436
L82987 73436
" />
<path d="M83127 72986
L83127 73577
" />
<path d="M83127 73014
L83184 72986
L83296 72986
L83352 73014
L83381 73042
L83409 73099
L83409 73267
L83381 73323
L83352 73352
L83296 73380
L83184 73380
L83127 73352
" />
<path d="M83915 73352
L83859 73380
L83746 73380
L83690 73352
L83662 73323
L83634 73267
L83634 73099
L83662 73042
L83690 73014
L83746 72986
L83859 72986
L83915 73014
" />
<path d="M84168 73380
L84168 72789
" />
<path d="M84168 73014
L84224 72986
L84337 72986
L84393 73014
L84421 73042
L84449 73099
L84449 73267
L84421 73323
L84393 73352
L84337 73380
L84224 73380
L84168 73352
" />
</g>
<g style="fill:#000000; fill-opacity:0.0; 
stroke:#000000; stroke-width:39.3701; stroke-opacity:1; 
stroke-linecap:round; stroke-linejoin:round;">
</g>
<g style="fill:#000000; fill-opacity:0.0; 
stroke:#000000; stroke-width:59.0551; stroke-opacity:1; 
stroke-linecap:round; stroke-linejoin:round;">
<path d="M69685 71459
L112205 71459
" />
</g>
<g style="fill:#000000; fill-opacity:0.0; 
stroke:#000000; stroke-width:39.3701; stroke-opacity:1; 
stroke-linecap:round; stroke-linejoin:round;">
</g>
<g style="fill:#000000; fill-opacity:0.0; 
stroke:#000000; stroke-width:59.0551; stroke-opacity:1; 
stroke-linecap:round; stroke-linejoin:round;">
<path d="M70192 72289
L70276 72317
L70417 72317
L70473 72289
L70501 72260
L70529 72204
L70529 72148
L70501 72092
L70473 72064
L70417 72036
L70304 72007
L70248 71979
L70220 71951
L70192 71895
L70192 71839
L70220 71782
L70248 71754
L70304 71726
L70445 71726
L70529 71754
" />
<path d="M70782 72317
L70782 71726
" />
<path d="M71035 72317
L71035 72007
L71007 71951
L70951 71923
L70867 71923
L70810 71951
L70782 71979
" />
<path d="M71541 72289
L71485 72317
L71373 72317
L71316 72289
L71288 72232
L71288 72007
L71316 71951
L71373 71923
L71485 71923
L71541 71951
L71570 72007
L71570 72064
L71288 72120
" />
<path d="M72048 72289
L71991 72317
L71879 72317
L71823 72289
L71795 72232
L71795 72007
L71823 71951
L71879 71923
L71991 71923
L72048 71951
L72076 72007
L72076 72064
L71795 72120
" />
<path d="M72244 71923
L72469 71923
" />
<path d="M72329 71726
L72329 72232
L72357 72289
L72413 72317
L72469 72317
" />
<path d="M72666 72260
L72694 72289
L72666 72317
L72638 72289
L72666 72260
L72666 72317
" />
<path d="M72666 71951
L72694 71979
L72666 72007
L72638 71979
L72666 71951
L72666 72007
" />
</g>
<g style="fill:#000000; fill-opacity:0.0; 
stroke:#000000; stroke-width:39.3701; stroke-opacity:1; 
stroke-linecap:round; stroke-linejoin:round;">
</g>
<g style="fill:#000000; fill-opacity:0.0; 
stroke:#000000; stroke-width:59.0551; stroke-opacity:1; 
stroke-linecap:round; stroke-linejoin:round;">
<path d="M77559 75396
L77559 76577
" />
</g>
<g style="fill:#000000; fill-opacity:0.0; 
stroke:#000000; stroke-width:39.3701; stroke-opacity:1; 
stroke-linecap:round; stroke-linejoin:round;">
</g>
<g style="fill:#000000; fill-opacity:0.0; 
stroke:#000000; stroke-width:59.0551; stroke-opacity:1; 
stroke-linecap:round; stroke-linejoin:round;">
<path d="M102756 75396
L102756 77955
" />
</g>
<g style="fill:#840084; fill-opacity:0.0; 
stroke:#840084; stroke-width:59.0551; stroke-opacity:1; 
stroke-linecap:round; stroke-linejoin:round;">
<path d="M40250 19250
L40250 31250
" />
<path d="M40250 31250
L44250 31250
" />
<path d="M44250 31250
L44250 19250
" />
<path d="M44250 19250
L40250 19250
" />
<path d="M76171 24900
L51171 24900
" />
<path d="M76368 30608
L76368 25096
" />
<path d="M51171 30805
L76171 30805
" />
<path d="M50974 25096
L50974 30608
" />
<path d="M51171 24900 A196 196 0.0 0 0 50975 25096 " />
<path d="M50974 30608 A197 197 0.0 0 0 51171 30805 " />
<path d="M76171 30805 A197 197 0.0 0 0 76368 30608 " />
<path d="M76368 25096 A197 197 0.0 0 0 76171 24899 " />
<path d="M78061 22892
L49242 22892
" />
<path d="M49242 22892
L49242 32892
" />
<path d="M49242 32892
L78061 32892
" />
<path d="M78061 32892
L78061 22892
" />
<circle cx="48888" cy="21750" r="984" /> 
<circle cx="48888" cy="33955" r="984" /> 
<circle cx="78415" cy="33955" r="985" /> 
<circle cx="78415" cy="21750" r="984" /> 
<path d="M79400 20766
L47904 20766
" />
<path d="M47904 20766
L47904 34939
" />
<path d="M47904 34939
L79400 34939
" />
<path d="M79400 34939
L79400 20766
" />
<path d="M57750 43500
L58250 43500
" />
<path d="M58250 43500
L58250 43000
" />
<path d="M58250 43000
L60750 43000
" />
<path d="M60750 43000
L61000 43000
" />
<path d="M61000 43000
L61000 43500
" />
<path d="M61000 43500
L61250 43500
" />
<path d="M61250 43500
L61000 43500
" />
<path d="M61000 43500
L61000 44000
" />
<path d="M61000 44000
L58250 44000
" />
<path d="M58250 44000
L58250 43500
" />
<path d="M49000 41000
L48500 41000
" />
<path d="M48500 41000
L48500 41500
" />
<path d="M48500 41500
L46000 41500
" />
<path d="M46000 41500
L45750 41500
" />
<path d="M45750 41500
L45750 41000
" />
<path d="M45750 41000
L45500 41000
" />
<path d="M45500 41000
L45750 41000
" />
<path d="M45750 41000
L45750 40500
" />
<path d="M45750 40500
L48500 40500
" />
<path d="M48500 40500
L48500 41000
" />
<path d="M57750 39750
L58250 39750
" />
<path d="M58250 39750
L58250 39250
" />
<path d="M58250 39250
L60750 39250
" />
<path d="M60750 39250
L61000 39250
" />
<path d="M61000 39250
L61000 39750
" />
<path d="M61000 39750
L61250 39750
" />
<path d="M61250 39750
L61000 39750
" />
<path d="M61000 39750
L61000 40250
" />
<path d="M61000 40250
L58250 40250
" />
<path d="M58250 40250
L58250 39750
" />
<path d="M49000 42750
L48500 42750
" />
<path d="M48500 42750
L48500 43250
" />
<path d="M48500 43250
L46000 43250
" />
<path d="M46000 43250
L45750 43250
" />
<path d="M45750 43250
L45750 42750
" />
<path d="M45750 42750
L45500 42750
" />
<path d="M45500 42750
L45750 42750
" />
<path d="M45750 42750
L45750 42250
" />
<path d="M45750 42250
L48500 42250
" />
<path d="M48500 42250
L48500 42750
" />
<path d="M57750 41750
L58250 41750
" />
<path d="M58250 41750
L58250 41250
" />
<path d="M58250 41250
L60750 41250
" />
<path d="M60750 41250
L61000 41250
" />
<path d="M61000 41250
L61000 41750
" />
<path d="M61000 41750
L61250 41750
" />
<path d="M61250 41750
L61000 41750
" />
<path d="M61000 41750
L61000 42250
" />
<path d="M61000 42250
L58250 42250
" />
<path d="M58250 42250
L58250 41750
" />
<path d="M49000 44750
L48500 44750
" />
<path d="M48500 44750
L48500 45250
" />
<path d="M48500 45250
L46000 45250
" />
<path d="M46000 45250
L45750 45250
" />
<path d="M45750 45250
L45750 44750
" />
<path d="M45750 44750
L45500 44750
" />
<path d="M45500 44750
L45750 44750
" />
<path d="M45750 44750
L45750 44250
" />
<path d="M45750 44250
L48500 44250
" />
<path d="M48500 44250
L48500 44750
" />
<path d="M39750 35250
L40000 35750
" />
<path d="M39750 37500
L39750 35250
" />
<path d="M39750 35250
L39500 35750
" />
<circle cx="39750" cy="36400" r="1555.64" /> 
<path d="M77500 37000
L77750 37500
" />
<path d="M77500 39250
L77500 37000
" />
<path d="M77500 37000
L77250 37500
" />
<circle cx="77500" cy="38150" r="1555.64" /> 
<path d="M52000 38500
L52000 41500
" />
<path d="M52000 41500
L51500 41500
" />
<path d="M51500 41500
L51500 38500
" />
<path d="M53000 38500
L50500 38500
" />
<path d="M50500 38500
L50500 41500
" />
<path d="M50500 41500
L53000 41500
" />
<path d="M53000 41500
L53000 38500
" />
<path d="M54750 41500
L54750 38500
" />
<path d="M54750 38500
L55250 38500
" />
<path d="M55250 38500
L55250 41500
" />
<path d="M53750 41500
L56250 41500
" />
<path d="M56250 41500
L56250 38500
" />
<path d="M56250 38500
L53750 38500
" />
<path d="M53750 38500
L53750 41500
" />
<path d="M52000 42250
L52000 45250
" />
<path d="M52000 45250
L51500 45250
" />
<path d="M51500 45250
L51500 42250
" />
<path d="M53000 42250
L50500 42250
" />
<path d="M50500 42250
L50500 45250
" />
<path d="M50500 45250
L53000 45250
" />
<path d="M53000 45250
L53000 42250
" />
<path d="M54750 45250
L54750 42250
" />
<path d="M54750 42250
L55250 42250
" />
<path d="M55250 42250
L55250 45250
" />
<path d="M53750 45250
L56250 45250
" />
<path d="M56250 45250
L56250 42250
" />
<path d="M56250 42250
L53750 42250
" />
<path d="M53750 42250
L53750 45250
" />
<path d="M52000 46000
L52000 49000
" />
<path d="M52000 49000
L51500 49000
" />
<path d="M51500 49000
L51500 46000
" />
<path d="M53000 46000
L50500 46000
" />
<path d="M50500 46000
L50500 49000
" />
<path d="M50500 49000
L53000 49000
" />
<path d="M53000 49000
L53000 46000
" />
<path d="M54750 49000
L54750 46000
" />
<path d="M54750 46000
L55250 46000
" />
<path d="M55250 46000
L55250 49000
" />
<path d="M53750 49000
L56250 49000
" />
<path d="M56250 49000
L56250 46000
" />
<path d="M56250 46000
L53750 46000
" />
<path d="M53750 46000
L53750 49000
" />
</g>
<g style="fill:#840000; fill-opacity:0.0; 
stroke:#840000; stroke-width:59.0551; stroke-opacity:1; 
stroke-linecap:round; stroke-linejoin:round;">
<path d="M42699 17926
L42699 18404
L42671 18460
L42643 18489
L42587 18517
L42474 18517
L42418 18489
L42390 18460
L42362 18404
L42362 17926
" />
<path d="M41771 18517
L42109 18517
" />
<path d="M41940 18517
L41940 17926
L41996 18010
L42053 18067
L42109 18095
" />
<path d="M77909 20511
L77909 20117
L77815 20117
L77759 20136
L77721 20173
L77702 20211
L77684 20286
L77684 20342
L77702 20417
L77721 20454
L77759 20492
L77815 20511
L77909 20511
" />
<path d="M77534 20492
L77477 20511
L77384 20511
L77346 20492
L77327 20473
L77309 20436
L77309 20398
L77327 20361
L77346 20342
L77384 20323
L77459 20304
L77496 20286
L77515 20267
L77534 20229
L77534 20192
L77515 20154
L77496 20136
L77459 20117
L77365 20117
L77309 20136
" />
<path d="M76934 20511
L77159 20511
" />
<path d="M77046 20511
L77046 20117
L77084 20173
L77121 20211
L77159 20229
" />
<path d="M59848 42767
L60045 42485
" />
<path d="M60185 42767
L60185 42176
L59960 42176
L59904 42204
L59876 42232
L59848 42289
L59848 42373
L59876 42429
L59904 42457
L59960 42485
L60185 42485
" />
<path d="M59285 42767
L59623 42767
" />
<path d="M59454 42767
L59454 42176
L59510 42260
L59567 42317
L59623 42345
" />
<path d="M47098 42267
L47295 41985
" />
<path d="M47435 42267
L47435 41676
L47210 41676
L47154 41704
L47126 41732
L47098 41789
L47098 41873
L47126 41929
L47154 41957
L47210 41985
L47435 41985
" />
<path d="M46873 41732
L46845 41704
L46789 41676
L46648 41676
L46592 41704
L46564 41732
L46535 41789
L46535 41845
L46564 41929
L46901 42267
L46535 42267
" />
<path d="M59848 39017
L60045 38735
" />
<path d="M60185 39017
L60185 38426
L59960 38426
L59904 38454
L59876 38482
L59848 38539
L59848 38623
L59876 38679
L59904 38707
L59960 38735
L60185 38735
" />
<path d="M59651 38426
L59285 38426
L59482 38651
L59398 38651
L59342 38679
L59314 38707
L59285 38764
L59285 38904
L59314 38960
L59342 38989
L59398 39017
L59567 39017
L59623 38989
L59651 38960
" />
<path d="M47098 44017
L47295 43735
" />
<path d="M47435 44017
L47435 43426
L47210 43426
L47154 43454
L47126 43482
L47098 43539
L47098 43623
L47126 43679
L47154 43707
L47210 43735
L47435 43735
" />
<path d="M46592 43623
L46592 44017
" />
<path d="M46732 43398
L46873 43820
L46507 43820
" />
<path d="M59848 41017
L60045 40735
" />
<path d="M60185 41017
L60185 40426
L59960 40426
L59904 40454
L59876 40482
L59848 40539
L59848 40623
L59876 40679
L59904 40707
L59960 40735
L60185 40735
" />
<path d="M59314 40426
L59595 40426
L59623 40707
L59595 40679
L59539 40651
L59398 40651
L59342 40679
L59314 40707
L59285 40764
L59285 40904
L59314 40960
L59342 40989
L59398 41017
L59539 41017
L59595 40989
L59623 40960
" />
<path d="M47098 46017
L47295 45735
" />
<path d="M47435 46017
L47435 45426
L47210 45426
L47154 45454
L47126 45482
L47098 45539
L47098 45623
L47126 45679
L47154 45707
L47210 45735
L47435 45735
" />
<path d="M46592 45426
L46704 45426
L46760 45454
L46789 45482
L46845 45567
L46873 45679
L46873 45904
L46845 45960
L46817 45989
L46760 46017
L46648 46017
L46592 45989
L46564 45960
L46535 45904
L46535 45764
L46564 45707
L46592 45679
L46648 45651
L46760 45651
L46817 45679
L46845 45707
L46873 45764
" />
<path d="M45601 29767
L45798 29485
" />
<path d="M45938 29767
L45938 29176
L45714 29176
L45657 29204
L45629 29232
L45601 29289
L45601 29373
L45629 29429
L45657 29457
L45714 29485
L45938 29485
" />
<path d="M45432 29176
L45235 29767
L45039 29176
" />
<path d="M44532 29767
L44870 29767
" />
<path d="M44701 29767
L44701 29176
L44757 29260
L44814 29317
L44870 29345
" />
<path d="M83351 31517
L83548 31235
" />
<path d="M83688 31517
L83688 30926
L83464 30926
L83407 30954
L83379 30982
L83351 31039
L83351 31123
L83379 31179
L83407 31207
L83464 31235
L83688 31235
" />
<path d="M83182 30926
L82985 31517
L82789 30926
" />
<path d="M82620 30982
L82592 30954
L82535 30926
L82395 30926
L82339 30954
L82311 30982
L82282 31039
L82282 31095
L82311 31179
L82648 31517
L82282 31517
" />
<path d="M53287 42739
L53203 42767
L53062 42767
L53006 42739
L52978 42710
L52949 42654
L52949 42598
L52978 42542
L53006 42514
L53062 42485
L53174 42457
L53231 42429
L53259 42401
L53287 42345
L53287 42289
L53259 42232
L53231 42204
L53174 42176
L53034 42176
L52949 42204
" />
<path d="M52753 42176
L52612 42767
L52500 42345
L52387 42767
L52246 42176
" />
<path d="M51712 42767
L52050 42767
" />
<path d="M51881 42767
L51881 42176
L51937 42260
L51993 42317
L52050 42345
" />
<path d="M55037 37739
L54953 37767
L54812 37767
L54756 37739
L54728 37710
L54699 37654
L54699 37598
L54728 37542
L54756 37514
L54812 37485
L54924 37457
L54981 37429
L55009 37401
L55037 37345
L55037 37289
L55009 37232
L54981 37204
L54924 37176
L54784 37176
L54699 37204
" />
<path d="M54503 37176
L54362 37767
L54250 37345
L54137 37767
L53996 37176
" />
<path d="M53800 37232
L53771 37204
L53715 37176
L53575 37176
L53518 37204
L53490 37232
L53462 37289
L53462 37345
L53490 37429
L53828 37767
L53462 37767
" />
<path d="M53287 46489
L53203 46517
L53062 46517
L53006 46489
L52978 46460
L52949 46404
L52949 46348
L52978 46292
L53006 46264
L53062 46235
L53174 46207
L53231 46179
L53259 46151
L53287 46095
L53287 46039
L53259 45982
L53231 45954
L53174 45926
L53034 45926
L52949 45954
" />
<path d="M52753 45926
L52612 46517
L52500 46095
L52387 46517
L52246 45926
" />
<path d="M52078 45926
L51712 45926
L51909 46151
L51825 46151
L51768 46179
L51740 46207
L51712 46264
L51712 46404
L51740 46460
L51768 46489
L51825 46517
L51993 46517
L52050 46489
L52078 46460
" />
<path d="M55037 41489
L54953 41517
L54812 41517
L54756 41489
L54728 41460
L54699 41404
L54699 41348
L54728 41292
L54756 41264
L54812 41235
L54924 41207
L54981 41179
L55009 41151
L55037 41095
L55037 41039
L55009 40982
L54981 40954
L54924 40926
L54784 40926
L54699 40954
" />
<path d="M54503 40926
L54362 41517
L54250 41095
L54137 41517
L53996 40926
" />
<path d="M53518 41123
L53518 41517
" />
<path d="M53659 40898
L53800 41320
L53434 41320
" />
<path d="M53287 50239
L53203 50267
L53062 50267
L53006 50239
L52978 50210
L52949 50154
L52949 50098
L52978 50042
L53006 50014
L53062 49985
L53174 49957
L53231 49929
L53259 49901
L53287 49845
L53287 49789
L53259 49732
L53231 49704
L53174 49676
L53034 49676
L52949 49704
" />
<path d="M52753 49676
L52612 50267
L52500 49845
L52387 50267
L52246 49676
" />
<path d="M51740 49676
L52021 49676
L52050 49957
L52021 49929
L51965 49901
L51825 49901
L51768 49929
L51740 49957
L51712 50014
L51712 50154
L51740 50210
L51768 50239
L51825 50267
L51965 50267
L52021 50239
L52050 50210
" />
<path d="M55037 45239
L54953 45267
L54812 45267
L54756 45239
L54728 45210
L54699 45154
L54699 45098
L54728 45042
L54756 45014
L54812 44985
L54924 44957
L54981 44929
L55009 44901
L55037 44845
L55037 44789
L55009 44732
L54981 44704
L54924 44676
L54784 44676
L54699 44704
" />
<path d="M54503 44676
L54362 45267
L54250 44845
L54137 45267
L53996 44676
" />
<path d="M53518 44676
L53631 44676
L53687 44704
L53715 44732
L53771 44817
L53800 44929
L53800 45154
L53771 45210
L53743 45239
L53687 45267
L53575 45267
L53518 45239
L53490 45210
L53462 45154
L53462 45014
L53490 44957
L53518 44929
L53575 44901
L53687 44901
L53743 44929
L53771 44957
L53800 45014
" />
<path d="M57935 49767
L57935 49176
L57710 49176
L57654 49204
L57626 49232
L57598 49289
L57598 49373
L57626 49429
L57654 49457
L57710 49485
L57935 49485
" />
<path d="M57035 49767
L57373 49767
" />
<path d="M57204 49767
L57204 49176
L57260 49260
L57317 49317
L57373 49345
" />
<path d="M57935 53517
L57935 52926
L57710 52926
L57654 52954
L57626 52982
L57598 53039
L57598 53123
L57626 53179
L57654 53207
L57710 53235
L57935 53235
" />
<path d="M57373 52982
L57345 52954
L57289 52926
L57148 52926
L57092 52954
L57064 52982
L57035 53039
L57035 53095
L57064 53179
L57401 53517
L57035 53517
" />
<path d="M68685 26517
L68685 25926
L68460 25926
L68404 25954
L68376 25982
L68348 26039
L68348 26123
L68376 26179
L68404 26207
L68460 26235
L68685 26235
" />
<path d="M68151 25926
L67785 25926
L67982 26151
L67898 26151
L67842 26179
L67814 26207
L67785 26264
L67785 26404
L67814 26460
L67842 26489
L67898 26517
L68067 26517
L68123 26489
L68151 26460
" />
<path d="M73185 26517
L73185 25926
L72960 25926
L72904 25954
L72876 25982
L72848 26039
L72848 26123
L72876 26179
L72904 26207
L72960 26235
L73185 26235
" />
<path d="M72342 26123
L72342 26517
" />
<path d="M72482 25898
L72623 26320
L72257 26320
" />
</g>
<g style="fill:#840000; fill-opacity:0.0; 
stroke:#840000; stroke-width:39.3701; stroke-opacity:1; 
stroke-linecap:round; stroke-linejoin:round;">
</g>
<g style="fill:#840000; fill-opacity:1.0; 
stroke:#840000; stroke-width:39.3701; stroke-opacity:1; 
stroke-linecap:round; stroke-linejoin:round;">
<circle cx="45250" cy="20250" r="354.331" /> 
<circle cx="45250" cy="21250" r="354.331" /> 
<circle cx="45250" cy="22250" r="354.331" /> 
<circle cx="45250" cy="23250" r="354.331" /> 
<circle cx="45250" cy="24250" r="354.331" /> 
<circle cx="45250" cy="25250" r="354.331" /> 
<circle cx="45250" cy="26250" r="354.331" /> 
<circle cx="45250" cy="27250" r="354.331" /> 
<circle cx="45250" cy="28250" r="354.331" /> 
<circle cx="45250" cy="29250" r="354.331" /> 
<circle cx="45250" cy="30250" r="354.331" /> 
<circle cx="45250" cy="31250" r="354.331" /> 
<circle cx="45250" cy="32250" r="354.331" /> 
<circle cx="39250" cy="32250" r="354.331" /> 
<circle cx="39250" cy="31250" r="354.331" /> 
<circle cx="39250" cy="30250" r="354.331" /> 
<circle cx="39250" cy="29250" r="354.331" /> 
<circle cx="39250" cy="28250" r="354.331" /> 
<circle cx="39250" cy="27250" r="354.331" /> 
<circle cx="39250" cy="26250" r="354.331" /> 
<circle cx="39250" cy="25250" r="354.331" /> 
<circle cx="39250" cy="24250" r="354.331" /> 
<circle cx="39250" cy="23250" r="354.331" /> 
<circle cx="39250" cy="22250" r="354.331" /> 
<circle cx="39250" cy="21250" r="354.331" /> 
<circle cx="39250" cy="20250" r="354.331" /> 
<circle cx="39250" cy="19250" r="354.331" /> 
<circle cx="45250" cy="19250" r="354.331" /> 
</g>
<g style="fill:#840000; fill-opacity:1.0; 
stroke:#840000; stroke-width:708.661; stroke-opacity:1; 
stroke-linecap:round; stroke-linejoin:round;">
</g>
<g style="fill:#840000; fill-opacity:0.0; 
stroke:#840000; stroke-width:708.661; stroke-opacity:1; 
stroke-linecap:round; stroke-linejoin:round;">
<path d="M76250 21907
L76250 21592
" />
<path d="M75250 21907
L75250 21592
" />
<path d="M74250 21907
L74250 21592
" />
<path d="M73250 21907
L73250 21592
" />
<path d="M72250 21907
L72250 21592
" />
<path d="M71250 21907
L71250 21592
" />
<path d="M70250 21907
L70250 21592
" />
<path d="M69250 21907
L69250 21592
" />
<path d="M68250 21907
L68250 21592
" />
<path d="M67250 21907
L67250 21592
" />
<path d="M66250 21907
L66250 21592
" />
<path d="M65250 21907
L65250 21592
" />
<path d="M64250 21907
L64250 21592
" />
<path d="M63250 21907
L63250 21592
" />
<path d="M62250 21907
L62250 21592
" />
<path d="M61250 21907
L61250 21592
" />
</g>
<g style="fill:#840000; fill-opacity:0.0; 
stroke:#840000; stroke-width:39.3701; stroke-opacity:1; 
stroke-linecap:round; stroke-linejoin:round;">
</g>
<g style="fill:#840000; fill-opacity:1.0; 
stroke:#840000; stroke-width:39.3701; stroke-opacity:1; 
stroke-linecap:round; stroke-linejoin:round;">
<circle cx="78415" cy="21750" r="570.866" /> 
<circle cx="78415" cy="33955" r="570.866" /> 
<circle cx="48888" cy="33955" r="570.866" /> 
<circle cx="48888" cy="21750" r="570.866" /> 
<circle cx="61500" cy="43500" r="354.331" /> 
<circle cx="57563" cy="43500" r="354.331" /> 
<circle cx="45250" cy="41000" r="354.331" /> 
<circle cx="49187" cy="41000" r="354.331" /> 
<circle cx="61500" cy="39750" r="354.331" /> 
<circle cx="57563" cy="39750" r="354.331" /> 
<circle cx="45250" cy="42750" r="354.331" /> 
<circle cx="49187" cy="42750" r="354.331" /> 
<circle cx="61500" cy="41750" r="354.331" /> 
<circle cx="57563" cy="41750" r="354.331" /> 
<circle cx="45250" cy="44750" r="354.331" /> 
<circle cx="49187" cy="44750" r="354.331" /> 
<circle cx="40750" cy="38000" r="354.331" /> 
<circle cx="38750" cy="38000" r="354.331" /> 
<circle cx="39750" cy="34500" r="354.331" /> 
<circle cx="78500" cy="39750" r="354.331" /> 
<circle cx="76500" cy="39750" r="354.331" /> 
<circle cx="77500" cy="36250" r="354.331" /> 
<circle cx="52500" cy="39000" r="354.331" /> 
<circle cx="51000" cy="39000" r="354.331" /> 
<circle cx="52500" cy="41000" r="354.331" /> 
<circle cx="51000" cy="41000" r="354.331" /> 
<circle cx="54250" cy="41000" r="354.331" /> 
<circle cx="55750" cy="41000" r="354.331" /> 
<circle cx="54250" cy="39000" r="354.331" /> 
<circle cx="55750" cy="39000" r="354.331" /> 
<circle cx="52500" cy="42750" r="354.331" /> 
<circle cx="51000" cy="42750" r="354.331" /> 
<circle cx="52500" cy="44750" r="354.331" /> 
<circle cx="51000" cy="44750" r="354.331" /> 
<circle cx="54250" cy="44750" r="354.331" /> 
<circle cx="55750" cy="44750" r="354.331" /> 
<circle cx="54250" cy="42750" r="354.331" /> 
<circle cx="55750" cy="42750" r="354.331" /> 
<circle cx="52500" cy="46500" r="354.331" /> 
<circle cx="51000" cy="46500" r="354.331" /> 
<circle cx="52500" cy="48500" r="354.331" /> 
<circle cx="51000" cy="48500" r="354.331" /> 
<circle cx="54250" cy="48500" r="354.331" /> 
<circle cx="55750" cy="48500" r="354.331" /> 
<circle cx="54250" cy="46500" r="354.331" /> 
<circle cx="55750" cy="46500" r="354.331" /> 
<circle cx="61500" cy="47500" r="354.331" /> 
<circle cx="61500" cy="51250" r="354.331" /> 
<circle cx="72250" cy="24250" r="354.331" /> 
<circle cx="76750" cy="24250" r="354.331" /> 
</g>
<g style="fill:#840000; fill-opacity:1.0; 
stroke:#840000; stroke-width:500; stroke-opacity:1; 
stroke-linecap:round; stroke-linejoin:round;">
</g>
<g style="fill:#840000; fill-opacity:0.0; 
stroke:#840000; stroke-width:500; stroke-opacity:1; 
stroke-linecap:round; stroke-linejoin:round;">
<path d="M52500 49250
L52500 48500
" />
<path d="M52250 49500
L52500 49250
" />
<path d="M40750 38000
L40750 46500
" />
<path d="M43750 49500
L52250 49500
" />
<path d="M40750 46500
L43750 49500
" />
<path d="M54250 48500
L54250 46500
" />
<path d="M52500 48500
L54250 48500
" />
<path d="M52500 46500
L52500 48500
" />
<path d="M54250 46500
L52500 46500
" />
<path d="M52500 44750
L52500 46500
" />
<path d="M75250 20500
L74750 20000
" />
<path d="M74750 20000
L63000 20000
" />
<path d="M63000 20000
L62250 20750
" />
<path d="M62250 20750
L62250 21750
" />
<path d="M75250 21750
L75250 20500
" />
<path d="M79500 39750
L78500 39750
" />
<path d="M80750 38500
L79500 39750
" />
<path d="M80750 32500
L80750 38500
" />
<path d="M75250 27000
L80750 32500
" />
<path d="M75250 21750
L75250 27000
" />
<path d="M54250 46500
L54250 44750
" />
<path d="M54250 42750
L54250 44750
" />
<path d="M54250 42750
L54250 41000
" />
<path d="M54250 41000
L54250 39000
" />
<path d="M52500 39000
L52500 41000
" />
<path d="M52500 41000
L52500 42750
" />
<path d="M52500 42750
L52500 44750
" />
<path d="M54250 44750
L52500 44750
" />
<path d="M54250 42750
L52500 42750
" />
<path d="M54250 41000
L52500 41000
" />
<path d="M54250 39000
L52500 39000
" />
<path d="M75700 49500
L78500 46700
" />
<path d="M78500 46700
L78500 39750
" />
<path d="M54800 49500
L75700 49500
" />
<path d="M54000 49500
L54800 49500
" />
<path d="M53200 49500
L54000 49500
" />
<path d="M52250 49500
L53200 49500
" />
<path d="M54250 48950
L53700 49500
" />
<path d="M53700 49500
L53800 49500
" />
<path d="M53800 49500
L54000 49300
" />
<path d="M54000 49300
L54000 49500
" />
<path d="M54250 48950
L54800 49500
" />
<path d="M54250 48500
L54250 48950
" />
<path d="M52500 48800
L53200 49500
" />
<path d="M52500 48500
L52500 48800
" />
</g>
<g style="fill:#840000; fill-opacity:0.0; 
stroke:#840000; stroke-width:300; stroke-opacity:1; 
stroke-linecap:round; stroke-linejoin:round;">
<path d="M76500 36250
L74250 34000
" />
<path d="M74250 34000
L74250 21750
" />
<path d="M77500 36250
L76500 36250
" />
<path d="M68000 32250
L73250 27000
" />
<path d="M73250 27000
L73250 21750
" />
<path d="M45250 32250
L68000 32250
" />
<path d="M71250 27750
L67750 31250
" />
<path d="M67750 31250
L45250 31250
" />
<path d="M71250 21750
L71250 27750
" />
<path d="M64000 30250
L66250 28000
" />
<path d="M66250 28000
L66250 21750
" />
<path d="M45250 30250
L64000 30250
" />
<path d="M65250 27500
L63500 29250
" />
<path d="M63500 29250
L45250 29250
" />
<path d="M65250 21750
L65250 27500
" />
<path d="M61750 28250
L64250 25750
" />
<path d="M64250 25750
L64250 21750
" />
<path d="M45250 28250
L61750 28250
" />
<path d="M63250 25000
L61000 27250
" />
<path d="M61000 27250
L45250 27250
" />
<path d="M63250 21750
L63250 25000
" />
<path d="M39750 34500
L40000 34500
" />
<path d="M40000 34500
L41000 33500
" />
<path d="M41000 33500
L41000 31000
" />
<path d="M41000 31000
L40250 30250
" />
<path d="M40250 30250
L39250 30250
" />
<path d="M55750 48500
L55750 46500
" />
<path d="M57562 43500
L59600 43500
" />
<path d="M60600 42500
L60600 37500
" />
<path d="M59600 43500
L60600 42500
" />
<path d="M57562 43500
L57562 46187
" />
<path d="M57250 46500
L55750 46500
" />
<path d="M57562 46187
L57250 46500
" />
<path d="M44400 25250
L44000 25650
" />
<path d="M44000 25650
L44000 34100
" />
<path d="M44000 34100
L46400 36500
" />
<path d="M46400 36500
L59600 36500
" />
<path d="M59600 36500
L60600 37500
" />
<path d="M45250 25250
L44400 25250
" />
<path d="M51000 39000
L49937 39000
" />
<path d="M51000 39000
L51000 41000
" />
<path d="M41150 27250
L42200 28300
" />
<path d="M42200 28300
L42200 35100
" />
<path d="M42200 35100
L45500 38400
" />
<path d="M45500 38400
L49337 38400
" />
<path d="M49337 38400
L49937 39000
" />
<path d="M39250 27250
L41150 27250
" />
<path d="M51000 41000
L49187 41000
" />
<path d="M55750 39000
L55750 38250
" />
<path d="M43950 22250
L45250 22250
" />
<path d="M42800 23400
L43950 22250
" />
<path d="M42800 34700
L42800 23400
" />
<path d="M45800 37700
L42800 34700
" />
<path d="M55200 37700
L45800 37700
" />
<path d="M55750 38250
L55200 37700
" />
<path d="M55750 41000
L55750 39000
" />
<path d="M55750 39000
L56812 39000
" />
<path d="M56812 39000
L57562 39750
" />
<path d="M51000 44750
L51000 42750
" />
<path d="M49187 42750
L51000 42750
" />
<path d="M41099 28250
L41600 28750
" />
<path d="M41600 28750
L41600 35400
" />
<path d="M41600 35400
L45200 39000
" />
<path d="M45200 39000
L47200 39000
" />
<path d="M47200 39000
L48100 39900
" />
<path d="M48100 39900
L48100 42500
" />
<path d="M48100 42500
L48350 42750
" />
<path d="M48350 42750
L49187 42750
" />
<path d="M39250 28250
L41099 28250
" />
<path d="M45250 24250
L43850 24250
" />
<path d="M59100 37100
L60049 38049
" />
<path d="M46200 37100
L59100 37100
" />
<path d="M43400 34300
L46200 37100
" />
<path d="M43400 24700
L43400 34300
" />
<path d="M43850 24250
L43400 24700
" />
<path d="M57562 41750
L58950 41750
" />
<path d="M60049 40650
L60049 38049
" />
<path d="M58950 41750
L60049 40650
" />
<path d="M55750 44750
L55750 42750
" />
<path d="M55750 42750
L56562 42750
" />
<path d="M56562 42750
L57562 41750
" />
<path d="M50000 46500
L51000 46500
" />
<path d="M51000 48500
L51000 46500
" />
<path d="M49187 45687
L50000 46500
" />
<path d="M49187 44750
L49187 45687
" />
<path d="M48000 44750
L47250 44000
" />
<path d="M47250 44000
L47250 40250
" />
<path d="M47250 40250
L46750 39750
" />
<path d="M46750 39750
L44750 39750
" />
<path d="M44750 39750
L40750 35750
" />
<path d="M40750 35750
L38500 35750
" />
<path d="M38500 35750
L38000 35250
" />
<path d="M38000 35250
L38000 29500
" />
<path d="M38000 29500
L38250 29250
" />
<path d="M38250 29250
L39250 29250
" />
<path d="M49187 44750
L48000 44750
" />
</g>
<g style="fill:#840000; fill-opacity:1.0; 
stroke:#840000; stroke-width:100; stroke-opacity:1; 
stroke-linecap:round; stroke-linejoin:round;">
<polyline style="fill-rule:evenodd;"
points="74700,21105
74500,20972
74250,20922
73999,20972
73787,21113
73750,21169
73712,21113
73500,20972
73250,20922
72999,20972
72787,21113
72715,21221
72641,21129
72435,21015
72393,21005
72300,21053
72300,21700
72307,21700
72307,21800
72300,21800
72300,22446
72393,22494
72435,22484
72641,22370
72715,22278
72787,22386
72800,22394
72800,23935
72792,23917
72689,23881
72618,23951
72618,23810
72582,23707
72349,23621
72101,23631
71917,23707
71881,23810
72250,24179
72618,23810
72618,23951
72320,24250
72689,24618
72792,24582
72800,24562
72800,26813
72618,26994
72618,24689
72250,24320
71881,24689
71917,24792
72150,24878
72398,24868
72582,24792
72618,24689
72618,26994
71614,27999
71665,27922
71700,27750
71700,24564
71707,24582
71810,24618
72179,24250
71810,23881
71707,23917
71700,23937
71700,22394
71712,22386
71784,22278
71858,22370
72064,22484
72106,22494
72200,22446
72200,21800
72192,21800
72192,21700
72200,21700
72200,21053
72106,21005
72064,21015
71858,21129
71784,21221
71712,21113
71500,20972
71250,20922
70999,20972
70787,21113
70750,21169
70712,21113
70500,20972
70250,20922
69999,20972
69787,21113
69750,21169
69712,21113
69500,20972
69250,20922
68999,20972
68787,21113
68750,21169
68712,21113
68500,20972
68250,20922
67999,20972
67787,21113
67750,21169
67712,21113
67500,20972
67250,20922
66999,20972
66787,21113
66750,21169
66712,21113
66500,20972
66250,20922
65999,20972
65787,21113
65750,21169
65712,21113
65500,20972
65250,20922
64999,20972
64787,21113
64750,21169
64712,21113
64500,20972
64250,20922
63999,20972
63787,21113
63750,21169
63712,21113
63500,20972
63250,20922
62999,20972
62800,21105
62800,20977
63227,20550
74522,20550
74700,20727
74700,21105
" /> 
<polyline style="fill-rule:evenodd;"
points="80200,38272
79305,39166
79305,33778
79170,33451
78920,33200
78592,33064
78238,33064
77911,33199
77660,33449
77524,33777
77524,34131
77659,34458
77909,34709
78237,34845
78591,34845
78918,34710
79169,34460
79305,34132
79305,33778
79305,39166
79272,39200
78903,39200
78882,39178
78634,39076
78366,39075
78118,39178
77928,39367
77826,39615
77825,39883
77928,40131
77950,40153
77950,46472
77128,47293
77128,39849
77118,39601
77042,39417
76939,39381
76868,39451
76868,39310
76832,39207
76599,39121
76351,39131
76167,39207
76131,39310
76500,39679
76868,39310
76868,39451
76570,39750
76939,40118
77042,40082
77128,39849
77128,47293
76868,47553
76868,40189
76500,39820
76429,39891
76429,39750
76060,39381
75957,39417
75871,39650
75881,39898
75957,40082
76060,40118
76429,39750
76429,39891
76131,40189
76167,40292
76400,40378
76648,40368
76832,40292
76868,40189
76868,47553
75472,48950
62128,48950
62128,47599
62128,43599
62128,41849
62128,39849
62118,39601
62042,39417
61939,39381
61868,39451
61868,39310
61832,39207
61599,39121
61351,39131
61167,39207
61131,39310
61500,39679
61868,39310
61868,39451
61570,39750
61939,40118
62042,40082
62128,39849
62128,41849
62118,41601
62042,41417
61939,41381
61868,41451
61868,41310
61868,40189
61500,39820
61131,40189
61167,40292
61400,40378
61648,40368
61832,40292
61868,40189
61868,41310
61832,41207
61599,41121
61351,41131
61167,41207
61131,41310
61500,41679
61868,41310
61868,41451
61570,41750
61939,42118
62042,42082
62128,41849
62128,43599
62118,43351
62042,43167
61939,43131
61868,43201
61868,43060
61868,42189
61500,41820
61131,42189
61167,42292
61400,42378
61648,42368
61832,42292
61868,42189
61868,43060
61832,42957
61599,42871
61351,42881
61167,42957
61131,43060
61500,43429
61868,43060
61868,43201
61570,43500
61939,43868
62042,43832
62128,43599
62128,47599
62118,47351
62042,47167
61939,47131
61868,47201
61868,47060
61868,43939
61500,43570
61429,43641
61429,43500
61060,43131
60957,43167
60871,43400
60881,43648
60957,43832
61060,43868
61429,43500
61429,43641
61131,43939
61167,44042
61400,44128
61648,44118
61832,44042
61868,43939
61868,47060
61832,46957
61599,46871
61351,46881
61167,46957
61131,47060
61500,47429
61868,47060
61868,47201
61570,47500
61939,47868
62042,47832
62128,47599
62128,48950
61868,48950
61868,47939
61500,47570
61429,47641
61429,47500
61060,47131
60957,47167
60871,47400
60881,47648
60957,47832
61060,47868
61429,47500
61429,47641
61131,47939
61167,48042
61400,48128
61648,48118
61832,48042
61868,47939
61868,48950
56253,48950
56321,48882
56423,48634
56424,48366
56321,48118
56200,47996
56200,47003
56253,46950
57250,46950
57422,46915
57568,46818
57881,46505
57978,46359
58012,46187
58012,44003
58066,43950
59600,43950
59772,43915
59918,43818
60918,42818
61015,42672
61050,42500
61050,42115
61060,42118
61429,41750
61060,41381
61050,41384
61050,40115
61060,40118
61429,39750
61060,39381
61050,39384
61050,37500
61015,37327
60918,37181
59918,36181
59772,36084
59600,36050
49778,36050
49778,33778
49643,33451
49393,33200
49065,33064
48711,33064
48384,33199
48133,33449
47997,33777
47997,34131
48132,34458
48382,34709
48710,34845
49064,34845
49391,34710
49642,34460
49778,34132
49778,33778
49778,36050
46586,36050
44450,33913
44450,25836
44586,25700
44746,25700
44796,25750
44678,25867
44576,26115
44575,26383
44678,26631
44796,26750
44678,26867
44576,27115
44575,27383
44678,27631
44796,27750
44678,27867
44576,28115
44575,28383
44678,28631
44796,28750
44678,28867
44576,29115
44575,29383
44678,29631
44796,29750
44678,29867
44576,30115
44575,30383
44678,30631
44796,30750
44678,30867
44576,31115
44575,31383
44678,31631
44796,31750
44678,31867
44576,32115
44575,32383
44678,32631
44867,32821
45115,32923
45383,32924
45631,32821
45753,32700
68000,32700
68172,32665
68318,32568
73568,27318
73665,27172
73700,27000
73700,22394
73712,22386
73750,22330
73787,22386
73800,22394
73800,34000
73834,34172
73931,34318
76181,36568
76327,36665
76500,36700
76996,36700
77117,36821
77365,36923
77633,36924
77881,36821
78071,36632
78173,36384
78174,36116
78071,35868
77882,35678
77634,35576
77366,35575
77118,35678
76996,35800
76686,35800
74700,33813
74700,27000
74741,27210
74861,27388
80200,32727
80200,38272
" /> 
<polyline style="fill-rule:evenodd;"
points="82700,52700
81300,52700
81300,38500
81300,32500
81258,32289
81138,32111
81138,32111
79305,30277
79305,21573
79170,21246
78920,20995
78592,20859
78238,20859
77911,20994
77660,21244
77524,21572
77524,21926
77659,22253
77909,22504
78237,22640
78591,22640
78918,22505
79169,22255
79305,21927
79305,21573
79305,30277
77378,28350
77378,24349
77368,24101
77292,23917
77189,23881
77118,23951
77118,23810
77082,23707
76854,23623
76854,21957
76854,21800
76854,21700
76854,21542
76789,21315
76641,21129
76435,21015
76393,21005
76300,21053
76300,21700
76854,21700
76854,21800
76300,21800
76300,22446
76393,22494
76435,22484
76641,22370
76789,22184
76854,21957
76854,23623
76849,23621
76601,23631
76417,23707
76381,23810
76750,24179
77118,23810
77118,23951
76820,24250
77189,24618
77292,24582
77378,24349
77378,28350
77118,28090
77118,24689
76750,24320
76679,24391
76679,24250
76310,23881
76207,23917
76121,24150
76131,24398
76207,24582
76310,24618
76679,24250
76679,24391
76381,24689
76417,24792
76650,24878
76898,24868
77082,24792
77118,24689
77118,28090
75800,26772
75800,22297
75858,22370
76064,22484
76106,22494
76200,22446
76200,21800
76192,21800
76192,21700
76200,21700
76200,21053
76106,21005
76064,21015
75858,21129
75800,21202
75800,20500
75758,20289
75638,20111
75138,19611
74960,19491
74750,19450
63000,19450
62789,19491
62611,19611
61861,20361
61741,20539
61700,20750
61700,21202
61641,21129
61435,21015
61393,21005
61300,21053
61300,21700
61307,21700
61307,21800
61300,21800
61300,22446
61393,22494
61435,22484
61641,22370
61715,22278
61787,22386
61999,22527
62250,22577
62500,22527
62712,22386
62750,22330
62787,22386
62800,22394
62800,24813
61200,26413
61200,22446
61200,21800
61200,21700
61200,21053
61106,21005
61064,21015
60858,21129
60710,21315
60645,21542
60645,21700
61200,21700
61200,21800
60645,21800
60645,21957
60710,22184
60858,22370
61064,22484
61106,22494
61200,22446
61200,26413
60813,26800
49778,26800
49778,21573
49643,21246
49393,20995
49065,20859
48711,20859
48384,20994
48133,21244
47997,21572
47997,21926
48132,22253
48382,22504
48710,22640
49064,22640
49391,22505
49642,22255
49778,21927
49778,21573
49778,26800
45753,26800
45703,26749
45821,26632
45923,26384
45924,26116
45821,25868
45703,25749
45821,25632
45923,25384
45924,25116
45821,24868
45703,24749
45821,24632
45923,24384
45924,24116
45821,23868
45703,23749
45821,23632
45923,23384
45924,23116
45821,22868
45703,22749
45821,22632
45923,22384
45924,22116
45821,21868
45703,21749
45821,21632
45923,21384
45924,21116
45821,20868
45703,20749
45821,20632
45923,20384
45924,20116
45878,20005
45878,19349
45868,19101
45792,18917
45689,18881
45618,18951
45618,18810
45582,18707
45349,18621
45101,18631
44917,18707
44881,18810
45250,19179
45618,18810
45618,18951
45320,19250
45689,19618
45792,19582
45878,19349
45878,20005
45821,19868
45632,19678
45591,19661
45250,19320
45179,19391
45179,19250
44810,18881
44707,18917
44621,19150
44631,19398
44707,19582
44810,19618
45179,19250
45179,19391
44909,19661
44868,19678
44678,19867
44576,20115
44575,20383
44678,20631
44796,20750
44678,20867
44576,21115
44575,21383
44678,21631
44796,21750
44746,21800
43950,21800
43777,21834
43631,21931
42481,23081
42384,23227
42350,23400
42350,27813
41468,26931
41322,26834
41150,26800
39753,26800
39703,26749
39821,26632
39923,26384
39924,26116
39821,25868
39703,25749
39821,25632
39923,25384
39924,25116
39821,24868
39703,24749
39821,24632
39923,24384
39924,24116
39821,23868
39703,23749
39821,23632
39923,23384
39924,23116
39821,22868
39703,22749
39821,22632
39923,22384
39924,22116
39821,21868
39703,21749
39821,21632
39923,21384
39924,21116
39821,20868
39703,20749
39821,20632
39923,20384
39924,20116
39821,19868
39703,19749
39821,19632
39923,19384
39924,19116
39821,18868
39632,18678
39384,18576
39116,18575
38868,18678
38678,18867
38576,19115
38575,19383
38678,19631
38796,19750
38678,19867
38576,20115
38575,20383
38678,20631
38796,20750
38678,20867
38576,21115
38575,21383
38678,21631
38796,21750
38678,21867
38576,22115
38575,22383
38678,22631
38796,22750
38678,22867
38576,23115
38575,23383
38678,23631
38796,23750
38678,23867
38576,24115
38575,24383
38678,24631
38796,24750
38678,24867
38576,25115
38575,25383
38678,25631
38796,25750
38678,25867
38576,26115
38575,26383
38678,26631
38796,26750
38678,26867
38576,27115
38575,27383
38678,27631
38796,27750
38678,27867
38576,28115
38575,28383
38678,28631
38796,28750
38746,28800
38250,28800
38077,28834
37931,28931
37681,29181
37584,29327
37550,29500
37550,35250
37584,35422
37681,35568
38181,36068
38327,36165
38500,36200
40563,36200
44431,40068
44577,40165
44750,40200
46563,40200
46800,40436
46800,44000
46834,44172
46931,44318
47681,45068
47827,45165
48000,45200
48683,45200
48737,45253
48737,45687
48771,45859
48868,46005
49681,46818
49827,46915
50000,46950
50496,46950
50550,47003
50550,47996
50428,48117
50326,48365
50325,48633
50428,48881
50496,48950
45878,48950
45878,44849
45878,42849
45878,41099
45868,40851
45792,40667
45689,40631
45618,40701
45618,40560
45582,40457
45349,40371
45101,40381
44917,40457
44881,40560
45250,40929
45618,40560
45618,40701
45320,41000
45689,41368
45792,41332
45878,41099
45878,42849
45868,42601
45792,42417
45689,42381
45618,42451
45618,42310
45618,41439
45250,41070
45179,41141
45179,41000
44810,40631
44707,40667
44621,40900
44631,41148
44707,41332
44810,41368
45179,41000
45179,41141
44881,41439
44917,41542
45150,41628
45398,41618
45582,41542
45618,41439
45618,42310
45582,42207
45349,42121
45101,42131
44917,42207
44881,42310
45250,42679
45618,42310
45618,42451
45320,42750
45689,43118
45792,43082
45878,42849
45878,44849
45868,44601
45792,44417
45689,44381
45618,44451
45618,44310
45618,43189
45250,42820
45179,42891
45179,42750
44810,42381
44707,42417
44621,42650
44631,42898
44707,43082
44810,43118
45179,42750
45179,42891
44881,43189
44917,43292
45150,43378
45398,43368
45582,43292
45618,43189
45618,44310
45582,44207
45349,44121
45101,44131
44917,44207
44881,44310
45250,44679
45618,44310
45618,44451
45320,44750
45689,45118
45792,45082
45878,44849
45878,48950
45618,48950
45618,45189
45250,44820
45179,44891
45179,44750
44810,44381
44707,44417
44621,44650
44631,44898
44707,45082
44810,45118
45179,44750
45179,44891
44881,45189
44917,45292
45150,45378
45398,45368
45582,45292
45618,45189
45618,48950
43977,48950
41300,46272
41300,38403
41321,38382
41423,38134
41424,37866
41321,37618
41132,37428
40884,37326
40616,37325
40368,37428
40178,37617
40076,37865
40075,38133
40178,38381
40200,38403
40200,46500
40241,46710
40361,46888
43361,49888
43539,50008
43750,50050
52250,50050
53200,50050
53700,50050
53800,50050
54000,50050
54800,50050
75700,50050
75910,50008
76088,49888
78888,47088
79008,46910
79050,46700
79050,40300
79500,40300
79710,40258
79888,40138
81138,38888
81258,38710
81300,38500
81300,52700
62128,52700
62128,51349
62118,51101
62042,50917
61939,50881
61868,50951
61868,50810
61832,50707
61599,50621
61351,50631
61167,50707
61131,50810
61500,51179
61868,50810
61868,50951
61570,51250
61939,51618
62042,51582
62128,51349
62128,52700
61868,52700
61868,51689
61500,51320
61429,51391
61429,51250
61060,50881
60957,50917
60871,51150
60881,51398
60957,51582
61060,51618
61429,51250
61429,51391
61131,51689
61167,51792
61400,51878
61648,51868
61832,51792
61868,51689
61868,52700
39378,52700
39378,38099
39368,37851
39292,37667
39189,37631
39118,37701
39118,37560
39082,37457
38849,37371
38601,37381
38417,37457
38381,37560
38750,37929
39118,37560
39118,37701
38820,38000
39189,38368
39292,38332
39378,38099
39378,52700
39118,52700
39118,38439
38750,38070
38679,38141
38679,38000
38310,37631
38207,37667
38121,37900
38131,38148
38207,38332
38310,38368
38679,38000
38679,38141
38381,38439
38417,38542
38650,38628
38898,38618
39082,38542
39118,38439
39118,52700
37300,52700
37300,18550
82700,18550
82700,52700
" /> 
</g>
<g style="fill:#FFFFFF; fill-opacity:1.0; 
stroke:#FFFFFF; stroke-width:39.3701; stroke-opacity:1; 
stroke-linecap:round; stroke-linejoin:round;">
<circle cx="45250" cy="20250" r="137.795" /> 
<circle cx="45250" cy="21250" r="137.795" /> 
<circle cx="45250" cy="22250" r="137.795" /> 
<circle cx="45250" cy="23250" r="137.795" /> 
<circle cx="45250" cy="24250" r="137.795" /> 
<circle cx="45250" cy="25250" r="137.795" /> 
<circle cx="45250" cy="26250" r="137.795" /> 
<circle cx="45250" cy="27250" r="137.795" /> 
<circle cx="45250" cy="28250" r="137.795" /> 
<circle cx="45250" cy="29250" r="137.795" /> 
<circle cx="45250" cy="30250" r="137.795" /> 
<circle cx="45250" cy="31250" r="137.795" /> 
<circle cx="45250" cy="32250" r="137.795" /> 
<circle cx="39250" cy="32250" r="137.795" /> 
<circle cx="39250" cy="31250" r="137.795" /> 
<circle cx="39250" cy="30250" r="137.795" /> 
<circle cx="39250" cy="29250" r="137.795" /> 
<circle cx="39250" cy="28250" r="137.795" /> 
<circle cx="39250" cy="27250" r="137.795" /> 
<circle cx="39250" cy="26250" r="137.795" /> 
<circle cx="39250" cy="25250" r="137.795" /> 
<circle cx="39250" cy="24250" r="137.795" /> 
<circle cx="39250" cy="23250" r="137.795" /> 
<circle cx="39250" cy="22250" r="137.795" /> 
<circle cx="39250" cy="21250" r="137.795" /> 
<circle cx="39250" cy="20250" r="137.795" /> 
<circle cx="39250" cy="19250" r="137.795" /> 
<circle cx="45250" cy="19250" r="137.795" /> 
<circle cx="76250" cy="21750" r="216.535" /> 
<circle cx="75250" cy="21750" r="216.535" /> 
<circle cx="74250" cy="21750" r="216.535" /> 
<circle cx="73250" cy="21750" r="216.535" /> 
<circle cx="72250" cy="21750" r="216.535" /> 
<circle cx="71250" cy="21750" r="216.535" /> 
<circle cx="70250" cy="21750" r="216.535" /> 
<circle cx="69250" cy="21750" r="216.535" /> 
<circle cx="68250" cy="21750" r="216.535" /> 
<circle cx="67250" cy="21750" r="216.535" /> 
<circle cx="66250" cy="21750" r="216.535" /> 
<circle cx="65250" cy="21750" r="216.535" /> 
<circle cx="64250" cy="21750" r="216.535" /> 
<circle cx="63250" cy="21750" r="216.535" /> 
<circle cx="62250" cy="21750" r="216.535" /> 
<circle cx="61250" cy="21750" r="216.535" /> 
<circle cx="78415" cy="21750" r="472.441" /> 
<circle cx="78415" cy="33955" r="472.441" /> 
<circle cx="48888" cy="33955" r="472.441" /> 
<circle cx="48888" cy="21750" r="472.441" /> 
<circle cx="61500" cy="43500" r="137.795" /> 
<circle cx="57563" cy="43500" r="137.795" /> 
<circle cx="45250" cy="41000" r="137.795" /> 
<circle cx="49187" cy="41000" r="137.795" /> 
<circle cx="61500" cy="39750" r="137.795" /> 
<circle cx="57563" cy="39750" r="137.795" /> 
<circle cx="45250" cy="42750" r="137.795" /> 
<circle cx="49187" cy="42750" r="137.795" /> 
<circle cx="61500" cy="41750" r="137.795" /> 
<circle cx="57563" cy="41750" r="137.795" /> 
<circle cx="45250" cy="44750" r="137.795" /> 
<circle cx="49187" cy="44750" r="137.795" /> 
<circle cx="40750" cy="38000" r="137.795" /> 
<circle cx="38750" cy="38000" r="137.795" /> 
<circle cx="39750" cy="34500" r="137.795" /> 
<circle cx="78500" cy="39750" r="137.795" /> 
<circle cx="76500" cy="39750" r="137.795" /> 
<circle cx="77500" cy="36250" r="137.795" /> 
<circle cx="52500" cy="39000" r="137.795" /> 
<circle cx="51000" cy="39000" r="137.795" /> 
<circle cx="52500" cy="41000" r="137.795" /> 
<circle cx="51000" cy="41000" r="137.795" /> 
<circle cx="54250" cy="41000" r="137.795" /> 
<circle cx="55750" cy="41000" r="137.795" /> 
<circle cx="54250" cy="39000" r="137.795" /> 
<circle cx="55750" cy="39000" r="137.795" /> 
<circle cx="52500" cy="42750" r="137.795" /> 
<circle cx="51000" cy="42750" r="137.795" /> 
<circle cx="52500" cy="44750" r="137.795" /> 
<circle cx="51000" cy="44750" r="137.795" /> 
<circle cx="54250" cy="44750" r="137.795" /> 
<circle cx="55750" cy="44750" r="137.795" /> 
<circle cx="54250" cy="42750" r="137.795" /> 
<circle cx="55750" cy="42750" r="137.795" /> 
<circle cx="52500" cy="46500" r="137.795" /> 
<circle cx="51000" cy="46500" r="137.795" /> 
<circle cx="52500" cy="48500" r="137.795" /> 
<circle cx="51000" cy="48500" r="137.795" /> 
<circle cx="54250" cy="48500" r="137.795" /> 
<circle cx="55750" cy="48500" r="137.795" /> 
<circle cx="54250" cy="46500" r="137.795" /> 
<circle cx="55750" cy="46500" r="137.795" /> 
<circle cx="61500" cy="47500" r="137.795" /> 
<circle cx="61500" cy="51250" r="137.795" /> 
<circle cx="72250" cy="24250" r="137.795" /> 
<circle cx="76750" cy="24250" r="137.795" /> 
</g>
<g style="fill:#C2C200; fill-opacity:1.0; 
stroke:#C2C200; stroke-width:39.3701; stroke-opacity:1; 
stroke-linecap:round; stroke-linejoin:round;">
</g>
<g style="fill:#C2C200; fill-opacity:0.0; 
stroke:#C2C200; stroke-width:39.3701; stroke-opacity:1; 
stroke-linecap:round; stroke-linejoin:round;">
<path d="M82700 18200
L83000 18200
" />
<path d="M83000 53000
L83000 18200
" />
<path d="M37000 53000
L83000 53000
" />
<path d="M37000 18900
L37000 53000
" />
<path d="M37200 18200
L37300 18200
" />
<path d="M37000 18200
L37200 18200
" />
<path d="M37000 18900
L37000 18200
" />
<path d="M37250 18200
L82750 18200
" />
</g> 
</svg>
